<mxfile host="65bd71144e">
    <diagram id="rF1fcSVl8BPTGWKNKavv" name="Page-1">
        <mxGraphModel dx="906" dy="611" grid="1" gridSize="10" guides="1" tooltips="1" connect="1" arrows="1" fold="1" page="1" pageScale="1" pageWidth="827" pageHeight="1169" math="0" shadow="0">
            <root>
                <mxCell id="0"/>
                <mxCell id="1" parent="0"/>
                <mxCell id="2" value="http://ics2o.mths.ca" style="swimlane;whiteSpace=wrap;html=1;" vertex="1" parent="1">
                    <mxGeometry x="30" y="80" width="764.44" height="450" as="geometry"/>
                </mxCell>
                <mxCell id="17" value="" style="shape=image;verticalLabelPosition=bottom;labelBackgroundColor=default;verticalAlign=top;aspect=fixed;imageAspect=0;image=data:image/png,iVBORw0KGgoAAAANSUhEUgAAAgAAAAEgCAIAAABNXlwGAAAAA3NCSVQICAjb4U/gAAAgAElEQVR4nOy9d5hdVbk//nnX2uX0Mz2ZdFIIJEIICbHyQ6pe0SsCho4iPFJERLBcvvTmBcWIXLDgI9Ii0q9weUCDCIqiEGJoIZ30STJ9Ttttrff3xzpzcjKZtEkIE8znCcM5e++z69rveuvnpZqaGgwmeFF02PjxBc9bvHatJeUHfToAEGk9ddw4oTWYhe2s3rhxY3e3EPRBn9c+bA5G7VD3gGnDT/r6p6JQ7ckjS1u88qvFi15eazmAUmAAQCLOWuvOnGioISKEIZSC64IZrFHyQAQA6RTyBTCX96UZUiJSEChvAIABrbkmQz15RBFiMSTjpHVXV+eGfHdJR2Bg33jch52H9UGfwGbQzPXJlBRS+L4tJW//F+87mDkVi9lC6mIRiWQQhRu6u6QQH/R5fWjBzMws9ro7XPLhByABAAQQiWIJSstsEjEXQqDkQys2cp81VS6wJw9BurKfMEJtFiQQ+MgVIDftkHryACNSnI4TJJPwbZkLfUvK7Up/ImIwBsMbtQ+DCZtNAMz9DBDqVUO2XFtZtbsQKTW0tjaKIkdrX7MzCLRsIvKDcFnLOtu2MyTWtrWJ3X3V+1ABM2fSacdxW9tahRDMvNvH2PsEEkShRm0CqSTyBS6VlrZvBEAbI2Yg5kBFUBzLZjN1tUXPz6/fCKs8ByitxzYMkSQRRhyPgUHE2gtETQYlD1Fk9g+lkUzAdcX6joJr5S3e2NW+bSuZiKIoCoJAa01Etm3btr0H7sY+7C3YbAIolUpBEPS/nWVFUVS9xHXdeDy+G0+FmQWJdDIhCvlX1qwpKVXsXZVKpSzrAzNWGNxZKDBzS0eHJcTeIpL2LiitNbMAlNLZbHblmtWO42TiiVLgE9HgnwlKgtfnC02Ncbu7B5FCPL4617lptV/ZrgfrV2/58zEjRksSAFEmjTDivCdYi5LPWqMmG3R2aa2gWZdKgY5yYWFDvgDm7fpIe3p6lNrkDQuCgIjS6fTeZ2Dtw/uDfqTq1772tfr6eq01ACLyPO/OO+800v9Tn/rU4YcfvmbNmgceeMCs7ddoGBgEicn779eZy3V0dJTUHvXhbheCCESDIiKxM9CagyhyLGuQRyyU1sNqG1Kx+KqO1rHjxlKoDhm7fxBFjdmaecsX+2FQl8p0FXKDJCa0JQjUUupZ6rd1d/GYuiGJbBpKA6irq1u8eLHv+0RkJrCOjo7f/va3N998M4BXXnll//33v+KKK+6++25h21LpyLV1e6dl29K1fRbL2zb4USi61heCEAQCASxAgsiSknqN8n4nSGbO5XJKqS996UtXX331sGHDurq6Hn744WuvvbanpyebzQ7yCXUf9gz6mQCuuuqq/fbbr3rJrFmzbr755uuvv37mzJnf/OY3FyxY8MADDxCRUioMQzP4xBaqsRDCzCIVMLPW2nh4HcepNim01k11ta/M+1dlRrnhhhuuvvrqhx566PTTT99tl/vvBK25Jp0a2Tx0dcv6rnx+MHuu/ChsyNY40pqYTasg7NrQNrSungGl9Zj6JttxkrH4mtYN67s7Bm30xfd9C7ZfLJVqQs7lzVlqrevr6wEYw9qyrKFDh950002NjY2XXnppc3NzXV1dOp0G0LJ29aqOthDl98Vcpup9faSUQogwDM1X86JV616xWMz3/cqSimZ2zjnn3HPPPQDCMBwyZMg111wzcuTIr33ta57nbc18J6J8sRT63k5dfjqdtqT1PgUZ9kW43z/08zqZcbZw4cKHHnro0UcfXbp0qW3b1113XWWVGc2e5/X09JRKJc/zSqVSoVDIb45cLtdnSaFQMNsXi8Wurq7qVcViccWatWbUNjU1/eAHP/je9763J2/Ehw9BGA4f0uTYtheGg/n90cxDM3WShGaWgXICPaSuXnMZ2XQm4cZY66aaOl9F29/dBwQCARCCVqxd/V7buvfaWwBU3C+u67quK6V89tlnAZx55pkAjHpkxvyyjo0h9MiRIz/+8Y8DUFqrKuXJaFqVr+bOADj00EMnTJgAwPO86vmAmUePHg3g6quvBvDwww87jjNr1iwAp556KgBjlPR7IflSaRhhkuse6DoHOs6Bjn2gY6cSyWQylU6l06l0H6RSqXQ6zcwlr1QqlXbbDTUXAggSlpC7z9GwD5thq/rUokWLTj/99JkzZ06YMKGrqwvAzTff3CcMcNppp73wwgtz5879xz/+cfvttwM466yzHnnkkbvuugu9I/uhhx566KGHRo4cCeArX/nKX/7yl1dffXX27NmVnfzmN78xSsrjjz/+9NNPA9iwYcMVV1zhui62Epfeh+0iiKL9R46IOY5WalhNTbS5KbbnwcxhFFULtcqTDZUaXt8oErEtV6FX2DFgg4bF0r6KokHmHuwDS0oVRX1iaYcddpj5cMsttwAwZkE1vv/97/f09Kxatervf/87M7/33nsA5syZw8zPP/+82ebuu+9m5ldffRXAjTfeWCwWX3/99cWLF69fv/6YY44B8L3vfY+ZX3zxxRdffHHFihX333//qFGj0Cv0L7/8cq319uJ2BN9PMdfYVlZaNalkTSZTk04PHdpUX18Xj8cc17F6IS1Z+QwgiiLe3cPMD6MDRow4cNTIcHA/9L0XOxRZ7VcK33777d/61rcALFmyZPTo0R/96EenT5/+qU996v777wfwjW98A8DXvva1U089tbOz87TTTnvwwQfPOOMMAKVS6bDDDjv22GObmpoAnHnmmUqpww8/fPz48R0dHQAeeOCBIAiOOOKI8ePH774r/TeCZq5NpuqzWc2MUKXicaXZ/uD858yciCWG1Tf2lArr21ulEFJIN+YWCgXNnHTcnlKhMeb2/2NBsCQI8CLXccbX1DDzitb1ltxMd9HMNJj8BH3069dee818uPHGGwG0trZWVpmXy0wMt9xyy9NPP33//fePGzfuiSeeuO2224455phPfOITZsujjz4awKOPPvqVr3zlqquu6unp+cUvfjF8+PCZM2f+/ve/TyaTJrQ7Y8aMeDy+dOnSlpaWb33rW5W0n1tvvVUIsWHDBgBbBoGJKAzCfCH/8VQKYK2Zi0Vr0oEilSTwCEaxVCwWCkKI1WvWdnZ29/l5fX19IpFobm5cuvS9QqEIoLa2FrumwAWRmtA81LVtzexYgzT8s7djqxPAxIkTf/vb31qWdcghh5hneeWVV/74xz+ubHDUUUd1dXV95zvf+fWvf33EEUe8+OKLU6dOBfDOO+9Mnjz5l7/85fnnn2/c988888zBBx98xhlntLa2GqH/hz/84bjjjnvsscdOPvnkMAzj8XhjY+N11123dOlSAGeffTaAF198cd8EMDAorRszGQYQRgSESn2w/n+ldWO2Jp1IJWx3acvqlB1LJBI12Zquru6htfUN2ZqkG9OuheLmGWhSwLEqUp0t0Ty0GQARdRVzPaViJaoRRFFdKt2Zzw/aRPc+cvBXv/pV9ddEIvH//t//a2lpuffeewF0dHSMGzcumUz+4Q9/aG1tbWxsvPDCC3/+85+PHTu2WCz+6Ec/euuttwDceuutP/jBDwBMmDBh6tSpN9xwg7HU4/H4cccdN2fOnOpD/Pa3vz3ttNMAXHPNNWZJoVCoKNUMiF6XlGYmZsRizkGTybZD38vnckLI7p6elvXrpRDScrPZ2s2uDqy09rzSkiU9jhOrqXEAFItFrbWUIh5PDGAaYOZsIl6fyWpmQRSz7VIQ7Atc73ZYgkj393gOOOCAAw44wHyOosgMteoHcPDBBwP44Q9/+PDDD3/qU5+qrH300UcnT5581FFHAZg2bRqAs846y2QNeZ73/PPPSylTqRSq7GIA//Vf//WLX/yi+gT2ZaoNGMpY+sxgEFFHT4+1B2+mSQqozkthoCefrxOucOQnJnxkbfvG9V0d3d09ruMMb2iSQmhmeFvx7ysNDRCgNAMgIIyGyFgH5x2SAIIoGjd0eENdg+eV1vn9ZFgOBrz33ntGvHZ2dv7mN7/52c9+Vr22WCyaOeDXv/51JXXCCM0//vGPZ5xxxoknnjh27FgAf/vb3wAYLermm2822UQGM2bMeOaZZwCsXr16zpw5KVcUA60ZNTU1b7zxxqhRozo7O7/+9a8/9thjJmWDiYarqBJe9TSXwDkgZCbNgLnVYRiGkVKlfL6QL6oImrRlCxJC600+GUtavu+FoWJACkWinBJCREQiCiMhdzp5OlRq2BaOsn3Y7bCkELo//9rf/va3hx56KB6PB0Fwxx13bLnB008//fnPfx7AsmXLXn/99WHDhpnl119//ZVXXjl+/PgTTjihpqZm0aJFAJLJJIDa2tpJkyaZIb569eru7k2GpJH+2Ww2DEPf99U+l98uQBD5OnKlK4kKpdLajs49ZkGz5nQq1Z3LxWOxnnwu5rgaujlb11hTx7YNZptoRE1DOp5asnHN5FFjJYmyeril+1hplIJyCkglESRSHCo3FhNFywjKmmS6saZWEVzHgT9ILQAjvvtFFEXGpeP7/k033XTttdfef//9Z511lln71a9+9YwzzjjssMOMFX7nnXeanwC45ZZbVq9ebVlWd3d3FEWrVq0yAWTP8wAECpoxY8aMl19+2bbtOXPmHHfccWafzBxFUSydHhYGAgQwAd2R7lEqp4OS0mAgjEQux5qJSAqxYsVq141nshmUn5UO/EppA6yE5box142B0NXZadtWIpGIx+ImdbWjs2MAdTxSyFQ8wb4Hy9ZCFP1gkKcy76Ww1FbiNu3t7SaWa2DbdnUeAgAj/c3EfuSRR37hC1+orPrLX/5y9NFHGzXnscceA7Bs2TIAixYtmj59utnmuuuuW716k75m9i+EcF2XmXd7OsG/FRzLWrhiJTOyqWR3oeDuqRo6rTlXKh504CQphBDCD/wFSxazRqR1zLaNoclKSduuj8frU2mmHWAnoN6/toUw4ogpk7KUmpJNL3pvWY9f3G/IMM2MMOTBFAPogxkzZrz66quu65pyXN/3K1FipZQxhZctW3bttdcC+OQnP1n5YRRFCxYsmDRp0rRp01paWp566ikAf//7308++eRjjz3WvE3//Oc/DzrooJNOOqlSFgAgiDSAJ5980rbtd99995lnnrnxxhuJyLKs//qv/wJwcBgSUFDK10zl28wA3jUJoIGHd3qqL4EEgRkgP/DDIAgCv2odObYjLUlMBPi+b7LDN63fyUfDQNyxiRmAsKwNnR2aWQzi57tXQEVl46x6oaU092ucme0SiYTjOJWU/y03++lPfzp//vwbbriheuFdd9119NFHNzc3K6WuuuoqAN/97nfPP//8adOmvfjii6tXrz722GOHDBnyox/9qPKTLQknzJJ9Xr+BwbEsACXP22PS34+ixnR68uhRiEK4MWYuFIsJx+0uFevTmU3iQAh4AYcRHAswgoewXR8xEcAcROQ4iBQJYXvhfk1DOwq5mmSKeZBmiptMNgBSSgCO45icJmO7GKU4Fovdd9993/jGNyZNmrR+/fp0Om02TiQS5rcPP/zw9ddfD+CPf/yjWfLlL395xYoV06ZNq9zVv/71r88+++yhhx5a2S2Az3zmM8YuP/DAA02SnsHdd9+9fPnydt8jIl9zwCBmAnnQ1cc1UEr5vh9PJCzLZkYUhWEQAJxOp2praqIoyuXzhWKJQAy2LTuWSJjpwbIsU74wAGWOgCCM5i1f7tp2OuZu6O62B2sN4N6CKIrGjB7Tk+vp6uoyb4uR8NaOCNhK3nE1TJj3kksuAfB///d/I0aMqIy8J598cv369UOHDn3llVfQW5by6U9/+oknnjjiiCPMDu+9916T6W/2nEqlTApQ9UGxa1kE+7Bnpk8G/DCa0NzckMmw8RszuTG3s7t7ZMOQcZYt4y4rBcUQBK0RcwDAlpACRCAg0gi2mePPjCCCILgSEUOSBpKpVDKRKnOc0WCcAzo6Oh5//HGl1Nq1awGEYWhCmmYCePLJJ0eMGPHOO++89tprp5566tlnn51KpebPn3/PPfdcc801Ffv4hhtuMBPAV7/6VQDxeKJUKo4ZM2bWrFlTpkzRWv/1r381Gtgbb7zxxBNPrFq1yvwwl8s9/vjjffQ227bXrVsHYKW02POIQCTgOKy1irTZAGAhpBk7xiUbi8WNqRYEvlKR49ipVKqmJhuEIQO5XD6KQma2LdtxXCIyE4Bt21IOZAIAAIIAgihoywWDX/prZhqs2qrWLIXQWjuOk0mkNra1jWoYollv6O7UzFRNB10sFvvkLxsLAIBSKpfLbbn3gw8++M0336xe8rGPfSwIgpdeeimVSp1zzjn33ntvJpPxPK+y56lTp/7rX//q91xra2uZ2ff9PoPmg+UC2odtQDFrxuRRo5KOsymbgMtvLDNT3CnTGhtXPgDNZblfgR/1EwPYEmHEBZ9tGzFLOBYzQ4G0hiMBAusVhfcmTRu55+mgLVv+5gcv/POPy1M1TmWhycmpxpFHHqG1IhJLlixdu3bdjuz57bffHjJkSENDw5tvvjllyhTbdtLpTEdH266f8//3qU9E/3gNjo3aGmfChFKp6JX8dS3rS6Wi1oqZ4/G45/lhGIZhWFNbTwCDuzo7amtr0ulUfV1dWTkjrFmzrlgslkpebW257Dmf74nFYgCYte8HH+73VyldX5MNwrBQKg22OSBQ0eQR+yXceJf2nZhrexE0u7adKxYWrlu1f/PIzZ6KEKKa0aEPK++WZA9KKSP9jdFqaB5mz55tQl5Lliy59957hRBSymQy6ThOqVRSShnp77quUsqQFKI3dcTstg+xxD4jYNAi0Dw05o5MpQjoV35TrFf6A5u8/X2ieQTYEp7evgZvW5QWpBSYoZmYEUawJYSAtBAGGExpoOl0Oooiz/PGjB6ZTKUc21EqAjODR44ckUjEEvG47bhz586zbNu2bCFlIZ9raKhvbGhg8MKFiwFMmDCBiFauXDllyhQAjuN4vgcglUyNGj1CkNCsXddNpZK+56P3+olI9/REi5cCkBPGyZosQNGKVdzezlFkT5tqWKZ1FLEgUlpDgzlSqrV14/DhI9rb2yr+V/P0At+3bEsKCaC2piaeiDNzV1e37diJRKKpqbGtrb1Y9EAUBH4YVsIbETMy6Qx9eOO3WnMqmRg7csTG9vaeQmGw0VVFSjuWTeBaNxH6AQGWZWvmVDwxbdwBRLTZBBCLxfoUClaEr5Qym8322Xsff32xWPR9//HHH588efLq1asvuOACAIlEOQvYsqxMJlMtzbecLc1ax3EqztM+B9qHwYNA84hEfHgyqcFcLCDwEE/CaAyCUE4lpLLiz4x+lSMGwp3pZyJFmSLfDAkTSIgUpAXb3n4sYQ9CWlIrzcyxeCzmuq7r9oa82XUdy7Jc13XcGACTLmnbDgztjxSV6q3qF8FxXBIiMuKVqL29Y/y4sUuWLCuVvPETxsbjMaPAAVBKade1m4cCEJZFGgBbyQTbFrSWDDDpkkfDhpIQsG1dKCEISt1d8UQikYi3tmophdabLDqlI6HKVhtR+YNxvhFAZhlYa62VKtcTaE0kiCClHLT1GbsOpfV+w5qZNfXjJt9DYGbNvCVNVqCig0eNtV2bI40wskigN+2Ce3/Y1y7bxkVsd5X5W83hk0gkbNuu/LDPHgZ2rH0YDFDMQ1zXSH+gnDOOJAGAlJAWwgia4QXlyYABk0biWNi8iBcMw505cDCj5EFQuR/LIEFvBxYiKpYKJa/U2NCwNUeX1sorFQH09OQADB06ZMiQpkKhUCyWtNaGjF0IEYVhrxQGM3d1dTIzCbFq1Zqmxrp0JmMSjbq6ulzXTY0fB0K0YWP02lwA9vRDRTIJgv+P1ygIWSv3iMMB6FIpfHVuZFlgLjGvXLkS5o6WPGMHmP+iKIrCEEB7R2cmHdbX19X2eo83bNxYLBYBmEswCIIglUzZjv0hfpdDpcYPa3YcR0eqLplezOts7GkLgJkd26lJpVu7O03pj1G5mABGrlhI1WQR9UfyTwRJu9MxF4/HXdet8H0ar9+H+PH/O4NAI9JJrXVZrBOBBHI9cBw4KURVgcdKVZEZncyb8vrNVyl2bgKIxeD7myn7loRlIwoHlQsIgOM4tu0sWrR0xIhh6XSqvaMDVUZzsVg0crMSIXFjsShSra1tQoiG+rqhQ5o6Ojo7Ojt9P4zF+uHwEUIwQERKaRIkiIQgAgkhCGVtj4iE47DWZgkzhGNDCCrzejExSErHddwogh9UvL5VZXzm9AiEWCyey+V83wujqKGhPgyj7u7utrZ223GM079iypng4of89WfUZjIcqXKV4geBUKlxzUNqMjUxy1m0bqVDcv/9Jyxb/p4kMbxxaGO2th+CJluW6VV2b0tIIpJSykHmBduH3Q7NqHccS0jtxuC6UAq5HhCgNUINtyqt0zh/hYAgRBpaI1QQAmD40SbZslMIgs2kPxEsG0oNviQgACCCbTulYkkpBWZpyV7PZ5nPPxaLaa2ViqSUBFOkK/K5PAGWZXV1d4dhRGQy9VlrrbVOJOLMHARhoVDUWjNrpXQhX9Ka7GJJa10sFi3LCkIFQBeK2nEAlj058gMQIiFgAUJYHZ0AdBComCssq9CfEDOlA8b+EEIAJIRUSudyOduyoijK5/JSWkQCEAArFZGgRCK5R+/yBwHNPCSbJUEcKiLKFQtyjxig1dUeADQ49H2dL2Zj8Y+MHPvGqmULFy2KgINHjUsnElprbPlYjQkeaYjdagHsw78JTAGRTmfKvPNRBNZlJTGRLktnIsTsXqHcmwAUaADwwk3lXQNARaOpBBU2FSUNxkkgHo/lC8ViaxuAVColpVVlqVAikcjn85GKpGWBWRAJy87l87l83mzhuDEpyjdQaxVFUTabLpW8IPDbO7sFgZnDMOzq7uns6tZaFYulZDJJJJg1AAgBE1FYv6H8aIyPTgIrVhoPEjkugFD0kzpFJCxLeJ5nWZaQEgwpLa1VPl/I5wu9F1hh+6EoCh3HcV3nQ677AwBCrRVBWFJF0aqNrfb7X29vCFgjFRVLnm1JzTyyrjGdSrFlSXBayqkjx63pbm9MZVPxeLkdS7TFY/VCoGyF75sA9mGnQQRPRW+vXDG0trY+kyUp4cZBAm58kwhmhhfAkiCCayOMoDQcC0Tw+6ko3AkwQzPK7KZ9JP5gFDrMXMlryOfzYZjvdzMCmMrGUyxWuZObporKfNfe3lsxU9yULe1XcTP0m7G9gzBMEls/Q4BZCFF9hpV8UBOZAH/YPT8AAEHUXSjMfefddCIRRJFW6n3NAWXAC4Ixwxqbm4Yws1Jq4bKlxcAjkGuVy+wRqlS25oBYQosdeAS73QW0D/8+EEReGBJLAYuFRNwFgD5jjoFQlfN84i5cAS/oxyDdWYQKiTiCEI6AHoz1X/3CvJDxeMJ29f7ZjCWorDMzKJP1ff/NZUullELIXhNh043SrKMoAsN1nEQ8YSJ9vQHaLQ9U/v/Wz6U6CLNp4SbxZXKVqtYSURhGvu8BZNl2Lw/rpg2UUkopgNOpNP3b0DgKQY6wvKqWn+8TlNaCxEGjx8RjbqSUJWXJ85KOy8x1qarUSktyLg/XJjMbC9pudG2HJoCtpeTv7PLqtX08Wf8OKsOHDJYQrT2dDdkaYAvRbx5rr2JYFhSW3A3SH4AluTtPCQe2A9+vIorbC6BZ1zu2Q+RYliMtk0MlbMsQMprUSc2bv7SGOoLZOGFIbFZEp5QypTZGKzT5F+br7j1zKYUJ7xGwJX8wEUkpmFn++xH3v9/FX4HS9anU2KFDiASYvVLJSiQD32+qqRubSLAt2fD3ERApxJzqGC8Ub9vg7m8CYEQqIpC0ZBRFQRBEUcTMprbbFAabet0wDE2OWmU5eqmglFJSSsuyHMfpY1SaYeq6rhDC7LyyZRiE1e+yqQjbqZslSAg5cAVEK9339dsZSCEHXvPCUErtSsa0Ja2BS0JGtJMNFwkk3d5b3Sczx7IMn0tl59CM3O4g+HMcKEWC4NhgwHERBoPS8dMXlfr2PLC6owNAneMcMKxZMy94++0epVDm6Qw3y6GqQhAEWutCYYce05YduXexHNe85gC8klfy+j5K0xMYm9sN+7CLYCBQemxNTVNTk8muBOBKi0tBfTzNBG3qYCqTbvXsa57D9miV+xkQWusxY8YAWLhwYXUPSFMU7nlebW1te3t7n+WlUqmpqcn0GzKIoshUQvZ74Gqyh61tmc1mR40ateO6DBGViqWNGzcObA7QWjc0NiSTyYFpT0TU3tZeKBYGphFEUTRy1MgB51Ax85rVawasjAgpx4wcueM+dAZiQqaVYK1BhDDczAgw/DNEcGwEIcAIwr5Wwg4eRuvN6gaiqLyfMIIjAMZgZYKrhud5ZnjfeOONo0aNiqLosccee/bZZ/++YqXZ4Itf/OIXv/hFIcSTTz75+9//HoAxnUaOHHnVVVe5rjt//vzbb7/dvI8nnHDCqFGj7rjjjo997GMXX3zxBRdckM/nAdxxxx3ZbPb111+/4447jPQfNWqU67rr16/flahABeU6TddxXKfPKiLaJ/p3LxjQzFPqauNSat+HbW3ibDUZvrG+T6EfWBLRtjTazbiADJRS06ZNa2tre/vtt4844oi77rprv/32A9DW1nb77bf/5Cc/MZs9/vjjRx55pOu67e3tv/rVr0yvOwC33377KaeckslkisWiaWcB4OKLL7788stffPHFlpaWb3zjG88999wpp5xyzjnnXHnllc3NzZ7nPfPMM6YR2GWXXXbKKads3LjxC1/4QnNz84EHHqh3uNEoEXV3dy9cuLBijuwUwjCcMGGC4SPaiZ+RqbuAEGLlypWtG1urp58dT3Qslbzp06cZwsidO29zIOZ//etfA+uiY6KUH/nIR3bu0EpzZwFyc5peKTdTOhwbZLIOGIJ2WkQEIRIJBGH/vas3GVvlDysKyyZNGzVIuICqYXiBOjs7a2pqjHEM4PtM6LwAACAASURBVHe/+53p0jVnzhzT1NfgT3/6k/n685//3JTTG6xatcq0en/ttdemT5/+4IMPmuby8Xj8nHPOufPOOytPf8GCBZMnTwawYcOGpqamhx9++NRTT/1wE/J8+KAYB9fW2FIwAM2wLKQzYIbtlvOtDZ2iSfQ0vIp93A+l/uq/Nkc/L5aRAu+++y6Ap556avLkyS+++OJzzz03cuTIWbNmGTrP+fPnn3jiicz81ltvjRw58oYbbjB8hI888si3vvWt2tra+fPnO45z+umn//3vfwcwZMiQMWPGfOYzn7niiisymYzjOOecc84999yz3377vfHGG8x81llnmX5GBx544IwZMw4//HBzJjuLXb3rO3VQAmtmP2A/NAy/1YePAA8sQTEmAB54uzKJmY2hN1DsqQtnZmYdKRYCWiMMy0LfddHLYQAARNAaXgBJyCaRiJWVd81QO6a2S8n5IrbmlNN7h9JpuhvdcccdNTU1b731lmVZRNTT02M6tNx0003HHHNMV1fX5MmTJ06cWCqVjj766O9+97uHHnroBRdcoJQ699xziWj+/PmjRo0y9LqG4PPMM8+cO3fu7NmzPc+74447iOjUU08lonnz5k2aNOmhhx76YK96H3YFvuYDshlbCubeKnoiGH+M0oh02ePvhQgUlIYfwdtc3BMQ374e3L9GYBoAOI6TyWQA3HfffY888sj555//yU9+srGx8Utf+tKUKVNKpVJ9fT2AG2644aqrrvrP//zPa6655uSTTwbQWxMI3/c//vGPjx071piuzc3Nd91118UXXwzAsN1OmzZt/vz5APL5/Oc+9zkAS5cufeedd6pdSYMRRAgjrG3H6u5ynF0IjMzYOgoEXCACxiinRtm2Lpd5+qQ3WsE6EbqD3l+xLZgUTClAoJiNngKUhpSIxaBU3xIt9PIIEEFphFE5OBwpxGMIQsjeWLFJVTY5o9WQgirmlCGUBmBXbWb8P4OSC7oPDCP0QQcdNG/evHnz5lWYtUwnpYceemjBggUALrvsssMOO2z16tWmOcxLL710zz33ADjyyCM7Ozuru6i++eab5uttt91mWdbixYunTJny0Y9+9PXXXz/00EOPPPJIAOPHj3ddt61tN7CH7sMeAwNZS6YsS0sLbgyBjzCEitDThXQdZJU+RL10WyYdLlJwbQRR2SzYgZyLfiYAE5sFEATB66+/Pm3atIcffnj27NlLlix5+OGHH3vssdmzZwOYN2+e2f6aa64xnabPPvtsImppaansasGCBYcccsill166fv16AF1dXUb6AxgxYgSA559/3kSrDAndFVdc8d///d+33npr+ep6sYM3breE47e/EyLOFTF3JWwBW8Ax3GTgllwzkeXEVslgSpBwtdTE3Lszl8WoIF4rrXfs0tbmgF1MJtu1q9/+oTlUnC9RoDjpkiOR9xBzykUllYR0x4ZtlcO/QgACpKA08l4vGwTDligU4dgIFRwLxQDpOCINSVslhY4UfIXaFCJliGl6CaV3ttnUBwDzNt16662NjY0zZ86cOnXq1KlTzz333Ndff3369OmNjY0AKpzqv/jFL0x71G9+85vo1ZPQ60QyviNj67399ttmlfEL7b///ldccUXloEYJy+Vyu8X7vw97GIIE0hmSkgGoqJzpYLuwehkPXQskAMPCQvBDRBqBQqShd6I5Xn8TAAnTyBfA9OnTjznmmAsvvHDKlCkHHnjgddddV4kZVLvmp02bZlIUsM2EztbW1uqvWutXXnmlnFrgeVLKJUuWVG/Q3ta+4J0FO+HaIGil7WovxM7Asuw1q9e0tLRsw7GgCWkWo9qJY5un3BAgiYHGyKmNbAukabO9MMDEaWUfQFho9TMHxFx3yZIlRDvvKEdZ/RUDrUQnojAIFixYsLVDa9YNdfVpcuJuHCmHpEBHrszhU30dJmZrTATHAQiVbiRms3IKf4C4Y/ijzYwghIAEKQ3P50QMQQh785EZROzY5WblfgRiSNok/ZnLb8KgnA2Ma/6CCy7wPG/UqFEArrrqqquvvnratGnHH398a2trc3Pz1KlTzcZ33nnnscce+8gjj6xZswZVzYQNHbSZS8xUXfH4L1++HICZTvbwpe3D+wECcmGwoq2tqbYm5rhlri07jlhik4UdatgEAiyJMIIUsC34YZlra4fRn8gghEEI4MQTT2xvb7/xxhtPOumk8ePHP/zwwwBmzJhx3333AahYo7NmzZo7d+4TTzzx4IMPKqWGDRvW3NxsVh100EEALrnkEiOUq0X5mjVrhBBPPfXUZz/72c9+9rNBENTV1T322GMXXXTRn/70p9/97ncANGvP93bin+cFYTBgJZoIJhlpG4fIeaWhPcTOVhuUMiBBW5Phmrg2smtYbrkBCfJ9f9tH38aFe563S9KPsI1DF0slQ2FDCRuRgh9tsi656h+ASKHkwQ/hBygWUSxt5hTSGiUP3Ju2LAg9BZGJg1nYVjHwe3Ld8AMqlAxrzWYnGLMRKTgWNENQ2Z4AEESINHy9q5Si7xuMpD7qqKOuvPLKd955B8BNN91kAgOtra1mqJ955pmXX375tddee9FFF+2///5//vOfTznlFACHH374T37yk3PPPfeJJ54A8Oc//3nL/X//+9/3fX/atGk///nPzzvvvJdeeomZn332WQAbN25kZnOIfdiLIIVY391VLIXEEm4KmQbEN6dX0hpeCC9EwYcQIIK3hQN2B9B/DMDksTzxxBP33HPPxz72sblz57a0tJiY1eOPP/7HP/7RuIa6u7s3bNgwYcIEAMYLNHv27LPPPnv16tVLly4dNWqUlPL5559Hb5/SciEJETPPmjVr1qxZd99993e+8526urqGhoZXX30VwNSpU4866qju7m5zJnu6ww5ty6eggaFsuZB6F4KPmniIspdYnr3FgT7YdkLbOLoQwg+jRMzRbd0Ui8GR0AqG+VZraA0NWAKiMi8y/ADMcB2w3tQMwJLQGppAGkLAkpSKoSsPpnUq7wd+24Z1Uyx7vVewdGxYvEmzLocHXAtdedaMgiDHgrQBU/mi4StkEuUoWWkwBoXN4J85c+bChQsnTZpUUYOefPLJV1999dVXXz3kkENmzpx52223meV33XXXCy+8AOCqq6667rrrLr30UrN83rx5n/3sZ1Hu2lj+a5jazj333F/+8peVlKF33nnnP/7jP7A5T/s+7F2whCh4pYZM1jzCzdYZinXzrhlGXmHBCwbgBe5/AmDmeDxeKpUmTpz4+OOP77///uPHj1+1atWDDz44a9YsANOnT589e/anP/3phoaGd99997bbbjNZB1/5yldWr159+umnNzU1tba2Pvfcc+effz6AjRs3rly5ctmyZQAcx4mi6Cc/+Ukul/v2t79t0kAfeeQRo/KsWbNmxYoVJmYw2KCBpJa8Vf1+RxHXcpAqq1uBFGJDe2umeaRQirt7YMtyDrLWZdc8CBLIlza5ZYyD3rHh+WUhblubYlZKwxQQECHpUqD0itZ1Xj5h0/KOdQXpsF9siCWsUKMmjQiwgJSgSIGo1ztEAKAUuxbZsmyUfHATqNIqQp+GqmVIKROJRLFYPOCAAz73uc/NmDHD87z//d//XbhwodnglFNO+e53v3v66adrrX/4wx+iNxp0880333zzzRdffHFdXd3LL79sZgUAl156aXNz89KlSwHYlh1F0ezZs2fPnn3++ecPGzZs3rx5vZUEOOuss9LpdB/P6rahld7ZkkCDCgP8ToMRRuHAZinbsgdWeqm1ri5y2nHsymVGUbTjdaa9XXcMnZ8Fv3dsCQHHRsnrrbcHIj0w6Y9+6wDKK4gKhcKWI5qI4vG44TGvhhnlOxJxchwnkUj09PRsN8Hfsqx0Oj149JcIGK2cxsjZxROKSL/uFGKD0mG9DZSi6NDm0a5TdflhyApUny23dC8Uyon/BozeVgG9DqJqzQWVKgkiota2DWta18RsK4gUJ7IB9MF1Q51I0NA6KAYBngfH7t1h7y6UQhAxE8UdmDqA6R9AHYC0xR9/s2Th3Bbb7aeOz/f9VatWMXOhUKgezJZlJZNJAIVCoVoY2bZtlnslzzSANKivr7dtu49uNGnSpHg8XigUKtMJgHQ6jS0o4ZLJ5HbDY1rppiFNJvdvZxEEwYr3Vlj2TgtHrfS48eMGYP4S0fr1G/K53M7OAVrr2tq6hob6AciWKIqWLVs2gECjUmrsfmN3kCqDwQ7JhKe0SY0z+dZ94LoIw7IitbMXorQxmrf6tJg5mUzGYjHD1gBACGEoH5jZcRzf9w1FhBDCcRzT+aumpiYIgjAMmZmIbNu2bdvzvOqnaxxB2Ww2DMNK6NgUmofhZkXwQojBI/0BEKCIwbR1J/8O7SQk3hvpsmwhcn7Jdd0KWxgYlHQ5iMi1uOiT42xyzRs4NiIF9DaBqc5LY5SJAwRB63Q6ozdCCCFIaxVJIYNkXNiuIwgAe1HZv9SHsUwKWJK8AG1FpGK7mAg1cDBnMplstmg5fR+safwSRZHrujU1NabUA70dts3wNlrOlsvjifjHP/Fxz/OY2bZto3geeOCBmx+5vIfm5mbf9w01i+u6S5YsqXSIrN5y2zD5eNlsdgDvne/7kYoGMgGwzmQyA5sAOjs6c8w7mwrGzLGY26dD7Q4iDMMoigY2AaQz6R23HjgIddTb5lopEJXZtCozQRRCCihV9n/uONGW1iABEmC1rbPhMu9rrJq+rXLLXNc1qWZ9lld39C2P43g/zYyY2bIsUxRT2XKQN5MRQKuIhu5a9REx5YSSe5v6D8AS4r2utrp01btqW8gXEWq2JGyJTBqFIgSBzQgDXAfah1bAFhk6BIQa8TiYWQVxN5ZOJFXkW5ZQHIWaAhXKiP3OnlAyQdeks+izF6UgBKRAOl5uDvzBeda4t5Kun1Wbt0StCOXtLjdFgeZtqswQWz0BZtu2zeRRXU44gCsZwA8rk9bAMLDf7iL/xIDvz/t7xF51noVApMi4+A33hmWjivQbtkQpgGsj4aLol63wSMOytvMmCAE/hBCw5Q5NR1s76Z1dvusb7xS0ZsVaCiF2k2JIQAm624qyyh7wyFPEK6Xv7IUTAABXyM1EMBHiLtkKkYZS6OwqxwZChWwSnod8Yaup+gxYEvk8LAkpmdFU27Rq/Xuu7UjSoZRrN6wfNWx4SZdaVqx0bCQOmOoI2Uv+AwgBzeXayJizqQ39BwTaehnHrqSlDWAnRLtWH0EDPOGyJgeEphMyyDwqe/NOzRGgyg1rQdjUQnegd2lX6mYG9NtdeHG3XejDACKFgodkDFIQATbB+OAFwQv6eoGCCEQIFUo+Kj5PraEURG+GtQY0wxboQxLjli2YHaODBpnYxQebprKDYOZIa6W5KZtpyGY7enpaurpilr1bzt0BLbG8g7VwWAxA3gimZW5xF0g7P2B4WnV3ddWl0lprWBJClGNQmSRYgHS5BMyW6Owu16ps7VqNDIg5veRWSLoJpcseJAHWSi9bucJWfjwmSUrbtstCI+qN91YegCmC/0BTqAqFQj6Xt9x+XECe50kxINOW0SdssIMQQkRRNBCniiDf8/P5/AAsgCAIIilqWYyIXJeF8ZWGpDfKcJ0I4yAjvUYrJ6Mskyodkm6T4SqhCoWCILGzSpUQIorCgVwmKAiCgV1mFEXWjunNfSCFLBQKlmVt7aCuZYtCKBwLxRDEKPnlXqoASj4ARBFSSfgBBEFaEAKeB2b4vRQRUpQbJYUKiTj3FCkdL1vkQVQunak+erRNF5ABMwIVZRMJgLuKRceyBrP0YoZtWWPq6zOJpCUEA9lEcmht3aI1azR4t5y5BOY7hSlB0t3JOYCYVjrFdoq2TADdW2CT2FjKxaVlCUFRJFMJDiIoLnflhUAQwrUBUTYFtn2h1UIcbDm2LaUGWxCSFQvLkpYISgpMoJaWluHDhpVfniCEY5dH/HaP8v6DiFasWj7/rSWJRD/sK0KIAXjGDUzdwAAwsPQYKWXL+pY1a9cM4Ii+wCRKN/gO06aeNBbLMcpqlPZbdrGe5dggIZjQu4HNcrSyhgjn7XcXhhhIYGxglymkaG9rHxjfDIFsZyClptKSixct7neSY83JVGp0w9Ck7YIBIdCThy03vR7lgkegWAIR3BiYUSxu0uuVBolKoyAI4lyBJZElKNTKC4QKYVkUhJyscsgrvVUuoPKZMccdZ3xDfSaRIFB3sbC8Zb3SWgyY9X4r2EUfYgWRVgeN2s8iwcy6NzgRc5z9hw9/c+UKd3ewIRJgg95wCgcFyTjLHVRbiGmlU9oo9mLpD4AIRRW92bWBCMTYn5sysDiTBDFJwX5IXmhKe9mxwCbZoFdG97lPUkAzHAld5gIiEkObRqzfuEpYJFmFsIjZMMEpUE1tLWD0kRCakIiDCLlCXwbEDwhSSAvOljS0xnFfIXNH1cu1fepWwk7z2hqCwp0sB62GlHIAobgAPDmK1UdOvwXwCS2nBEmHBQHVWdRmrctiCtW85RT25IMUUjhyIJzBu4KtzRzMbHrBsS3JpEUoBVuWEyUik+kvAEBrMJDLV8l6AQBSoOjB9MkQArYkQRQo7ikGMast31HsWLf/kAkdxXwm5gjLKjuI+rVlisViebAyQIilRXtnZ2t7BzNnUqkpY8cuXrOm4Hu7xR1kWOeCIFBKEZFpC7NLOwR68vn6TKZ6NmHmuOtm44lS4O+e0wZs0JtO4aAwkVDWdisDiOk9p9i2l0t/AyI4JAAocFehkExkuCfv5UqW68RYdSs/n8tlnFjSzpDSFISwJNt2VXsK46xnxJOIFBwXQQCOkElxycskUi3MzJBakQBpxYAlSEv7vQ3rJjU0ExHI4pRFxgtkaoMHK7TWPT09W1ubTqd3Y9YDEYVhWCwWK7FiIUQikTDpebvrKP1CA7Ust5T+FTDgbl2/Z8BiGhvFFlmlvTQ2tosgokKh6NWHiU6fFZMjy6OaGV6ImhRCBeJyrbsJ8YCRTiII4IeQolwrAED11l0KgiWEH655460NOko6aMl1LC32TIw7jfEUKxMrhqwwd1ZOpVgsKqV0L/KlUlc+310o9BQLMdtuqKlxYu6Gzk65y50/CVTySiYJWmutlDINZ2zbHhivPQAhxMaeHseykrF4WdYbzhgpC55X9HfPBGD2aoHWyrCWpavlNrxLxFjuljo+FNK/GoIor8I1Xt6tzTiJmAK3BcWlHRvzUbC6mGskO06yrVQIoyieSLDR5X2NdBLxGBIu8kWtFbsuAQgVoghKWyR7cl1l1ZCEZiYV2ZYVCMe27SEyzukUHBsFj7tzhHIucyXk2aV7GodlJ00bpfdsQFhIMf+v761d1unENhPozOz7/uGHH37ppZdOnTr15ZdfvuSSS0455RTHcRYvXuy67u6aAIjI930TMPjyl798zjnnZLPZd955JwgC0yFytxxlawjBY6P4LsrumBZrrWBvzI7bLRBCtHd3pxKJeCJRjq4BCCO2LIq7kBJ+1Et4ZUAIwjIZV3m0s5F1AMpUoILItjQ47+VsIXuComXHlVaNnuZ0GnEHbn+uSeONWbdundZ6xIgR55133g9/+MPly5dPnz5dWJIsGRMxKeSWkpR72/xWW7vFUtH3/L7H2Bxz5sz5yEc+4vv+c889d8EFF+RyuWw2O2BJ7VrWio0bN3R2Da+vTycStiW1JSHIsiRz9R3cDYiB/mUXD6F4OrL7VX8IWOaWOinaewO/24AAbPDqtWsU60ipmkRqSKbGpLGtyHfWh/5aLx9oNY7V0HRWB5EJ0cAPQUShErYAQI7DuTz5mi1BocrGa9ryrUIIWwektTZlX0QRdBi3JTSERTGbJIMI2SQY8IJysfGgxBFHHPHtb3973bp1t9xyy0UXXTRx4sRMJvP000+bzqkmM6RPiqdJ5SQiWY5+A72N88xyy7KqG/8ys6nNXLhw4cSJE83CRYsWHXDAAcVi0aSHvn8XqICE7ofeaqdAoCFstZPaG0tkdgsEUXexkE2my4RuDGimdAyaYQlWmizarAF2pTqMsOlDBVoDAuBEOkNt62wpdKS01rFkouCmEkkXoUK0lRgAgAqhWywWq62tNfTlK1taVra0uI4dKV1xa1Yn8hu4rhuPx82grK4lloDawt3f2tra0NAQhqFt2+eff/7w4cO/8IUv5PN523ZiMXdgt9KWMlRq6foWZtSlkqNHDHeELQaWibE9pEBvWaVJQE1/c8BSp9hF+sMn/Y2EqklnGGjv6qrPZOOOO7yxCWY0Mr+9YtmqQrdrWUJKLwyKpZJLUsddlDwCBYHPuVzCjSnX94idKCp4pZTtlrRqK3QoZknEzIKIBBgEgu/5PV6xrqvAACyB2jSEQMFjEmRZEGJTC+JBBsP7Zoocf/WrX40dO3bOnDkAttYtdUukUqlq3w4A3+9HqXrqqacmTpy4evVqQ6wyceLEZ5555vjjj/c8r99anN0Fwu4Z32KnK7o+VJBEaws9jdnaeKXY3rXQ3s0gWAKJOIRAGJQzeYgQj8H3y72Y+tw3ZggJx2HfS7iJmG0z2BbE0Pl8oTFdk2/t1MTkbrN3LjPHYrE777yTiAzjm4EfhKaxe2Uz83n06NHTpk0D4Pt+T09PT0+Pkf4f+chHDjnkEACqd/vKru66666GhoZly5Y5jjN58mRm/vznPw9AKaV1tCv8+ESwpXQs2V0svrV4qef78Zj7PnkG4qB3rVKnFYjNPUFLytL/wwZmjruxVCK538gxE/YbO2bEiCG1dSOahpQzjxkADtpv/MFjxnthqJXe4BXmtq1dHOY8R0ZekOvscjOp+IhhurFm0arlby16Z37r2sW5jje7NrzT1RqxBkhrzYAgEkRMggBbyuVtGxah2BOX1NxQdn2WfECACCRR9Havefd+oLm5efTo0el0+qabbnruueeuuuoqs/zyyy//wx/+UOmr+uijjy5YsOCNN964/vrrAeTzea31hRde+M9//nPhwoVvvvnmT3/6U7PlZZddds899xgqRtME5rTTTvvOd75j+syYJWE4kFzJncJuqcDbFY7FDwdkpcuF+UMCyRg5ksBUKMLzQCY+7EBKFApbNXxNm+5iwbwRQ+qaw0hJKW1oz/Nae7oilxYuXbBq8Vvbsbc8z7v44ouZecmSJc3Nzcxc4emcOXMmM7/33nsAPvGJT6xbt27FihVz584NguD666839sH//M//KKXeeuutf/3rX8z84IMPAjj66KPz+bwJjn3yk58E8OSTTwJYsGCBaYvx4x//GMC4cfsVCvnOzs6urq5daZQihSDCW0uW6ki9f29BDPSu5bVVzQGLnWLuwyj9ASilmxoaJu0/UUrBmoc0NCYSic0nV2JG3HVH1dSPGj5i4ogxk0ftFwXBxu4OsmWmtoYUE6OUK9oxl0FaK2kcSoIgJMCaTZ0niBBR2XQTRKrkx1wXUkBKdPRAM0GBAdawxOAXIMcdd9zxxx8/Y8YMIvrMZz5z4YUXmuXnnXfecccdZzhXurq6Tj755CFDhhx00EHXXHONeTsuuuiin/3sZ9OmTSsUCqNHj77kkkuMGXHSSSedc845p59+OoBUKuV53t/+9jcA8+fPD8PQKP7VOUjvBwRQlNEuvlsMbBD/vv4fA0uI1o52EYTkh2SEOzOYUF+DbLqcWi0likWEYW9PpP5AgG3BKrseUvFkpJmZJUdCivaO9mUrlsVdYblbUJcYJ2P1EhNBisViLS0tGzZsyGQyl1xyCQDTw/2f//wngBdeeKG5uXn27Nl33HFHFEXXXHPNSSedBODiiy/WWs+cOfPUU08tFApnnHHG8ccfL6VMJpOGr6q2thZAhcfKtD0aOnQogPfeW5FIJLPZbDabLRQK+XyhD6fQjoOILCmXr2ux3s9oWBy02PI22j4Bi5xinvSg5rXYWVSlu1qWXL5q5etvvbFw+ZIwivySJ/tJ8wQzN9c1pOFkMpnaRGbimHEpJya1JltCabhWV65L5XumTzjw4DEThtc3KqUBsJCmgTzK7dRIkVTMoVKadX1tbUxYDEbcQcxFzEG+xO2dKJbgOLtUp79HUKHVuvLKK6MoGjZsWF1dHYADDjjA9/3rr7/+pZdeymazv/zlL+vr64UQPT09J5xwAoATTzwRwIsvvjht2rRsNvuPf/zDJEq0tbXl8/lKq6Xql9e8TV/+8pff74uyQetkQLtQZkOgLisYUC+kDxUEUVtQ2pjrLvpeqVQiQQgi2BY0IAS8qOzrN7me28DmOZCO6xLAYGIQsxDCEqQ1GGSpaiOin7d4M6qfl19++aSTTjrhhBPuuOMO0xDm1FNPvfvuu13XfeGFF84880wAtm1feOGFl1122eOPPw7AsqyZM2fed999qVRq+PDhAFzX/fWvf21GqslB2rhxozmWeT3MwiBQjq3JuIHLBeoUhdEO0ultCWub/q7dgjhopQzWykBX1bh/CGAUckfKgh/YUpggpFKqvbNz5JDhCdthvRVTNFAxy4LSIBJ+1JTKsGZ051kDng8d5nrypVIxm8kmY3HP99vzOcvo+5vCXczgpmQm6cbqEilOuDoI4QUIVNnhE3c3D43tNZg3b96MGTNuvPFGU5H0+uuvA5g8eTKAGTNmzJ07Vyll4gc//elP58yZc/TRRx999NG5XG7RokVz5swxDSC/+MUvVu9zS9bFbeSh7i4Q0E2q1fYbQ3drmaDb/nlEepnlf8jS5AYGQbSi2K2ZQ9YHs85ooVJxjpSI2VTytIQQAjGXAYSRSeXcJLcNM6gQcG1oDSlR8mBbpHVz04i2jnVCkmStyCKtGWCSIpfPbfqXyzF4GymY3/ve9wCY9nVNTU2mYamhJzzqqKNMMMBYtSNHjgTwwAMPKKVOPvnkp59+OgiCe++9d+3atcuXLz/vvPO+/vWvA8jn8wDGjRtn9m+KAAqFAoBUKp3L54MgIEIymUymkrFYLJfPbZdE+oOF8fl8y4DjsgAAIABJREFUaCxZZvajKO4645ubJ48ec8CI4Y5lG3/i0KYhjfUN8XiCtYLtbFUlSThQDEuIuMNSQAqk4pR04VpD/n/23ixGsuwq237X2nufIaaMHCurKmvq7urRbRubD35/AnFhG8mIK2QZZCwLJIQAyUggsBASQkJMvrCZBEi+MMaSJcwVN0b6uPiFQEL8+MMD7q7uru6uMSvnKaYz7r3Xf3EisrKqstrdldWVmdXxqNRdFRl5IuLEOXtY613vmj+tGFevvlL5pJ+ZOWGdlarIwN/OMDWD8Oz07FS9KQCyEk6Q26FSYjhiHMuB45/+6Z8A/NiP/djHP/5xANWCqdL8tNvtycnJmZmZtbW1y5cvO+e+8IUvfPSjH/2Xf/mXbrf74Q9/+Hd+53d22wXvZa/is9pb/J//838ewWcJQG+ofOOeNNgPhAAHvBYkx/IrfHfQRAFzrNTqoNtTkmdZ2utn250B2W9vLi/2tvvpgErr81LSbGjAJIKsQBBAGEwQcTxyTQ8CgNr1VqXb0b4UgLzVTI6UroIwb5MrV64sLS2dOnXqm9/8JoB/+7d/w2in+e///u9f/epXm83mYDCoclYAPvvZz372s5/95V/+5Z/8yZ/86Z/+6Y997GNf/epXf+EXfmH3gJubm0888cTTTz9d/XNubg7A5cuXARAzEbIsK4riSJlCv3cQkTgIL87MNOK4+merVn/hXP3WxobSZm5qRhF5CLRBWWm97rmLQy1bPQgQGWrF8IRAoyjBCoAhPnX67OLNG0sri2cXziujnzq58PryYo14aIgICKQZhCKQoaf0nXK36tIftiQ7ZmPIn/zJn/z+7//+Cy+8kOd5mqZVq6X19fVWq/Wnf/qnX/7ylwF8+tOf/omf+IkvfelLX/va1y5evPgzP/Mzy8vLAERkYWEhDMPPfOYzzz///M2bN//8z/98eXn55MmTv/qrv/q3f/u3v/Zrv4ZRF26l1MOqtH8LItBlnXnInH27+4Bq9H81HOQP5APxeMOgris2t1ZPTE/HJiyK8tr6SsB0tb9zyrn6xPStwY4FTpuZ0BjJS7BGYBAGGKSwuWrUwQoE9AaiOCSllSECeWdc4b1XigsiLooyH1Lkef4DR9uqK+lP/dRPAahiPlWS6oUXXvjKV77yF3/xFz/+4z/+d3/3dx/96Ed/6Zd+SURu3br15S9/+ZOf/GSVLYjj+LnnnltfX6+2vdWq52d/9mefffbZ3/u933vmmWestX/4h38IQDHHtboxxjlXtRzYdZke82jIy/LMzEwzjneFXtVfTs/OzE9NkxNvHYoCdm/n9zsvHq2oGVEtoFaMrCpZpKFZJMiLnJidbzZryysr3V4XwMxE+4eefKYUfzvwKND3S/xUL5UViGJMNCpn6XfnTByIoT3nPf8F8K1vfavqpPStb32reuSv//qvAfzN3/zNP//zP//rv/7r17/+9c985jOLi4tRFFXNWX/3d3+36r6Xpmme57/4i7/4m7/5m1UzyEpk8Vd/9Vf/8R//8Zd/+ZcAvva1rwEIw/DRLKFi0Js6XzbZ29kHVKP/y2F/PPrfD1c68n5zc/P1m9eyJP3hJ55+37knf+SpZ/u+/LeVa+tFup4P+t0uJzn1U7QieCHni0GKrKDSklLsgTznNBdrFRvvRYDQl0zETB6kB4M+AG00E1eVZneZllSbyt0+Bn/8x3/88z//8wBu3LhRPfKVr3zlk5/85Cc+8YndX1xfX686QX7+85+/ePFiv9/v9Xrz8/NFUfzGb/zGiy++ODMzUz3zC1/4wqc+9akPfehDr7zySvVItQ4yJgAQBqEARVFUFhHMlKbpIzjv71msc4pVNTo5507NnsiJIufuiArSbjsYAgjGwA79f6D0aCsweioAVggY1oEJpUV5h80xEZ07e/Gll7939cqlF174YaVUZIIzp84tLV6t0ihElOYDYObu91opf7x4YjYKXpCVRzMUVPVHqi7dqrvLbnHMP/7jP37kIx8B8I1vfAMAEf3Zn/1Zu93+3Oc+VzX1vXLlyic/+UkAn/rUp775zW9+7GMf+6M/+iMAi4uLv/3bvw2g3+8756rmX5///Ofn5uZ+7ud+7iMf+Uie51//+td/67d+C3jnhkIHIAJdV4UnnC6it9gHEOAgL4cD+xjFSx8izrm8KH7ohRe9+FfffONHnnlBK8UjX+1nz5zvDgbX15YN0dX+9nraPzV3QvUTXfg8JBMHRNTd3r6+eLUB1Smyuai+nae2TJk40OQBVTmDDlWiJ+aeefpi9V0x83e+/d1ur/cP//AP3vtPf/rTH//4x3/lV35laWnpc5/7XPXyX/7ylycnJ//zP//zi1/84pNPPvHmm1cA/Pqv//onPvGJOI4vX75cxfcrvvjFL37gAx8IguDGjRvVjuH555//gz/4g0odVD3nS1/60gc/+MEsy77xjW/8/d//PQCtdavVFiAv8qTfG3We8XletFqtBzaKGLMv3vuqz9nZ0wu3Vlacd0QIdXB2YaFZb3Q6nZqioaGxYhBBESzgASIofXsHADxAOJ6Jbty6trG+Uq83nnziWaVUmqWXXvmfONTVXKS0evLMc/eUugBJjokmjJaiQFZQHFxLrz3/4TOPviWkNurv/vj//f/+5UqjfcdQ+9ZeQHdBRBMTE51O597VetX5vfp7FEVvv4IMwKHcLwXklDdnivh+5fGW5FIwHv33xzp3YeFMe6KtWQM+KwrthPd0VSCAmC5fv0qhqQdRUmSb3c5z558MU29adSKy4pc3VxfXVpiVUUoABum8DxGjGAATeeJURwSg2Wy++L7nK8daJvqvb/13krzdhfaP/dhHytJ+7/svZ3d2CZ6dnd2Vpr0j2hMtAfX7g4n2ZFHkRZEXeR7HUVlaAHEUP7AKaMy+eO9npqaJKAyCE83J0ttL166UZaGNuXjuQhSGxFzmufFSCfVHMR6FOwbZB157C4y2afbd73+7cjJ/4bkfUqz+5+X/q5QKtfIiIu7iuReUGgkehr8nyC2mJ+BEkpzgEAbXkqtHagIQkX6/fz/tMjPvVTQYY6IoquyDquaOAKr+jkEQeO+zLNstAGbmU9PT271+ZkvacwTv/e5zqp59h9XDo4DMe3PunjmAAAt5KRz48ei/lzuFbCKYm54Jw6DdnIB4tc/lLFKUqfdRHMP57bzvnZ8OalyPyUue5a9d/p+z5y867zc62/0sVcycJ+RtUM0HRIUKStK6erGr126cP3fm5UuvWWsvXDgfGKO0ImIilKVFklB/IASu1ckYAL7bE/HkPdLMKP5fzz3TX17NCCIS1OKwVl/d2GhNtOfmZq9dvULESnHVpa4syyAItdYgSgb9M2cW2hMTeZ51u31jdKPR0FrfWloS8d47Z613HoBznpmIWJv7tlMY82CIYHZquqYDn+SeSTn17IUnX7v65vPnnrDWAiW0NtqgtFW3p6HOaThyPcDgInf/YmhMaV946rlLb77CjFde+96LF98fhVFRFpWhN5z3oVFBgGSv/wGBIbc2UA8pMDDBEdQCEdFbNFgXkb2j826iZbfZ6t7HiSiO41qttvsglJqfndno9XYb3lW/fsdzDo8AtMqlD+R8Ge++DwJKkv8JBjwe/e+kUjNYZ41SRATC0tpKXuT/zwd+WPvdIpw7rnByUmMNIhg9WUYqNpLmsrqNKChd3s9LODvbnpqZaL987c28LMEKzg7lAAQRiYxRAMIwDALDjH5/QMTOWW1UvV4Pw9Bo3ev3gnq9MX8imJ7inQ698SavrkXPPxfOzgTTk8X//bbcWvY7nfoHXqxPTtbiWL18yW1tDXq9jbIc9LrMzKyAqpZXnPPGBDIa4LVWRNRqNRuNeq1W01otLS/3+33rXPWRvYj3zjkXx7UojA7SAnTMvhBhkGcxG2bNzGBWpZubnCRmxTxs3bF3uPcY9WXceznuKSG5bUa/V6wzIjRDO+jhMwlaIS9D1o1a49bWFkQGWQKIc7ayggAA5gYCMEExnB8eWSkKFCnG0GaddsqtI+UG+q6Sl+Ugzx9Wu9N3AwXqkc+Vn7KmMmwtyL8UJHwE5+rDw3lfWHdysv3E/PxMq5XmeZLnmtVMeyoKo5n2NJxDEAyt1PdSWjSioetnqOE9tKJAgSiM40Gys7a6Mj09x8ytKL6+uRawIldWrVyIyIo8e/pCtZwjAMQEEDPyvCAaVRnvteMRIQJpXekzqtpQMgFpgTFDxQYElWKnKKQsydzhNT1ckRBBhIiiKOp0umVRFnkxOzuTZmmv19vY2AyCMAqj4RsTIaKJ1gQI49H/XcJoDSKuBbACw+iXCBScH/mPOwBgHjWoI3hAPIigDUTg7NC3hAhZXl2R2Gs0K4LCgglMKEZThbWoRchLOA/rPWSi3nzu7IXXblztDrpGjTo5U9UiySCKoAmaUdqhT3r1rmjUDO94loM9MAewR3l0GNAWORcmF/NawfJSkDws57jHAxHMt9tz7clAay9itH5m4cxmt1M4OTE9y0xSFXbta3QYGtnuwwtaEWmFQA/doUEgnDl94fuvvHRr+cb5s0+GUXRh9uTixkoMOC+KCSKxDphYR1Eo4ouiSJMMqBbmLk1SJqWU8uKTJLHWFaUDweW5GAOlVK9HmQZgtaruO73TgXif5y4MWal0v7xTZW/rrGVmIqrMvoqy7A/6YRjkeTEYDHhoNE0AnLNKqSAYVwi+ixBRt9ubm5webO7UPFOsyTu40RnfPfPOw7mqgTuAYaPvKv0rgjCEFzDDZ0ODcuuGGWOMClIqj3JbDBtSe0GSw/nKHRoED5lqTU63NruD7mgLQSIQJ9PTJ4QIhQcBVa+x0g3np8pfWtR4eXA00UCX/OthkpIfj/53YZ09OTXNzLvtCwFMt1pgI17E+5GF5q758+75IyimRgTvEQXIS4Rmd3Msgka9cebkqcXlpcn2zERr4vTsXCOOX3/95ZCp6smpxDGRrtXqWZZmWbbpPBGJ+LK02zvdza0d52ySps1GE0TiPQBSCsYAkMVb1XqeRvJQefMKADBRGIIoL/eZspiZmbMsMyZQWkOgtfHedru9brdXPSeOa7sN7cqyiOP4kamY3ylexHlfLTsV81HejP8g5MbK8oXJGXaArXrRyVDZubuqrlYW1gM0rDIfzvECAKVFmiEKK8cRAMMNBBO0GnoW0ujpeQk/+qlSd/V0XJg7/d03uqEmjK5lHcW9QbfVmIB4kBqGSwlQPJxmJurSz+iBWnWPeQQooD8e/QEAhbWaudJl5UVx8fwT3aJsh3u0A0TCBBKAQAxjUOQAhjfjHSMhDVtFFhbESIrbTqKA93Jy/vTm5vIbb776/vd9yBgz0WhOTk73u1tQCiJFmTvv9NbW1uhwt2U8e3VmB/ESub9e7fbHYFZRFO++7z1VCMN/Hs3Rv3Buql6fbrWM0s659W6nM0jUu2839G5AREWefefWtR+eXQjJSC9BvQbWgB/G9vfeuEOTQoeg+oYAN1qnDJKqiwU0DasQvaCwwB0LFziP0mOyCRGk2d7jC6QWxbVAe/GjEBA5W1x9/dLFE+fqrQmpj24VrUGEWoheCoCcR00jPYqXyhi854d+571zznr//mee29zeWtvcUMwn505MtFqKeWd7a6JK+1cSR0VwGEVKq5U0YagD3vdEDu+Uux5l5oUzT1298vprl//nqadeiKO42Wh1djaHwXQRa0tduXI+YsqyLPIcwJ5eRaNbl8iWpRcPkWazeTQl/4V15+dmT0xO7s5N7WbjzaXlnWRwTPcBRFRT5tWt1adn5jUpHcdggiLs9LBXd7tXhVnaYUrWC5yH9yg92o1Kn4NBWsUi98E61KIqYYTSIbg7cXp2/swbi1djM3xcMYchFwHVjUYvhXcoHNpNgFBYIpK0gLVyax31o3i1jHmP47w/NXtiotWyRdFg05g6QcDi2qoS9Hu9iWZrYnJK8pKqvFq15GIFN/I537MHfyeIROFke2protXpdl++9L0Xn3mxFkQicN4rJgEVZaHf7X6h++K9Z7ajt3nnqk2EiBgkdzpbHR1EpF2vnZic3Cs1EUE/S49DWu6+ECG3ZR4FIGVCjaxEeX9vhWp170exHQGsAzOUQmFhq1DSfjEZAZiRZlI4ivQ+JtKQyWY7UCwi3gszCcDEeZGDQM5LWpSBDpjhBJ00czlpHbLCZBPF9kM9JWPGPASYqNPvTU9MRBKIVhAszM43gmh6oi0iUpQjbxBCVRqnABl2z3onr7NXbVv9S0B48tQTl/JXBnn+yhuXnjp3kQheRBFDxAaHFLIwxjQbzWazCfg8z+76U6vFzUaz1byvgPpwKb0/OTW1d2Qkou1+L7MH7Ylx6DBx6UrxPt3sJDbv+axwxXASuPdSpNGfXeJASotA37dDlABMaMYSh+Kt9NJhRveuAxNdPPt06arSEakeStO+sr4cJLckt0Yn291+1k+1/8/1m9t5Qk4ojo5+P4Ax70GIaJAlWVZYQ+QBJ5SUU82Wd04Ki8LC+9u9vTyhxLDKUikQDU0Rqz9lCe/u9Pv3sHZoklh1jBGB+GHotrRE9Oz5Z4zi0rtLV17VSg1dXJRaufraoeXNKnvHKIrDMN5jDTOsjjnSik9BHNyRl3beX1tbC47kfuUdoVitrK+dPbWgBJLmtX7KQQAqhxrQarlwryVDhdHoDeBEmCjQMPecjeq6a8TwAlvyRBNESLPhtXvHE6UR12dakzuDnYCNF2GioswurS72XemdV0Yb8M2XXw3n5prKDOC3bap62FsuP2bM0UG8eBJnrc2daoQoC6E9Y2+VJ9sVTYBAe+OuBG3AjKKA9/ACjeHNiD2CC2CoznAORqGw6CVwXghK6ecuPPudy5fCPY65ztozZ549ZOHEvb0ej34URStWezITTHRlZVmqmqZjDhGsta9dffOp8xciDrhW87lFqNgEw9WHGw3W1WgugjiE8yhslZIl5yECpe6bAMhLKRxCjcpbIisR7FMYJJBWs73V267kcV6EgIGzikhptbSyQoQwZJelTDrd2VoqBlku08+ceFfPz5hDR0SqS0Idyezg/VDMK1sb56bmVJYjy1DbK/vZ/ZvACRRDZFhwUzV8B6EoUDVWqp5tHWylyeZhD24aZdSqzURRDkV6w2iQxGF8emZufXsNABMJRDyCRu04ncQjggxL3gCAiVa2tzZ7/eN1Ob41rUYjEA48Iwy4XWelYR2IkY6cPgXQjFYNrToCA61AhEABBKWG+py9Q7qMSt2TEqyoFop1vpf4LEe7hjjcd78XBZGXauivdoS3TYOVYib2YOVLBRf43IH5uPUDGPNOyUobh+Gpyan5dlsEj7je+yAQUTJIvn/zasqeKtm+9ygcvL/j4iegsCgtCjtUglaTgQiSBFmGshyW5RNgHfIS1t2RJM5KKA0T4M7wvojMTk7nVc6O4EV0YC5//9tj6fQ7xnkprQu1JqLNXvfq2nq0b7bzeCJAGATkhFsRPGC9ZJZiM/zZLpWMxwuKUpxQFEARitG1KCAMLUcgMswGZwVigyp5K+DJ+lBKtFsmphlOdjNYimio+GeQEBPuUKQShIi8C5FbJ9a6M088M6CdR3WexjxqrPPvP3+uHsUiQsDC7OyV5eXtwbHR3TGTFlzf3niiPa0dc7s2HNkHyR2D9fAOEpRuWOlSVUqWDsRoteAcbAkv+++wS4eJEAL0071taatNwFSjnuUJk2ImEorie5rCj/mBKKbtXk8ptTPoX15aepxGfwAEDNKUAoVBJoNcSGySyE4PSXL7etJc+XlIkosHhQZKYXC75kNEltdvEREEiEOJQ6rHCDTSQtZ28n53q7NO3iMvkZdIczChVUNg4D1KW+1q1cgMqjqml7uajOxWivnS+2bUaJrakU4djTkAhXVPzs/Xw8h7P4oCUX7cZBdM1CvzfmSKZkxGkfWU2f2VdlW5TGGHxioQZAVqMbwHK+T2Pq8g0Cz9FN7B7VOKu3BiISul2lVXy7TxBPCOUcw3NjaWNjcvLy1Fxhz223nIEFGeZRu9TqYkQynbXRNqUgTvofUw1OgFWSFJ4dOSjELhUHoq3O5SjJmTtFNWNSxZUW5uL165TB6IDEVKO7+xcVOSrFI+SBTBhBAgzVF6NBoIQ4hnL4ox8o0DEe29VfwoEGedePHTQT2IjmjF+JgDIkCodbvR2F0NEFE/TXcGydFPGd6FIrLOApJt9wa+2Cn72I0o33Xx3qWy00oYwyKbffuie8BoNGsiTjqDe0XYAmnG9VOzs957O2q6fcwmAAGcSGFd6R6p4ftdBFotbm6Y4y/72Rel1PrG+hu3blzvbOSaKNAIDJTaU81LkjmKQzXVdN6JIs9Y2ljK8owwbBh2cu7c6sYSE0EQBlE7bi2tL5JzLGLAM43ZLE0JkLyk6kpNSqQFGjEEAEuSYxTx2V37776+F2kaHRID4rxvhbWo3hgaFI557BCRiXrtrlDP9bXV8Bi2BlFKrayv5eStEuklrV6ONIe1KOztmWCXKgYqAAiBprVt2dzBTm9/iV2oUY/Eeo5rNNVCGNy7t/CQU1PzpZNhkk6OyQTgBYWX0ktDq9Nh+MLCwsWTJ627j9j8kfA4ZX3vRSlVlMWUCmo6qC6/OwKOnQEFDOdROk5ssbhy9bXv39zZePnKK2/ceNWLh/d1USSy1d1i5+FcI6y1w+aV5TeubqykZdFx/sbGohukilm6Ay8etgABaepL6+CXqXxpa0UzA/BeqmgSje4PB5yvtY3SzosVP92YJO9wY/nYLWjGvB1EJNBmdzBjoqWNjSTPj93yv8J7/+qbrzsFXavx3IybaKHVQLOBKLw9ZFf1kkxo1qAIAiiFZkyxgVFDE9xdZNhMAIMCIpVYQqow0T0rImNMLdDeD7v/HvX4tReUIlNGn6jV6kYrEBoNaOPFEx/Lr//4QNPNif2be2sF58VaaoToD6IofKK2MNNIFreXBmly+dqlJ09csM57HW5s3uLSRkEtUCpgc6p9erO/9crGddFx5O2rnfX5RmvaxN2dzdbUtHjxSZpBcivr25siosFD1VW1Gxg6JqKtjfW28LkTiXVQCyIGQxPwDnolvqsMw1aH/C4eE4jIeTe0SCDa7HVvbG1G+qiPXW/B7MyMKiUIjShWRiMrYTRyOwzxC2A0aiEAiEBr6JGn+l2bnt3x3VogQKRJKd9PhJmbERSjl9x9LRKajcmt7kYA5XG0J4DCy6TRpxuNutZS+cLV6pUHvXPeeX80vSIOnbtaTT0wgyydqDX2yawGGv0EXqTfZ6Ny8pc7m14EUYPKvCyz1269HtdaO17malPLnZWMNela6ss6GxBiQgYhUO7t1c6WrTXaQUSlteL/q7fezII8y7Sq+gEPh/7RNhgAnEhDm27Wt06cl1OtKcjR2pAJECqtmJOyGM8BB4cI3SStRv9OMri8tHyslRciolgxM0darIcXlxaqFiB1t51x4wAQFFasJw+ECvntpK53jpWCAIqH5uqdEobhpSxyM1GDZvTToYpUq6FjaPXqQACu3H5Hru5HksLLuXrt6Xa7ppWHCOBBTnFlFpQWxTjeuy8iUo+i4MDeyEy02t3Zf/xiRi0izWwUAYktU2erK8rrSMIGiNOkVy+TXrID1jVvlctCUg7eirdsjLeOtRaviFb6W4tJ7/WttfV0EApcWepqXt/n+xUBNFNLB9vJDkCauRHFu04qh4gTb2EzazNre1l2YX6+Vav5fZN1Y94hBBrkeWcwSPL85Rs3j/XoD4CZtzs7XrPd6bvuwKcZ5RmWNyB+OCBX00BufS8npREYeCAvh6afoMXV65U/P7TKy9wTyBj0EtrsLC9eKXt9dFNYD+ehNOIIzsNaOIF4iGhWAql824/oqXQiM4E5GcdOPFiBGdb2y6ImAJHPs81uVx9P7+UDISidc94zE4+qqKsQyVBHIJIW5fsvXLixupYl5UEk0kSUO+vE31HTRYB4SnNi5UXW+912GG9kA727ciERpVzUJFuUrqCy9AAzsc8jg4wDIljSoc9yDkNXOKUUc6csAOnYXN1dF87wPjCqmvVp6GKL1d6mAIV35ydPMrEmdbijv0AuzJ60F0lHzESKFROt7OwcqX3Jw8IPv4tHSqDVG0tLIIqDx0J3J3JtaXF+dpYJkx5oxgD2WIGS9DMEhgIDReRg85IhXLXzBabbc5udzdnJOcnLwPtrb3733JlnVKCh1LRtdzrbs9Nz4pzENdIKpUOaI4oQhSgL6iWKFQDvRSnWRV689Vt99AhEKz0z2/b1OliBCGUBW04EgfR7FARpr3dzYyNUfB+3gceWrCw+9Nxzxui8LPK8yPKCBVEYKGJmqlbEYWAgWNzcCJQ64PlJvLu1snymOSlVb6/AAETO94p8sbfdNNGV/haIAtzdDGck1guIPduCCqcYIfLQYCDKO+e9C13KCvCuKG1Jw1yDu/MgoUANXaOqkjIPQJWZJVdYN1tvN6MaH4XEr6AWhpExWnMVqdjq9ax3j41OzANOxIlEoOlGI8nzzD1qDf4xbbaxL0RUlsUbN66farWnpk/cHWXNCihNISNiu90vyG0l3a2VmydmT85OzilWzSDe2Fxq1luRCUmpcwtPL65cn2lMG1aRiZY3rk/WJ7QDmkREkhSwDqEmEeuk6/KdIlHEXkQD+kMf/tAhnYS3gonYWslyYJTgHg4rInkWnj//v5944v5WxY8xxBAuizAIUAPKe+pBqt1AGHzkR3/0IZwfAgRSOhCh04dR6CbiXO3E9MUnFiAy/4OPMCzX2lxdufX667pIXvxfP2KCEMDq9Ss7t26durAwMTOnjblXws/MK4s31q5fEy0ArLVTJxdK73urHUsqVMGJ5ij6fwSWAbuGjQSUzr65svJ4jP5epBCZNsF0FDa0NrUa1+r9NHn5xs3gGKowjw5EFGqzMDm7T47NOmrV4T2MVt7Xstxa6ZtgeX15p7f15KmnjPXBd3/XAAAgAElEQVStxsz1pdcvzFwIlNGQs+2T693NjazrTV1ErmyuLExM19d3+r6sNxoC0M3VtN0sNF7bWjPe6tHlejj9AN4OEoYIAiQJ1tcBAVW1SAYn5tno9+ToP0Q4grNIMgBDt9g77ESIovBhfqnVfR5NAYB1aNV4P4nxW3Pi9EK/s9NZW+9tb82dPiMip564KCLbi9dmT58ZeVndATOL91VHYRFRWu+s3CqcI+Ikt+8/tQBA8x3V7ocGAYMuspSihhf/ys1F9VhI1FLnT8XRfBxHWosIwlDi2tCi+3H4fIeJAJG+TzgrNFjbFlIUa4ZkmrZyGzem8qRT5Nlr1y7NTMxdydPz8dS1tSsuaNZN1LX5dFgT1rAZscls/u2NpQ9OzrM4EinFX6NMp36n0zHM7Id7qaMtA62GmHodUYQsg/cwBlGEUQL7vQsRTADOkWXIcxgDpYcWbAAa9Yf8crLnf7Nt4EHOv4jMnlrYXl1fv/ZGa3Lai4/rjan5Uzs3l4aShv1eNhk6vQy3EcRsrc9K/74PfjBiLavbtBsFrHTThwfVm4j6vSR5fWkJhONiUPMWOJH3T7YbxlSpQ0AkjEiEiAZZdne25r2HFwmULp17sDNBQL/INvvd2Vb77k2AYjRjSnPyQkxrSW+jTDQxmdArg3yw1lmb1HrLl5o1F70tb4XUUtpj0rFPM45Dn9c5fGXr1qlau7u9aZTeTvo63Q3VDsV1OLJJ4NtU3sL1+u1/jqmozomvRJIeAJhRr4H5XTxLBzhyo9UKDDkvve1NYoriWlxvRFOtjeVb82fP7yOYEUk6HaZRRwwR731q5cLJ+Yk4FudpbhIb3d3m0TTfRmfjAJ/twSHQ5eVb/3Hp9bihjVaPwdCYOf++dquhtYeAmbx0yyJ0LjTGlcVmr/cYzHBvjYjkpb1DbYFRiBXw3k81GufmTnz36pXwQSsSmKmseurt3lXVSU1yZvJAd9CvB+FOmevdoidmv6uwsLklEHFYptbEjhUAR5qlUk2iRrySJ9XhA76zwQCgmZhIl/Z+vkJjjjxRBKWGmQCtEARwDodqkvEWENHJp55ZfO3VzRtXRCSsNaNaberUmesvvdxoTwVRdK8ViogHQ0Ssd+1ao11rPK0DrbUMEijlAuNrAaJAJzkEgzTB4fkDl7YU5HB0uCYlDwUvfrLZrLUmvDEghoh0O60gkGQAY7qdnY1uNzqqoeOHghc/2Wq98NQTWV4WZZGXpZQuCgJmZiIiaKVqYbi+vWOLgh7UkkAgl9eWJ6DqOhCjwQSt4X1RFje72zVjLne3NLMmuivNJagUFo5tSdZqhZBS0bXM2lzQcD0KAhJvy9KO5BV7pT4sElbHEdErKysP9u7HHA3uKgk/0jCroFH3RaaY15aXdL1BIrWauXnpe8HMSR0Ee59MIDAXzs40WjPNiUBpgQhIms2qk1Cn0+25kgZZQJz1OptvrM4eUkMYEXnm6efRndSPi72uJpIsR1kONXgQAUG8WNt48qn//eRhv793HwGMd4E24AaK8h6XHhFgauH0jy6cPuALkYhYP+zxkuTICjPZPHd+HoK5t3eE1cWbq9evt6f5hQ98WIA8GVz772/PnpmemH1y5JF1B2VRvPpf/6UiFoIed9F7jDjiu3KCoD45u33jWhQbu7Oug5CjyLSmi+21/uqtqXNPQnazwQSCKP3c3Il6EPkqDC1ALd7tcpQ7p0DM1NvZSjY3auEhxjNFDXlM7iYBUK/BOWysI0mGcbZaHTMz6l2NMR4lRCkojzSF86ChGmH0M0EtVvohqVEMhh30QgNmigL99g9LdPr8he76Sndjp8yzuN7QrYkLH/7Q6//97RNnz2ul7tLXEZErSzeMA0E35474qDHmsYIoDJoLKy8tRrHuL99oLsy0z01su36xNSjzzemzs7sdgoUwVc7W2HjxIAKotKXlMqYQzjkltTkwcWd1J9nYCAOtzSGXgz1uiIAZJ+ZhLZwb9np7r0kwlIIJUPTR60JraIMwAoAwQPCOtXD3pUrKCm77/7yD3xUQTy+cu/na5e3VlbI92WhPxo1mGCBL04YJ7v2Noiyk2kQDenzPjHmUCKQ+WZ9//vTKpVtBpJOl7WytE041jMl2bmzV2vW4VavWLCwUx00xGswgRq9rtDYDCzMgQT7hbV5uXV9PNvthqNlj+pnTvf7gsD4XDRtcP463k9bYzXM+lh/wrQkDUBPM8B7MYEYcDUf/d+lsvOOjyvTs3NLly1u3bgZx3NncmJo7cfq599+89L1nf/TH77omiUhGggs54mZwYx5LxEt9unH6h84tfee6N2wIyXpXKQ4ivf768pkPPVE9LbAGUUBEQ/+HqsEkhIoic+WN7k623GPDYaDZycyLZ3VkpHtYi1Pq9rrb2zvmoRZgjDkq0LCRLryDISQJBslhv6c7IKbJhTO9lZvrVy5HU7MURB5kM79841p9ckb2SOyIaNAfMMF5HwfBeAIYcwiIl6genfvRp1ZevVkOSmUY4hVTlpb9zV5zpiUimcm/818vPXX+/Gy9jjStigEIGJT5peXFgFiHCiJMNPuBszrcp5b4kUGEQZLsbPfD+ngCeNxJD/sN3AcVRkIGSvLOdidusDH1ubnu4vXuzk59Zm43skpAkWUeODM114pr4wlgzOEgImz41AvnVi7fyrYTZVSgSBnevrLWnGkBgAMBN29e60TBTGvSKC2QrX5/pdttBFpEyEo822ifn1P67kzXI/8wCGtUn4IJD/NdjHkvQ6DZZxZWvn81inWycrNx+lRrYWIr2Uk7neaJybAZVPcIEZGm9y+cCQMj4scTwJjDQwDC/NOnl1+9mXdzxyAimztXWmW0dZYBo5WDLO9sehHF1M9toEh56GbYPDUdTVTOBIeclhTA1BDWSYfvvRD5mCNDQMGpD5xd+t4NE6nBzVturlU/OWmvb2xdvXH2w08SU3Wf1CgMPYtWUAd2jR8z5qAw5p9dWPz2Ve+GfWxc6ZTR3vlKwVCZ5GpmIgoUG4uJZ+dqU00M1dhHA9lTXz9mzGEgIlEzPv2h80vfve4VyXqPiHSgbFpuL21NnZmBFxKK0UJrqOV9TGTLY44xAmY+9eJZRUPvUOc8iLJeSiPHmV3jASl868nZ2lTzKCz8x4w5aohIWAvP/ciTphkW1juIeAlCvXNts8xKAGAsZStra2twlpLBQ5gA+NiXvo85ZERER0YZxQQQnHUE9Nc7pGjYJQMEkFg/dXGuOd8eD/1jxtwPESHNJ587E880ytxZL0QgRf2N7miH7a/cvPHaay91OzsHnwCo0RnHkcY8BEwzqnYDeS8t8zLfyYiIAec9SAAR5xtTTTk8w58xY44HAgAnnpyvzTZs6URAipKdfvVDW5YRkxDd2tk44AQgRgyZUPmx+m3MwRCEE3VxnhQN1rv9zR5rBkAE5wWgUYR9nGUdM+ZtIcDcUyeDRuCcZ6KyV1QNNlxWVp52csAcgADGB9AclGafvjZjxrxtRCRqxSRQROKkc3OT1NCJt4r3EABFeS95PKttx4x5NyDMP7ugQUQk1nsv4iVZ7lZZNcUH66FBIC1aCIHVI9vRMWMeEGV0fWGKq25TBCYymp0X56V0zkNEMI7/3A9z5Hp7jzkCCJTRHCiu2hg4nw8yqSoqieiAOwDtdSXRE6a4jMabgDEHQUQa8+3ddUS10LfeO5HCeniYRlCfaY0zwPdivAkzPV6DjdkX3YggAKNMi/7WMLgqIl7kwScAIYmzUMQjy8AUlEaPy8rGHAylFU3X/Z4OGzSK+ouXcLJxWG/sKCMQI4HiiMYz45j9iKea4rzS3F3ZzrYGYDCRP2AdgLGaheFFFKEsRVwt3cd6dMyYd0StVSusOC8iIIHiKiZEBOixddV+EEiLASMsg/EufMxdiEg8ESuQYs66qS2cUayYnJcHTwILxDgtJHAeYPS6AFgosMH4AhxzEEbdT4eFXqrqCk+AgPVYbLYPShSBhCksAxqrpMbcAzG3Ls5RVWlPYGYRlM7npXvwHcBu1peIIUCvK52OStLxFfhe5OFN+7awBMhQ+S9MxKO276x4vLy4C4FERSAQ2JKIoiIcbwLG3IWI1Cab5Sh5NuyoBxwoB+DYD+cAZjCBAEZgozgdJ6P257G8MwWIch3kD+2AaTep+pAD8CIg8KgZnzIPqQPfY4T2SlsFEdhSmMJxKm7MfpCiYLpWlq4ahna11A84ARAoM7lnTwCIEYTwAkDKLPTxOBl1LyRUz+PHsWJODEItgTyMb90731/rE1cqBfiqB0zVj1WgDrPr71FEIIE1QkBhBYIkEW9r2diTesw+mDDwAoHsbqwPJAMlUC8elMqSCKIaoggmQL0BwLjxjTpEIALx5Ot5bKyJ88dth66gmLSW4OCFIESUDfJdAVDVfLY6WQwxkxEdrGzlsYSqTTwRCSNNkSTod8f7pDF3I7BFWa2nnBciKCYABx2pB2GqhANrDMUsw+ASexYl43yUQOIyUo4BsGchUZ5Z+KEslo8Gor0BEQkCa3JdHPBL31nZUgxARvafAoGHKFDQqo3HtXvx7MhpgaCydhdPQs1B3G2k7/EbUPA4DEFCaPR0UrcHj6snW4PK/qHSVygm6+mgEwCBPElq8tTkLKy90k7jsTj1B0RIoiIMi7tjI0rY0mNioCqAkUAAKIqKsNDlgx+LUOZld62vNRNE8cj/WYQAEjGReSjv+XGCQJkpjDUsJMaAGeIhnj0FNigP8nUcf2pF5Ngf6Jo8ApCQplA7lNoe4CgosqIsvNYsHqKqx3DQSuA9xycCCUmpbBKkmTneJ/2BEQgJVWEf7XRQmrsX+wT2XEWBAnvsRzTjtC4I4mFLgOIieuDNDRNvr2wzAZCqCLgKU0rVDECgjB6v//elFw8KbUlAzRaCCPWmaG2cesyCjW8TgQhJaIOgDI6/JkqMGCht7D0jyTuBQEknYQCQYeMiEQGYDhwC2vfFHvoxjwVaTOQiZcmTL1QeFvvk4gQwzhTaksdBl8yHjUDCMhQREMFahCYoVKm0Ve98f0PI03zz5rbRlQEcmMgoBuBFqo4AbNS44db9SII0M3lgjVah8kwCfgzlBj8Y7XRchCQASEhISHvtjm3HksptUwjGKuXZP/AcILLx5horJggzVak1L8J04BDQmAqBaDEKlTkeh6KBO7dsIzG76mXNjoWXwezgUN7qQ0JYSDsWEuRObEmkhCnOw14t2ff5+zk5Dx8kovVrq4qhmavhXvFwIcEgRRDI0MBkHF3cj2r/nZkcQU5C2iv2/B45UbuXhEBqeXTHz0iU52oCOI5XDgFaNMSJojiP+nHyAFILIhp0EutFazAPd9UAqjSAHnvrPiwclyIBRIgYBBBVYnZhwFlKC3gP8XCOhYomuQPt6g4NgRA0+ZFNMwBm8kAygGIQTFwvOAFotGAnLYY8eXLVg45d9SMjNZNrBZ3mSbqTVxW/ikkzi/feeRA5a1uTJ2BdUyYpY698ZlKPaud0z7X73r6YCVSdcsvuvdGoT0g4tEGpSs/SzOp3/xioNBckXM/jQZgcozlAILUigvdwFkppp401pSrf8UcQrL2xrNRwsKmya5XIggg62TyGg9CRZIAiZ2nWa71eN7M2VmoirgskzwfRoMDQ0ABEVHi/URreOH5n3gOTcSPMieIIIkJVAZhAazgL7wkc9xGWAbxQvS7iKSuIDGoRBBAhIl9kwgKAByWaMZibUeviuWcGPrt180rMXJa2NX0yJkNFbiYmJ2ZmfDeBDUCkLMxW7lWV8Lw7v7J9CKdkzOEgkMjHkYsBiSy8t+TvfRYFhfae2Yk37ngtEAhkrAGJEChNRQe1NOjV3dteNgoAIu5t9fLUBoaZCZW3ChEETEQgfWtx9d38FO8tSmdPz81NNRvxYKCJYB3FtShzGGlaCHAil3Z27KY7RouRChHRYTDfZJqcgPdgRuEQKgghCJGlIIK3ILAVsIZj0lo6PczX4Dw0+40uR4aAoaKfGb2+EFtNDWUaUTQ1/4QVBx3U5k/Ai2QFbOn6KUik06UgIM1wnguPyQb6CazF3j3s2I3wPQMBQn44GhKINLy9/UPx8A4C9HuxwIXUm5Vj0rNkuK5RwpWihDwkyyhmgIwzucmrx6stH1XSk7vSY0RaQnZsfXHrlSWtoZiYSDERSKqlmLfOQys1Lq55aCgV3NrYMN6fDAJfXYL97m5enADn5dWdjhdodSxzdK4s15Sf3e6SiSg26OdAgFBDKdTqyFKEEYhRC7E1wCAFEwWMlQ0QQzMzoyigFaoJwGiIkHgqLUqLHMaEwfSkAG5zB7WQCkfekS1gFAUG4lF6QMDA5g5mJpFmKEadUNyh7qicIRvQ8fxajyklKBABQQTeew0QYBmU91UyuiqYIEhaNT6AivJRQsxBqRRp8bvTGxMIaQKRCE2OIw9L4EpzqH1AKvDsSUhYrKQAtFecMNdi8XJy7tROZ805a4wW76z4iANH6uwz71NWxkngh4xWalYpL6PtKO2u/al07tWdTinCx2Ihsh+K+ebqcjY92yxtkPmYjU5Lyh0iLUGEKBYRiIAArW7vcAIDY6AVyhLeIysQEgKNskRpdw8NAM7LyjoUU5pTo45GACKsbSBQqI7sHDDMFWC7A9qzjzq800pEN95c+v533qzF4z3II0QAhWcvnOt3u0Fe1Gu1uNXiwnFS7F4MDLrW6y4trx2Lmbnw/kMnF8JaQ+oBRCAZCGCGMSgLEEFcMFCUQGbbBPi1LToRAcSWpZdQoI03YJLCwkCyHEafmT196sSpzvKtPO1HM3MTs3MKsN0eByHEjieAh4kTOR3HiodKfwIIZEVEJLXlK52uYTq+o3+F0Xpre3MD8IAHNJEhjkk1dDBRr9drsSgCE5wH0/A+tA7NBrRCloMA72EUWKHMAMALjIZSw8FdMUSoFiFNEASwFgCSHK36cC+VOxDtM9xnxSGGgJRiDR2M3YoeOS+9ee395882TS6A9LpMvHf0v9nvr+ZFfEy+F+V9V0mUJrCeagF2ErRjECGOUZZDVUVsZJBjeU0CRSRY3oDRUEwQ5FbCEAACDe+pKCVJpSyZeao1hbMXxDspSqcVW8FWFzyWgT5UHNAMDCAEiKBTFKtp2rG2WhMHx33sH8F39pL2kIHYXlFeT7tnmu0FjqTdwswUvEOnBxEEGt0eMFrma41+AqUqoRCVFpMtURrbHVg3NJcFkOboJqiFYIZihCFASDy8QNGurHb4l9IhCkG9R3wqxhw6cWDiLPM8sg0crb0A3Oj3l9PsGN13ivnG6rKdPTFhYTpZCFA3p1BLqNGelF0tdWhQdc3TBCZoBhGchxckKeIIIihLiBAERgMQa7G5Jc4JiGcmMTNR3ZvjCeBhwkBmXcsEA1te6fb7zgVMho5duvedUX04RRQqLgNdxDUTaOkl1IgxNQkSWtuCUSIiIqX3TKQmJ1ibsshfW7xaC6O5QT8qvIojTDQBwXZ3uFFoN9GsA8DGNlY3QASjUa+BCN7DCeoRBLAWqkSgUR4/YdWYg2BFztZqe/bcBMCLWPHXur2d0h6j0b8i0Hp1c30Z4oGQdcRKg0Kl61HUrtdZK9EM7+FluE5yDhMtMGFrB0wghtZwDtaBKqtmM9xGA+SJogBZgUAjK/BuVAK/l9FE1/qD1LqlLA2Yw+N28R0QJt7e3g6NaafeMJM45eEhXYPVrdVCJPfOiq9H0aQvFKhXpIUts7JQUTBba0W1mD0ggPUIFLRGkkqSUajhHKIAAARwDszICtQjeIFW6BeIDOw+MsAxjzdOpBUEgDCo9H49TbbyoussAQGxOZ43oGIeZSwk9VYg4gqfD7Cz+cHpeQ2NmTYKi14f3sNobO+AiBQDJNaiPwCBmFGWmGxKFGJ9E85BMbRCYWGzYV6hKMYTwENGM63nefheNS5mpuXV1RviTs7M1aUk7zNnV7Y2CUJEhslAubJYzzcrk58qmrS5uRXPh7bvlJAlSctB5LVixdWePi1BJIX1Ih7iM/HirXhOu6x14R2UalGd6HabizHvERTRoLSx1qtJcmUwMERMFD9Gdx+NxJ6KqPQuq4cNDqQzoHqMmUl4oY0t0cqJOGdL76NGneMaiK6s3Bzk+ZmAGl3SjQaCALZEtw8iEOPEDIjQT8YTwMPneC47HhpKsQJvbm2ui1QXr2LeW4NDoLtS4cx0c/kWKSYiZx2YpXIB3RvRodv/p9v/Hirlbu5sisj86btrQY8OIjKenx46muj6YLCWpX3rosdo3N8XTXxjbXW2PdlUgfKWMwfFqyhWNjYrRQZEmkWtpoPMFkmaCrCRJeHkLBmtIHCeAWGCYiyvQyuMvYDGvEvclSj+gahKQb9bIUF7Bvm3YphfUTjSTnEiEkVRlmXjOeChw4TM+2Ma7XlHEP3/7L13lGTZWSf4++69z4XLSJ9lu0x3dVWrjdQtCTcgFqQjIcGwGB3EYWZZNEggzMABSYAwO9gRzEpnQJg5LDMwsAY4c4azAoHQwiBgJI0EAtQtta/q6i5f6cLHM/d+3/7x4kVGZEZWZWV3V1VL+TtxqiJfPHPfe9/93P0MpWny3OWLvu/P1OoK6CVxo902eugyQhLHMWIC8vnXarV8Y0peQCx9l6Wdbsn4Ji+4xYDsrQHsYQ8vJhwzEdIkfdk99/z9P/5j6Pups77x1J4keOHwhfMoichozc5dXV3OnahmPJOXxlUMrdXq+trQFidFDZsUmpIAexbAHvbwosE6Pjy30Iv73kLZaHPfHcevNNaOLR14+vL59W7H11oE6gtAdd3DC46dG9ibbXEa+7YnAPawhxcFAvGNWZqey5xVU6Vnnzl7ZG6pWioDWKhOLU7NVEulpy+e7yb9Pb/QHm4VPs+XTfawh1sGweLUNAsrIrT6R2YXpUC9OjVVrihS+2fmMveFULd5D7cpNgsA6xzzbbyatoc93N5gHqQjCMvC7Jx4g/W50UklIsIiIhXlBUqlzjreS2LYwy3AhgDIa23due/gdKU67Cyxhz3sYYdgiNZ6bm6emVNr65VKv9+nbJKCrxVCg8CDUYvTc6f237GvPrtJBjhmkb1JuIcXF8Y5zitCZ84+cPSusFyenqrHSfI/Hv9s6Pu+3msZtoc9XB/1ak1B5aWJUmtzRUp7nmiFZKTzs1IINxbexOilmTkAoec/t7asi+W61NpDcwtr7VacpfrzPbx9D7cQ+o6DB1udDghz1fp8fZqFhUUrtVifWarPNLttJ0UbhYldXfewh9sGUcXM7a/d89Dhm+zGJE2Nx9Jsza50G+vNxqG5hcX6LBGBZVC0a4hcRFiG5UH1LgBEpp9kadpjq4hSa+8+cHh+bmF+ql4OwnMrVxWpPTGwhxcD6uD0wtLUTCvuz+fV5go7NPL9KCpNVWu5T5OZ82giZrFuz1/5koGI2D3/8osNgUBqXviK46eOzu/bNzN/rZ1TC+vgeCAbmJFkrL3pxQUiYpFyEE5VquysiNRK5YeOnzxx4HBa1PMSYM81tIcXCorjbN/M3KuP3F32A5ENJV98n7Veqtb7Wcoi1aj88uN3L9Zn65Xy0cWFOM2ufd5bhr2pMQIWKfnB0fmFvYX9mwBhUU72Tc/uNMlLESJfWOAHqEb1qfo9S4dbvc7S9CwA8KDNXykI6rW6p03O+o3S1ajsmN2eHnbbQEQy516KglmJgvJMVKkWgy/uwVrYzAT+3fsPx1k6U6ux8L7ZuYNzS2G5dOehA3FyW8oAAkCpc/wSfBkvICxz6lzm+MTBg/P1+tL09F6cyYsOXwMsRDAKvkFgrlMWigXdRACEBo6ln4W+/6Un7pst12QosEmJ54vRhyv11NrMuZOHjhyaX5ytTp08fCjJ7G1F5bK5Ne0XBEQk8oNTBw+Gnv+SkwGKAg2I9OJBm29jBs5+FjDD86artTSJoyCEQASeMZEO56dn7jp8oJemjmXIWTJr0yzlW8RoRCSxNvC84/uW7r/jSDWMEvsSaQP6QoNAR+cXTuzff+rgQSJi5nqlvOcIenERePA0Qg+Rn3dogla4rimgSDHzWlsci4L4xvMCIZV7egBAGFkqaTqzb99SfSbyA994ge/fsbgvE3ng7jszO0HxvCVMyDFrrTytv3AyGzLnUus6SXp0aalaKu+fnc1earPM5FXUKW+ZJoA2RedVAoA0NUp98d33BX4wlO4E4sTOlavVO++8tLLiReXLqyu9fve+Eyd9z7+ysrK6vqpvbndsx1Ly/Tv3zdVKJQEgcuLggVa39/j58555SXQDfcHQT7P7jx6pBGH+tnLuEHr+kCkMm2jt4YUEEQIDM7JUu0M2bIxyGXp9lAJoI0lCWiHw4XlIkmHjM9Kq6gVezcjglVI9rELL/ceOPnX+Qi9NieApxSxGa62UtXYX3UdToAf4QOlGjnLMmeNDszOL0zNG69VW88yVq0bRzcxw7gEpEADRzbpiat2J/fuqpZIAmhQzl8PwZl38BcN4KQjnkGVQCshleN7ZEGGlLMzQGkRw+fqVYzjPeHdMT5O1lfqUd/hIVK0QcOTgwWa7xexu2usXkXIQ3HP4MIsMPT/CUiuV7j588PHnzvuf1zLAObbMWikWUURL9alKGG5y+iulQmNExDdGK91P0z0Z8MJDxr/vUBlUhGEreeso8ACAGQT4PrIUIAjE2pmZGeTsX9Hgi+XQePcfOdJsrOsgfPLylUOL8/sWFtIse+zppzKb7XAOMtAqvn8J8AkgBQCUAW/S/o2R71Xm/dMzC9N1ozSLpCKPTNVRq+HcOWQZgPrIzhbojJ+qDsRAfM3hTW0ffpgA/eL7lwEfAxIAQAmD/tCjQ62PHTr2U23kCUxEBASjh4hgZvqfalMQAVARuROoax1owxBmJtBLosrTllpAzsFZ0Igi4xshwljNOYLN0GujVBZjJI5rSqHfQRSs9/ory8uRH3TiPm5W1CgRtfq9RrdbK40pLiyijNm0ItfABNlDuuUAACAASURBVNQnbcSOqQdAZfxROmBTd9qdEPp2w5h4xRxVxwcW56fKZeV5n+h0EccnZueZx2zwBGgQNaZnsHz1xMxMu1RuPvcstjHR8sk28Vo5QuClp+fcBGR2nNwFmcOuPcIi6MeblhDEaBCQdxh1jMwhyyTpSaVSK5XR771ifg7T05a52++XSqWV9TWttb6eDOgDCfDLIt/EfKDY2AA+TPStShEwNb5/A/hD5i8XEeAc4YsE5SgacH/gXuc++MwZawwza2vfYMw/FoSdc//TzoWAAB7wy0r9AhGAZ53bTkcLgHmtJ8qAnEr/kPmrRWaKjSvAh4n+pVI9AMC3i/wSswVWgAe0ro8c+5Mi38fsgKeBr9B6OLDJY1CqT+rjwkcKH7fudKjbBSBAOwg/XKv9QKW86PvNXu/g7IwCXVpfv/1lwLgACAIoBZvBFRaAVrm6sQGtwA4sUApxH0QQCAHscPXKVFSqHzhEpFZXLnvOPtFsmZvyCHxjnrxw4b4jR0LPExHJJ4nRZYwJgAZwDPgl5peJlIEe0VPAe5R6ZBLzbQA/IfKACICniN5DNEo9XwN8J3OWW0nAW5QayoCc+/8es18Q+n9W6oPACeDnmGUSkRGggDcrNVEG5AraN4q8XeSYSAh0iR4D3qnUGefmpqdZ61en6U8KO8+71Gn/WrlcL1hPQvTFWfa6blcg56Lol7V+/8WLikgm6ac+8I1KAfgt5lreYmJkhAxcJPphovh6suoLESwD1jx8u0ZhYhrwVmgNrZCO54t5HqyF5C9B4GnoYiZK0S+BGTZDqyVGQwQ2w/JlqU4pywem50pegG7rSpJcQwolQAJ81rmXjW+vA28R+XLnDmrdH/Gr5KtqbxLJVa19ggeV+oeLF77s6FFPGxEJILP9PjwPRCB6N/O3FhkMHeD7RI6NXGUoWg5dT1ncmoPUACrAM87NjW+fA/6FyFc7t19rAP+Z6DcBH9gPzAKrI6T79SILAID/T6l8DBPNnQEyi3tOHr5wcV+7DSKwQ2wHr4NoKY7vWll+2cGDX7e4OHvp4nyp9Oz6+kvCyB4RADkTzzJogqeROUBgBSzw9IbbWBGMhmhoA2cHBw5/insS94TUNNGn19ctRJN3cx6E1uozzzxzaHZ2ploNy5EQMTPRhiHWAP4P5u8cVcpE7ga+1rnfInrbOPPNp90PMU8DABKR92jNI6UzXibyjSOn+pTI+wsJ0Qa+TeRfjPz6aZEPEi0Bb76GSiiCSck+ArSAv2L+yvGRnwS+wbnfFnlrmrzaD65o/TWnz8DzIPL2e172GiIREZudde4DjcYr19ZA9GczM4+32m9Jk4kXGsU3i0xN/EHk+4C3KfW7I+JwDwAggsRCG6TZYAV352TPrmD0BTwDZiiANKwDAMcAbcgAIvgGXQIRILBD+4Oo1agYDxQuKFkGetZGZtuiv33gE8xD7v9Ros8S7RN5o0gEHAD+jvlVSg0FQAf4sYL753iPyDcTPfrsc8f2LflRKe8zNWQXXzFO8N80/ufwDwY04IBHiTaRZpDf1fjG/MDTBfdPgI8QPUt0XOS1Ih6wDzjr3BGtAXya6EtEAPwK87cphcLBfX8xmG8nQjHlBfjcFsdZMLhqoTQxf2xhsV90YTna7x1vNhEEX3Xp0lsWF56s19fW1xu9nvdSyN0zA6MyR7726xiOAMA3UITEIs0ZPUERWCACY1gqxF2SbIzYRUAKYQlB9PKpGevc6YvnUmdvggggwDf64vraM8tX6+XKkQP7ylEkIorIiTSB32H+9uKVt4ALwByQZ+x8p8iayI+MMLUW8F0i08WfAfC/ifz0yA6bVLs3i7x/hGz+5Tih85ZDeAtNb/eImsDfMb+yOOFVYI1oX8Ggv0Mr/7nzbz965FPM76vX98UxrP3pJPm/gWBtdToMLyu6r93OBcPPAYj7rmg5fY0xDMOn1kdmaW5l+8BvMv+u1slwYuwWGQsRSOTzIc2VCJlFLIOHeEMULxg4i4Y2RDZiDeQO2Pz8TgECrSECx9BadI3i9phVSSQ2AzOVqpEJT9SmL6xcZZlg8DWA/0Xki0XyIXy5Uh8bNGIjAIlzPvBKkRPAkyOK87cxA8iAFCgDrxOBUgx57Nz5HuHu2dlR7+J+4DXAXwM1AMBD1/SJ9YD7J1HCVv9PE/hN5lx/XwdmhlckAtB1rgTcAfw7kXcRfbAQAF9aXL0NvEck1/fPjJ/ZAfdNGkNgKFlelfwxOvdr5fKHg3AGON1qIgqfStM74xhav97ajwiudnslfStJWoCUGczB9rI/x2iz1qLZ6nBL5gZ2QP6TAK4IBfKNUgSvhKCG+ixqdUQVlGqozaA+j6AEkNFaOQf3PDyhNw6tVMn3kzR5+Mmnnzl/QZiNMU2RVwND7v8fiKa0vkfrBa0/UHDt72PGCOMD8B3jw/7Ga97FK0QApMVEfNU1d14HtNZq/EPGbOWnDeDHRXLuz8C/VmpR61NK1bX+QE6mRN+WZfc/dRrM/z0KIQKtX99qtTwzE4VdRT9hbcAM4JLWH+92MWKPTxiD1v74AGa0ni0+SusuACAAflqkj+eFlOVYpfTKAwfuPXLk8yFgN/CeV60U6wbcHzkXG/2MSAgWsCCzsA4iCAyRElOBX0Z1ClEZQQlRBdVp1OfgBbVyuR6VILJdfPrbiu1/RPQxojpQL3j97yj1CNHniF5b7JN7XXJz4XGi/04EoAa8VaQJ+EZD6/7aWk5jF3w/H/P3MwNoAW8VqQIATm/zDLZ7eBO3v7EY1S8phWLY+ch/rSDyb2AG8F6ifGX4SHEXAL62OPyvd6Z8RIrQaNpOF0QwxiwvH2+3DzJ/BdEB4FlvwGczlvPNVnRLuT8LIqUemJm5/8jR61ZtMHCM0MeEGVhw/AnPn0AC31DOLRRBEfwwjygdQkR84x2bWXx4+UJwc6NCiSj0veX1hk+qEgRX0/TnC+vtb4jeoVQV0AVLfZ1zJ4ES8M0i/4WoDuRsLme7TxCRyInCYOxviTPrFxECPynys0QAvqFQlttAdeLwJm0020Sw/ati5L+u1AeIcm3IAf+a6D6irxQB0c8RXnvmmf9yYP+bV9eg9b2N9Su+dxfoCtHri1DCv9lB+KcGSkUESI77gHyBRIAm8ChRLtsWr32i68GJ3FGK6qUyRaWV5avm88AC6KfPK7pWAKEBw5ctPw3X5Db+Lb4GHvlmYCXkOm0eAJb/I9CgY1Nzn129FE5SBu8s+OCvFq9gGKjzXSOenKH6/+vF/n9O9Fng9SIAvlPkPxV7klJwDsJPlCu1JKkCX14c8i3Fl78iOj5JIHnAb4qMqiBa5NNE/37c35iv7ubr1RnwXqJRl1QIvJvoXQCA4XrDwwXd/obIO4gAPFgM4D3jb00B/5FZjXiBtMg/Eb0v93/IICrXlaK/dzZsNWKlANwbD2bZH3R7RZvqWwMBNOHOWs1MTzd7/esGIxtoglJQCrzVJXANjOzpBJEHRbDJ+BlIjI5m6qcC8/j5s76+2d3HPKMvNxpEANF9BRv9JSIAGsgKRn9qRDjldJYBvyKSb/0oEROdYAbw2yLfQbSJTX+U6GtEAHxdIQC+vbjW3xK9cRKhT3wnFuDx/gy5in0EAOCA7ycKiuebj+0DuQDIhZMf/KF1vxoE89aWnfsBZz+m9TngwV4/J81f2QGTdVtcW88BGAkKmhrO4eue65oQIDRGKtVWr3tudS30Xvqd6Z7PpFcKWmAzlKKBQ3+nDsINjw0soxIitRiPAROjK/Ozd/n6zOUL3hY9bLb48ldAreD+n2YeKgEa+Hui7ylY8OsL2n5XTlRADXi1CDZFuJHC+trHlHqDyALwepE/J8p3+xwRE030CgTA27bEJswT/j1gR7rXpsDJYg51AEAIGGo3IRADXaA88tQ+VAiAr2SG1m8Xya3ts8BloDoSs6eAt+aV8UewH3jfqJwg9fPN1r9RBIEGDmRZwAyiPyT6Y7rF8REsshgEWVQCy2Pnz193ZhkYDyB4HtJ0lxmEBMTpZPuXGXEaJDZU5pZkyClF+T0NNdYPEdWBDJgCfkhk6GrVwKNEf1TIgK8vCPG7icrAOwAAr2OG1pseUgo8Dpwc0SlyV+NTQH8bQp8GZEu25G8r9dZxTScBvqwoxXoFwLiJUAP+a0GU88yolE8Q/i4K39hqQ6l/Hie/Xi5/b2ZLzkGpS8DHAX9Eu69MGsNHiF4/Lid+USQ/JCjcwQAeA/6AaPIq8c7AzLo2pYieuHDh84H7P094HpihDRSBNJhvUBsDABDQifNSKGPbWdCPSxl76vpWeO4HeHCcaFMARA3gW4uwmU8WhPe3RG8S0cD7RH54XJU2RO9X6g3OAfgukayg7Q8TzWIyBGgUo1dCAAyhn0XHYEo6e1anNNCQpMwGSABSopBU79TZOZOkIzEto0PxgJ8m+gnAAHcDGLFF/tskrWh9/HCzNSqacGSYo4d85YYeB77lNjBkCbB+UC6Vnji/o/wngzSF7wO5k3F3akyuhhQRaqOnUYp7fUMUGa/jsltiGY3S8jBNrAu8CviZcXXjj4n+SKkG8BrgMADgc8XOTwIngAPAG4E/HT+/B/y5UieZNfAzIv8vUb6w/JdK7b+RxY+Juw6rSva2/DRGayLwzKzI7wfBG6UFpe7vdpM4eRO73CH7N7v1TnzXFo3sH4CHtC49P5WXgHIQrLaaL7naKS8AHIPU2PtLEiCPI0oH8T+7ebq560EAgWOowoFDlHa7eWdK3kJly8B+AMA/F/kgUQUA8DBRbsvnXtChmvDdxcvygT9hJmAYJfH1zD88bl4o4ENAA6gDXyrSKwjpnUS/t02KXCdfzhWNNNIghhBwbx4kmgXT1j/r91bIvTIriTPwEgAV4ruBKedPO++CF19QWQpCkcmcj7wMNIDPEr1chICfEHlFcSO/uGVe2NEl5RHUx7PA/nhqas1aGycAXiN8J3ASeMa5o1o/n5Wg5w8WqURRP01XOu3Iu1Zcaw4DImTZdapW7RCOYXlAiL6BiGp3z/Xa5+J2SNfNR3mxkE80CxggzwnItX4HAOIw8AgNtwN4Z0GgnyT6GhEBPk10QgTADzD/6bicN8APEv0AAOANIgeL7e8g+tA23K0FvFmphZEtGniMaKsm/GTx1Oa2/DQqEhIQBCHR71n3PqXmgRngJGQYO/QbW3STHvAt45GvGnh2y0s6QzRIexE5CgB4EPh95rcotWm5+IYgQD9NVtvtzwfv/xAEOIZS14tpFyGQE+gt+4lsSSi7IQgE6CeIQmQOgYJAtTorSe9sr1WaxNeeIMrVlHeIfJDIABXgAaUAvFM26CfHMIrmFSKvGD/PceDlwD9tOf/HiN4ksgh8nQiARwBc258l6jVpNLiX0RsjUcCxtHSAOBT1UcIFMQfIacj3kv1V8fYBB9NIfDyt7G8U43x6hJ7/nOjlIgDeVsR2P1tEN21N1gjGsx03D5jwm0n6J9YWbFOvODcLHAFOAY/d0iwZTbTabIrwVnffRBQ8hwWKnkfPF4EI4gxRCE9DKzTb5Jl+llrhgHZaH/fFwzPAXQCAnxX5SaIA8rdQpHyQ/Cvh3xpXSb6qIKC3irx1mzkwRH5njwL3AA+ILIgAeHrkp61wwEe2PJF87o2iCjwK9IASUAceAj49Qlsp8DPFYM5rhWbzvDHo9z9J9LVF1HNuQFwC/hqoj8sMBv5k0lupjxu8x0cY9FeI/DUzimjutMi23wV8rZ+9ciVzfDPLxbzIIKQOYQjmDebFPBoUP4DR5NwgVlIE1kHrDQ0sN8RptzOxFwsZ0hqeQbNNhHYaryX9aBt28L8r9T85B+ANIt8v8oGRob57fFL8gkjOLK4AF4tofQbmRA4BAH6c+c1bxPl/UOpNzqEIA/3QNeW9QJBFfy2bV1G/BBsrw6EoAe6H/DEH3627AL1ddz9ia38CdYRwNote7beHCwn/V3E7FeBHiX4EQGHc45rxP0lRUmIbkLYZCqdWA3iKaFYEwJtEHrulJE1EnSTuraQ7VK1Ga1c9H9uFkKRIEoQeMofEoZ+i0+tm6dWkd+vZPzBU27+HGc47mlS/NK68Kikjrr7bjs2Nd27kuYiDMIQhrqjOWAF+fJJen1O2D9wBAPjwjSu2djz8BoVdMvS3/g4zgEbxAfC9BaH/uVKw7nIcQ6lfL1jJ64pxfuxGnv+miij3AygC7P6G6HEAgAG+cpJX6rpgx2ma5Z9WrxcnyfDP4Scb+zN9afiICBCGUej1IQ6OIUAvgdZwk4KvcnbseKAzqZG6oQM3zq6gCOKo7IEZImDp9rp9m8UyORGnDvwp8KHi0r/C/Khzf8r8UebEuU1Nbb65ILYfU+pBpV6u1MuVelCp1xWk/tpJb+pPgMvFdwv82DVJsQK6qjrLprWsNz5N3bwPG4vS+TWmgXeIf1YMIAHwx6b5T6r7Wyp+RHU/yYOqEg8T/WzBo3PR9dnxy71t0mAMcMm5y+OfVed+ZPzuNh15sfhy5Bq3d7NARDsvy23yI4obkiIMbecsowg3K4Xcz2StpUoRkcRanli7qkT828DGLwM/SPQWYBGYAVYl+33Sj0AtkfwuJSdUiuHaGfv/q3NQKSDvdZVfFTMLEHAe+FHTfycSgL5Z5Oe3kM67iX6oYNkAvv+ahB4Cv8+8SX32gDcrtVWtfoNSsXME3CvyhHO/rdRTwKuAtzLnwaYrwPcSVQANqgN/BmqMG6H/btIr8IE/ZN7kdPKAX1DqE9uPvFUsa58U+egNynUiypzt98YEh9qePHLWb4zJ97mtJYEA+RJrXtYtY9EEpUkbeB61uhJ6g3Lro4hTRCEE8Aw6fQTFZBycs8gpu/5kzFMEGLGVMORmD75HlSAh90hz2YDM5uzaDdSAr1XqL5lzq/cUcKp4zh3gCaKHijCE3IBuAb9NVBvRHJ8gWgbmgTrw3SLLxfiHO/wtUZ4A/5ktP236QsA8bfXHSDBelSTHP4O8zlY+YrpHKQPoATWUEQTgEaIHlNpUtOovlbq3EGPPAun4NBlO3qUt10JhwQz32fRK1ot5MbeDYOvbCnkV6GLQeXZJXnPq+sU5MDg2tcgcokDN1JkEgUnj+EK/7ZyFUiJyy838fCnk67X6b45LkBly36PHihKuipolF7gwdP7LvAZACegXxdxbPIVTwLuy6J1eAuDlRebkJnyGKA+fePR644lG4hBGkUeCjgqA3CHzTqXexwzgBPBvxw3zHvA/a43xok6fJHp9cf6LwKe21PMC4G9Tl+L/FPnE9u/rQvHlxHZ7bI/1RvOYZxYqZQGQWTCTyJNRlIK0IuTVE4e0knenI0rTtNVqAahWa8bo21QMEJCksG7AIkjQ6tLcFJwo0GqrUVM1E1sokmp5IzAsryDtgJx9DGPGBt0iCQrYNpBjGOyfNxl2iBOIpnKgw5AMtfq9s6tXDAsIKbNRaqIhroAa8NVKfa/Id4icEikBfeAfib5MqR8VmQfOEP2MyDNEDHycCJsCEIA/UuqrRQj4IuA/AWeIBHi2+PW9Sr2KWYA/KAZwgegMQEVsG4DHiTRAokk2yyoP0h7hvENoYIlwzFU+QNnrVXKMbB7bfVrMH2j+N0T+uB/fA36Q6I1EAhjggyNPg4oxBNsYXx5wFQDwNFEGGKA9/jD/iOirieykiXabw2zUeuunCHxAQQHCk+wAAXJiLRIXtcq/S5xSvYrUKq1cu9d0cVQpr7YaVngmKnfTa/rTbgpqwCdFvzar/oruv1JtjCcB/aKtvEq5r1EdJfhdlebaxmc4CkF6hB6qRI+zf1KlAP0e86cKChjy6/9aCICho3P4U86dr7sk708qF1oH3k/0Oa3f79w94z99nOjLijTIUfw/IwLgf9BAmDNzmqYg0saMqZnjyIc+zEneNObTBZP64hvRdISln6WnAi8iRQKkqTp+TEURRO7yvThOOp02iJrNVqfTpZzAaKDy+75XrVbn52bWG81+vw8gvD2rrpMU5RkUPENlwkordW5Npxeunl3q1ubqi6fXV++p3gnQIO/SN7LSBCkEhvyi0qcA/RSlaFCAK45h9NhMlLwwuwIIvR6IEPiDRvP1MgCwyHKnVA/vu+dlZ0+fLhl/plx9dvXqWr/r6a3rzlBAHfg1ol/b8kLfS/TeYuNPbUkKG/45mjKGkXWjfM9/AI6Ob3kX0btGzpYA9+Q7OL9q/XTLEB+CTJw7GvgKyG+Jebfz+gDyspTagnpbq0eUgS5wYsQIG95ILgUnVoDYdKevnXR4HfjQyKx/adXIotc8+EWAwDrppjRThWUoQj9G6I0/QwEzfH+gbvRjECHwwIx+AmMkDEgpOEazTQtT5GT5ytVaVIp8/+zK1XOt1UB5+tYVR00hp7KoxOZJ0BWRnyK3QPKc0C/BvALSAp0G7gR8yKMgAAeAO7doA48LXQm6oM326HAt6NpbrlFjOYcqLM2tGB77UyIV4DLw/m0mJLZcKM/eYsfdXnfz0H0fYTioQ1cIg00Rb6NKTROFj0IwtaEi5AeOqVRDC5GIbGY73c6ry6VBbF8UmaNHKArZOQBxP261W4pobb25srw62sZEWBYWFwDU69WrV1dazTYpKpfLg6tsYliC6aXg5EMHvunt/8zusAznCwTtqU/8x6ee+PglEw7qc0ARQNSPH37qs6mGrwlRrcd8anZxijyZqgw0LeuKTnxFURZ2kliqV5DkjTcyBGaQgJo/VOvg+3AOREjSweUgsA5xJkqjElKa5vWCqOBKvSTuZcnl5nomfF3T/pbMUgZqou5Kyky7NPIE0EIX/fiiyj6fG4C8oMh1UwILVQJQUcM2F+mDF1F4+VkGPqKc+ADkbYGNRpyi2RXPo9CgEkqzJ0Rz1SmBWMcHpmcXavXlduNyu3mrwv4YiEQr4CTkbsKfQWcCH3gNBEANG+Gbr9l+/eQUUBd9kXgieW1lxFt1pV0jPzYBfqbgetVJdvHWCwlLs9UE4AdhvT6zac/M2najUalUIt/Psmy4FpTHyVln2+12c5urbLf9WhBRxvj33gORLM1W11aNMc1m6/z5iwBKpcr0zOYkoUazlcT9K1eu1Kq12lQNQLPZzEuyT9enb68etDQUiALLIKLADyslbRMRcTbV2mNFzrLyfDgHlzdZHVfwlSKArzYp9MkoKBqElualWbJsYEAYg16/iB0SCKA1QlDm0Olhbgq9PDZ48HxKQVAKwl6aXGw1fK2vEZdxq3Q0BayQO6hcHuezCxDgSC6o7As+sfAGkD8rgafRS7nVJ9+Qb6AJmd2wPa1DXlQo0EhTOB63DQihR0YXbYw8WN4gPgKBAuOV/TAyvW6W+je3LtAQQ8WCbrDj3cST3BIEN1iAM01Ta+3U1LSIkCKBJEkylOueH2ita7U6gE63Z9PNheMDP5iamsoc9k25yHNnV30AlQD76/2nr0aYxCwEsIQ7s0wX9kSPpeXsJWu7jgmAtbrRAIsIe565cOGyta42VYdAKcUiaRIP+WgQhGEYBX4AojSJlcuCIKxWqxAQUafbDcPgJjcf3RGYYTRKRmI3P7N47vIznjbsMlKe9b2sEvnslNGSpRvpWqO2VOgrlaHfR+hDERzgExTADAFIkFlkdix3ZxCPrqE1Ih+d/khkR3FekTtmFhaq9YuN1UZ8W8TmbUIAOu3370nKuztcCZ31+7fdXd3eMBue/ZKvjEaSwBXqPwFGQzDg+AL0ekXC4QgIEILR8Hxohe7mTkYABDJdrk6XK81e9/TqlZtPfARYkkCeFwPPT/KCjenFATMPmsYSZVnmnNNaC0REnHM2S2WwfChKaW20MRqgzGaZtZvc66SISC3URGuTOgWiegTfILHBdq2OAqAMREoxD/JZPYJPCkDLOgJATI1GTnRaqWaz5XlBuRwIRFictWmWDlNajfGUUkprIupZC4gx3uDuQFmW+r53WwoAQWhAEJZaucYMMhSQOEKj3SrPBI2rK+udtSDw9+87NDadHAMCFoQ+tMKwlGNqB5XYR4XFVuST1GgEBumIE2yYliASev7h2YUr505HN70213VBQAx5yu/dld6whqaELnnxFZX5tzIP96UHA2CgTbAg9KBpwO4JsDywUnNcIzQo3+wY5RD98XD2oTMYAqBers72u6u9zk2WARrU1HYxe14igEmWlb39+E3uDR+8nkZrbAlAKZWHirDjNE3SdOPtpESGfRVuNMIrRRsTL39fTmixlqx2vMttTURz1YyZn14Jgs0lkQCAgYrIUpYKUczSFxmtNn7OFqnWZ89tGTwAsjZL08SOlMJPlPKDwBiTs3yb2Twi6LaGAKGGBpxAidF6ujLdTVqe0h641WoBEijVba8labB//+HBMbnBnS8jI18bGGf3G1Gh1wQBrd6Y+i8YuG0FMFqc8zK7P6ysZv3rpSzfAmigTfxY0D2ZlNWOEyKU0Hm/f15lwe13R7c5ijBQW8Sf8Qid5XrYzh8pC9Y7Y8EhA+JjiAyaWvTiBS+6Im3/5goAA5zT6Zz1d31VJbRqUgvxbj8iW19fH35/5SsfDIKAmT/xiU+Wy1Xf9wmI0yRPspqbnanX62EYXr58pdlq9fs9ZhdGURiEgR80mg0APB5p+skRgfJPueNf9XsYb3qeL+0wN7d02BiiXp8CiPIVS5BzrtVqTU1NK6VEpN/vZ1kiInNzs4uLCzaza2tryyurzjnf94MwqlZq1tl2qxkEge/7xpjRu7694KnBghmRCKqVWrO3bpRW7Kzj1dW1UDLPaNImSZIoDEUAZvQtBINpkncB2x2hbTLORJBkyJedwdxqX+22eza7oaLFzjm7q54NipTnX78izSg00Ic87ndPtAPta1yXUaT8rO6ezZIAg7r/nvHUrirys+PMZtffbwuIyPd2ZXsIsiyb2K7nutj1bebOgPy7QS8G0WACZ+MtHm8UhAncP7GohFAGJNSP19N+arNdFAZyzgnvXnnXRhPRM37/eBrt4izEjClyYAAAIABJREFUEjv7qGkHmbrheUAw2uz6qYqIs1tiWghE5BznYTanTp3MDTUW8X1fF+FWQ0XQWqsUTU9P16frvudrraan66So2+vF/SQMo/zdMbMx5vjxY0abofo1HuJDkiTu2eegoJb2q6kaALeyKuvrYNZ3HSftCcQ9dRqKyPf14UNpmvb7/fX1ZuGbIs8zGwylOG+WJYHvh1E4PV3XSpFn6tP1NM2SNM2yLMhHWOzN7KyV/L7ysNEiNeN59ih7fsizxQeFpfJaUyJAtVLjy2Bh35j7X3YfBM987h9dZjNrBwVZ8xJAfoDAh8uQuR0l4UyOwNqy0XHewwTWIWOk1orrsd35HHTOLS0tzczM7CIJI8vsk0886fk35m7SQIdt9tBd5qmr0ssmFE3KIUDs7P37ZkIzLJZFRJcvX15fX79GjuFEMPPs3OzCwsIubtNa+8QTT3g7KL62CVlm7z55t7le366tIKLl5ZWVleXR2xSWbcIicjc9AWDhSqW6sDA/SLQcRAGyG9P9J0KKlLGd8zLn4Bh+gMxCaenGkTKPdZejHVSmHT+N27dv364DwIno0qVLSZKsk3vC7524QQ8jsUg16B6onpKFXbBx59xzzz6nd1CadStEJPCDfUf2bSLKXIY/+eST1lpjzML8XP7iCWDe6P8kRVSfzbIg8Or1qXKpJICIlCvlNMuYudcdpuYKgCAI9i8tbshyGRcDRNztZ+fOk1J6ekrNzRLIJim328gyMztLgU+C9MwzYgxFkb8wn8RxkmT9fpJlMTOYned5WWYHAqCIOnTO+UFQLpUq5bJzTmldLpXKlRK3OY67RVzpYG3DOXbOhWF4+PDhUapoJZd28ZBfGDhGnMLz4HvQGi4DCEwohV4/rlWm0qSTtnueMUqruJv6gYL2OlkSJR6cSOKoHsABCYOumWMhglIJWTZQ17SCMUjSsSjc0EOaweXzmuEb9GKUQs6yVRuf77eDG5mAIhIEQalU2pUAyBw7Dze+3uA4LEdy/2E8/Bx6KbaqugLEGR68w0yVvZGBEZHnebsYqoj4nr/723RuFwLAsYuiaBcHEpHvj90mgRqdFraptDqKdrt96dKgeoVBLnzaKcwOBGaljF6vULdobGEq35ZXlMvrn+RBC9UIYBgt1jnCZ5tXQ7phVuicq9Vq1Wp1d4mgSqmVldUkTgyhQ/y437073amHkQSJs+bUsYlFYncC59yZM2d2JwAAeL43Ozs76pYhom63+6lPfeqee+6uVqtRVGJnBchLiK2trQVBUCqXASRxzM5FpbKIzMxM16dqzNLvx6urK4cPHZyZrpeicHV1DUTW2SRJADjrLl+5urS02G530iSt16eUViOPfdBrXgAlAiIBsTDHCYZaOMBpCmvh+0IgpXpxf3197djx45cvXRqsVRQ00+/3/CDwPR/A3NxMtVIV4StXl4MgmJmuLy0uGuO12x0QJXGcZYMFjDiOAXzVV32VjDc7bF4cFmW56RCFuTo8IElELAUhkgzs8u6+81Nz5660YdBcW6lM1RkwWqWk++2OYp9nauT77mpDlUNiO8iv3Hall9DrAwAzAh+5/MubeeSPQgGBh8CDdVhrghQabY5CEcSaz/dbN8T9BzdXYBcH3ughIwcDSuGBO/DZ59BKxhiUALHFK4+gGoG3eAZ2e03BLm/z+eAFuaJz3O737g8CM0wKAVKlnjaer4jyWEwiAMw8PT194MABEVFKGYlTijw4tyMBMKSzwIfvQRt0uxh1UIQ+PAPn0E/Rj8FAPxGB1Coc6GXt4BztipPumgQx/og10CN5fGerTAQkij8ddr6YaNcvSbYzy3Z6+AQSGfwp0ut2kzipTdWosPpJ0TBDiogESJJYIJ1OVys9MzsThsHS0iKAVrudq/9pEqOolW2MvrK8HEbBuXMX2u3uqVN3K4UwCD3fI1C30xF25Vc9JARud7KnT0OgZmb0qx8EyF68BGEIvFc+BAVkLnvqtIXYTrdSm8rS1NpMKZUk8VCeEZFzNmYG0Gy2nOOpWnVudja/hdW19U67DSCJY2HObc84ju+6666ZmRm3paHN7qf+84QAYYDMwRiKLTyF0FCgpbNOzoElgk6ZI89bPvNUszrl+4qUEcAFHoceAPie1go2QxQi8JCkAycSjV8FgHOD4nHMaHXQ6kAA30BrxIMUdwp98T0kKZHCoQWst3QpJM979szpIqvgxkC0QVQ3euAujto4HAAR7rsDT1yQ1d7AFyQgJ3j1EVQi8GZriW7IRbH5cru/TWZ2zo0lQQI7CVHb3bMdxn0AYBHN7oBIQGSIRKAOHgDgEd1ZKnXarSyzwtzp9kQgwtbaJEkGAgCNFroa1dIg7AfbqB65SpIXK88snBt8Ty08k6s5sA6K4BkohcBDX2GpjgsrqJWpFPbj/vnLl/wbXBF6MaCBGPK5oHtPUtLbR/YTkBB/xu+a269judZ6//79cZwYz3iGsyyTIpoXIsxuI5ZG4KzTSidJ2mp3SuWS0cYYk6Zpt9vrdXtExOxG37rR2maZMcb3POTRlp5H5AOw1oJAUQQCdbp8+aowq4UFFUZCJJ02un1h8Y4eAZGolC9eQhAodp00S/pdpTQAN9qomnLHpSOl+v0+AVEYGs8IS5qmnXY7ThKltHMb72D//v3VajWKotuoLhDBiRPnbGLTZqMcRS70UxGTZXHSr3hBI+khj6fTOuu1jVKilCJa77T2+6Ww2RFPQxHqM2h3QQTS8BSybIOZEGAtyiV0uohCWAvHCIONIL1eDKNhdGKov7panp8LjO67rL++RiDpdhRRlqQ5r7mGgbEVSqlut7s7v4q11uzK9tVaNZsbuYayUCq3er6DEIilcbgCm2Bta+UUEFESJze6AJAf2I/7jUZjF7fpnMsyOxpil6NWrelrFrDyjGm1WrsIZSaifr+vlCKiXq83Y+2RUsmJsHNwTh88QAQDhCCjYK0V4OKlQWHWTqdz4cKgrJeh6QoICH0QIbVIs83UMYgiFCQZSkGeNgyj0I8HleOSZKBWKKIsI2ZRStZaqhQiDHB0Xy7jsl57u+DxnSC/1V3L500HKiDLZUBaNpMiQwmIiR/2ux7IgYhoFySVg5l3rZIgX8jdcvUoiu65556/+Iu/OHBg38xMvdVqDY1tIkqzLPfn5IeLiOf5ztlGo+F5Zro+XSqFyyur6+sNa13BSQd6U27gKaVy1qOUArRSWimFol5bHloqg1GJIsozBhQpKMrdPhjsqIxWoQgAPSnwPNe5RCQMwl6v3+v1Bdi3b8k5u7K6trq2ro3xgwAjJQVPnDihti0yeMsCtLI07VxuVu+aKx06wOIeO/NkO02U8QjwlGKb+aQss6cUSGklTkAKivHo6uWpSvWO+ryGypm4JBmVIgjQaiMKkWWDtbfUIrCYqsFoXG4DANGggxgLoiBX7QNBT/C5p5+8++AdD1+9IBetE9lfq6/2ug6SG3olz0+t1TssGa/U6srq1atXd/FYiGgXK5wAtNZPP/X0hu1MJJ6+X8oR6zNh/8pyS1/e1tlttKEbZzVKqUajsbq6uvNDiKjf6zt2AKq1KbOFwnu9btKOFxcXsyzbFFyXc/AkTR555JEbHerooAFg0KpW4Jw+dMAsLRGh3WrHSay1fuaZs51OD0B9emY0Sidn8/SaU/ejUsJ6W4KISj4IaHcGtW1zsrMWWmOqilYHtQpW12EdopH12Dy5NAwAWe22n15ffvldJ33BM2fPduEIsMIEwmBxUliECHr7ErUTIFBaPR9zcpK7AHmm0r1p2RuXAQTqK/sZrxdgoC/t2oOfYxCssltspyAopdI0bbdbIqjVap5nRgtNWuf6vX6aZkEwiI0RIEsTFBar5/lKDQxJ66yztl6vZzYT5igqMTtrXZqm5XKJSAESx33PD7RSipQAYJY8DMnoQe2QzAoAEfK8gUM6s7lAanY6E9fwkzTVShvPG0YxZWmS83cR8f1g+NzSNPV9r1atsfB2KlVtTp986OAtqAVk1F/97uln/uZiMFOCk067c7613Op2UAhPsOi4DaK8TasCYh04pQFkzu2v1Pcf2A8iNDpwjMATLyBPodUBC9jBmHySI/Cg9UD9B6AUwgDWYpy8h06QXhKv9TpGqaWpaYDiLBWR0PO1Upcba881V19aHdkyoC6qSZvLmN8qpEmaK4ci4vsbJnIOz/NtljnnSBE7t6nwokA8z2Nmy3THTNpJdKOnWbA0ZTXxhaavJ/kmBCiJzBchuQJ0WVadDYiOBCE7p/Yt6vk5EU7TNE3TRqPZ6yWOGYIgDNlZV9RxUETaeAak0E+gFIUGLGBBnKGkEKeDfkYi8ATNNuo19PpI7aBEbeCDGZlFwV9ANF+Z0qSaV5arpdJ6Fjtmy+7U4gHnuBn31uPebFSuBBELX2iu7VABAQACO34+rvSJ/DdfA3jY796XlvyiAgkJ9bR9xOuFG6GP2F0Q9LWvvnNsd/WB7hxG+T7FGukg0J4IzlkRHsbzUJ4XNlDt9agbMV//StMky6yIiPSI4Bxbm+U1OJklTVPf8pgZl585HfFT5D+myaBaKNFw/FvvgggyrJJPBIEiyd1Euc02eG6DpyfsOM22bxGTR7XdEhAMQ2nFcaZKwUpz2bPpq+5+WZpl663m+dWrRmlQ0RhPICSWdMbOJ10Lovm5WbIspQCBBwEyS3EbnkHgIbUIvEFovxTt4wUbUTG5339T6P94CaBii4Sel5+GgfLctF29QkYrtV2U5W0HD+jccu4/Quy9fq9UrgRBIBAROOfSNB3O9dzX6hkDpRrrq7nPfWi55rFVnjGRQjmChTKZ8jTKkSKw1zMT34oGKkCdwIMsLSHLPeZYpONYWKjfR6sJEUUqy7IrV5ZrU/XQ8weZ9s6l2aA3u9JaaWMQeGj3QJBmB55PnoLvIckGK735AqZvEARotgGgHA3GMpRpIwNlyHS5mn+/f/8d/SzVpCphBGCuOsUiRqnc9LjQvm5xzHEQdr+4c62zQgGf8Xv3p6VAFIS6m7h/vtstLZxyjasrpXzfH5iTSbJ1T63NqOphjD9xpZQUKaX6/YFTddRgiuON6tlbvZw7hFKKJwWo5Z69kRHShJA4kcGeKl8UvP34lcAojTSDSyVOyn5w5url+bnmVK2+ODO73FizIkJKwENflqfo2PS+yA8C43EUSDdG2w3Mcs/AyzM0gWEEff6E4mRzHPY1H8Ywdnb0HAAgIu1+rVqdrdWvrCw75tvwoU7E6DCtY4HssPntCwIRGV2ZGGwCCJRmSZokw0A1AEQUBIHSOg8g8T2vXK6MarEsqARyaDZ+9FLkHDyDk4vxc6v+et8zkwriWdBRZyN2IGpmDrkPh4gIXean0hgAri7j6vL4CAcKQRz3siwdTu1cfTTQCoEPgJxDGkPMoCGM8kb6lA7vaeS8bnKy4vAOPWN8421sISgizocT+ouzcxcvXdRaK61eDM6+cxBggM/43QfSslXysNeLbr9c32tDRMIwjMLNOW4EMHNeDVRpHfjBuPpMzC5NEwBRFFVK5SKSaPS//AKbhcYw1mGgnF9zeDRytk3qOxGyLOt0OgCM548moAF5OaM0Nx1q1Vpe1Oial7qlKAfkE0Bz1fDC5WefOfP4vfe+Umt9ZHH/w8+dqSot1g36nYiUPb9errAIi6Ab5xtHnrnkVlz+FZTH+2sQEO8mVXUMAiuuF/fvPno8y9JqpfLoU0/ubqn2FiK17tjiQuD5j184/6LKAOdcvx/na2lRFD304CsA6XR7TzzxZLU6pbUWkTRLkzhWiqan63Ozs2maNlutZrMFwHie5/nVSs052+11RWSwKCgAkPQk7bt2d2Acn7a2ldhUFAG5fxVAHjYpIsL8nGMDIaV6eXlmCAFdQGtdLpeHs5uIev0eOy5XqrnulWVZkiSlKAyiYGF+vrHe6PZ6nU7XoJcOmoDkpQRzDKlBin/zBgA3iMnTlaCSTHrxHQcPKVJXVq5m1t1aBYQAH/Sw3wOwa+5vnWMRf1dLXi8Itj7t3BNUqVQI5NjFcTyqPovAeKZaqeaF4YaHj/+33bU2f7nOztu5bQRa63yEmc3SdPMIwzCIwkggpNS1uf8tlQyCcggApAAQ0bFjJx978vGLl84dPnS0Wqncc+jomfNn/IH7ByJSDyMZk7cbZxos6gYBiGEZRqEcDmSuFJm9mS3mZlFk5RoZQENDnUCgjO3Hnn2ypL3VtNdst5VS/o4TkRzzDXhuXzSwyHS5PF+fZmbzonH/nJ8GQVCrVfNA7MD3q9VKvpAJwHgGgLCkSaIUVcqlarUWRaHxjEB6/T6zsxl8zzPGOHZJkoRhODc/N0qsAiyUcyEvQmrKNqTfh7BaWsq7dPDlKwCgtVpcFIikmayulEA0XUcUOuv6zQY7VoqYBya1CCsiBnnGy5NGszT1PFOulEulUhSGtlJRWiVJasbau4kAAlIb41MEo6EUnMPEhbUbCihDniXGqXPK9xbm5vv9/h0HDj1+5mnv1vHNIZ5PgGpi7d37DwS+9/DZs8FtcC8bIAzCMNzmaCgiaKWMZ25tPOUwUISFt8RrybAn8PXP8+IMb2cgpHYja1qkVp3av7h48cqVen2mWqnNVGvq4NHTTz9mtBICQKmd5EwTQER6CdVrMBqphbMIvPykg31KAYCii4CAAV+jE4/NRBmLRydgOe74nu8LNbrtRr9X80IixEkSBjdQPINAh+bnn7169WZ6XSaCWY4uLTIzEZV8vzfJ+fl8kCtMeeXB48ePHTp4YDhHcv19I9UeAJBl6fz8XL0+XS6FAgl83/e8OE5arVaaJqXSRoHrQwcPHDi4X4b5s5tmniL73Hm+eAlZ5h07SkaDJW00AKJSyTtxHMzc/f/ZO+/uOI4k29+INFXV1Q6OXqLsjGZmZ2fn7Pf/AO+9s++tG5mVKEMHj0absmni/VENQyeJJEiAZP+ODgWgXXV3VWRmZMS9pT8+BpG6c5vXxk1dz2Yb2zvb3Wpea2utqara+3CyhQaJcXmEo1Ev78UY+/3cWuucP5dhDAHE0AaIy/aKfnqSBSK0WDb9+nj2EMbTzcDPRc72JYnp5/3dncW0n2RH335T1pVifqnof0XmIOcJMd4cr631+yC6smUVSqnh8GnDsbff9/grGGO6UorzXJ3D+w2cx7nCNhHcuHF7b2/33r1v/vznv1tjR4MhYVlBDaBpqqefoZv7e6HNNVAnDR0xyFA2sGaZcV3eJ8AYtF6ipyRB6ZAlaFqAlvoQTMuEktEQSOs2s2FQylOcTg9L13RX0MsGzSb4rdFoUZbH5WXaCfgYP9rcNEpHEQJOtxUvkKIse1nyp6++HK+tK+YQQ5emDiEcHR2ub2x0776qKmttN0EZj8e9LBHB/uFRliSDQf/mjRsQ2T84AlFdV65tARweTra2NrXWTd0QkU0scJamJ+EYYnQeodNhFgLEeQgkCSfdnyLOSeeeQRBgtpgfHx9//PHHOzunUihEhBhjWZVp0i0fcfPGdSKKITx6vH39+jVj9K2bN/TpQlKKmrbWl0qErkYvwXlTMKvR9XA5D8VLT2CjUTVo/HM+/rPZBx3Uc2K1nmQ70yMAi6bOtAnBd0uql/piCHRrfePh4cGlz0FOEYCJ72xuRhEG1vL+cVlcQbcNvAvB9Oof4Qt5+hsXa+ydj+4+fPjL1//4f1/+4S+DfDhe35jPjrQyApTlVCSeq9gEADiPQQ4iaT1mc1obwAUYhfZc3t8FqT0lCXwLUmCCNmgceikAOIWiXi7iu9pcAtqAQaqYtDJbg/FsMYsSFf+aL9izCGCVYmLbdYRd3hkeYtwYDmOMgAip2rkLn/7HGKIIK+VcC20065P0ozxZyyAhBJEIoGlqpTjLenmWaa1EpKpq5xwg3jmJy4S+9/7x9s5oNPzHP75Tiv/6T38mkqUao6AsS93P9ZefCxAm027jgT//tEvxhf19ABKFv/ojAAk+HhxF11YH+zdv3QoxAogxum4SsMwZSgjeBw+gqmprjdZ6NBwq5hBj0zQMAD5AgLURVGdBF5AlaHynQgAf4AN8RN3KopIgWLTSePERiwbWQPNyqJDlpsXyszIamkXiRtrvZ/2aqKB4f3IQTrRPX+FLa7y7vjbe6A/ilYkUzofPblzvZgEC2MvOqKy4NM5/70wxs9fWtsaDoRN8890/6vk8T3vLXV8ghuiZYM0TSQCtMCulqEgCrQ9AADO4y/ac1OyKUD/penRokECAKPBxaS/ceXs0Ab1s6eAdBUYhUQCkDcw86vX/dOfTQdqr2tY/rz/mucQYt4ajEINq20uM/gL0rDVKUbEg4rpti+ZZG/nXfAkhYupmxcWiq5LogltX8SPnTFJCWDYAz2bzsixD8L1eZq2NIpPJpKprAG3bLGuFutqbGNq2ybI0TZPH248Xi0U3hIjIfDbFIFfXt/SNa3F7O3z3Q/jmO7W1pa9t8dqa/8c34dvvpSzVjWv6+hYg4Ztvw8/3Teu2Hz/e39vp+nvcOUcNdK5Q3gOYHB83bSvAcDhgZu/9ZHKsAaBx2ByTQKpW5gWv9aF4KfNwnqoFFKUabUAgygwM4APydNkuMCsBQKulZykToFB7WGsTTYpv89ZsNuvi46sN2szMRKM8PyretqXMi1DMw5P9dyK41+v5ulI8d5PyqTu8J2/19SE6US0WiKCzXg/xszuf1z9+XTTN1z9+vbW2RUQximYiorIpR8jlXLK+q8Kg4JcSb8/9dI1CUUcfiengh8d5f2hHuSAazwDAjODFagoRAtQOqQaR7B7DaLI6T5I/3LlLRJ8mtz+6dr2o628e/JzZRDN3ezAven8uhI3RMDRNwq/o2XshEBCjPDw4sEbnbXvv8eM3kQzI816M8euvv/vqqy/rpqmb+rTiXWsznU6qsgaWzStESLPedDqvyqqpmxs3rtdNc3R4tH9waIxN0gznF0ynlZsAQF3XPTEzs0CYznmEKgWjiJa7tNy15RvNTCeNMwStM6NtDAAzP5VI7ybjEJBSSqnewcFh0zR5nt+6eePw8Gg2n58MAEZJ68gYItA4BxOCLBM+5/eVQqRRhhClcTTOu80AaTxp6naru31stB6JRYhg6rSJqWfgggRhJ9poA9ZKHReLTuHg90eQKLKe58yqqavLrRw9JYqs9/sMiosp8kGM2JvNrtYm8MsjgIMoUOdwESAtRJ/LcHsgQixIAR7wT976gRICToUYU7tcN8dITF99+tV/ff9fPsbdo91ltCISwDuPVKOnAcB7uIAQlyasUaDOjwx09gMBecI+grDVu727+1Dq46Q/XE8S6cqtmIhJXKDMSAMCkBrSjBChybACSAgqS7RYq82/fPZlL0mJ+N/vffeiNxejDLOsZxM3OXpQlK/g53GBCGTneCJAjNEo/YaOhZkHg8HB/mH3iudqrIVAzvt+v19VlVKKWUHEGCPAdDYXiHe+rCpjLHeBEeTaVms1HAy880VReu+VYu99WVbM1DRO0PWRNU3jlNIghBhhExhR2zsgiA8hz4kZRaUebQMSihJpSsyz1hHCE+00gFKaWZqmMcZ0nfzW2rZ13k8BFIuidc7Yrs1EK5oVIkKjHEo9nZc8xShZ1ADDqOlk0reZHvbgO/+K2Blhy6KhvAdmWI1FBatJscxLaEOp9tHdXttaHwwJ9PPOI6PN4ezYxdCl1X6znMuHuDEcVU09Jnp0Yrxx6Sim1juV9rRW9/f2ruwm8O8kABb4wmX9qLuCFQFqDo9MfUDBgirIFyEZB5NEBhBJaop7ut1ml16NUfkSoC6Ce2iNKKjbpT0AkQCK1Zd3//AfP3zbM93WKyBCgvWN6wKg8sgNEgv2KGqAoBVCXPbhB8DyE50UIBDh5Klsnu9u//yHmx+dqYAkxs2Lvf2dW9fvUNdLLIDVMApy8iRR0LhllXDWA1DWtQv+uUXMIpJY89Vnn+7sHewdTwJw6af4sgzkDV9rWuv5ouyECNsn0yFEUEqFEJaTWFq2OjZNs7dXA8RMNklxkhiIMYgwMbd1LaU0TctM3jvvfYxxOp0757z3vV5vNlss0wkn8VB2dpcZv244qSopCqBT3CKI1BCIxPicvHiMATAgQKgTVWxbX1W7RMSs7HIAYEaeUifk+Sv5a6upcdI2RKSdmxwf21nqNa1vbEEAYsQAo5BbNB7+xF3SaqpbqVvUqpenvU7mRdHdjz6mGPMse7C/c3Nti5l+2nn0KwV/AmjmYd6jstxx7jVk5S4SJjqYzR8fHzNxP7Fl0+pXMmm7InhgI6pP26zbx4knaiSp8BdNvqbb73X9r22eRhVJTm/NhD9psw1l/vuZDuoPi8YDJ8ZKSp32UQqkn/bW8rxpyy73KRCd5dPZZNQfIXqQWSaOOhF/AMOeLCpiDasQnhUCOa03pfFofefhvaoq+/2BCAgUJX7/6JtPPv6TT7VyQnmK0CWwz+9enhUhig9REKOM+4PD6cQa+1SVnQhG/f69+w+OF4XW6opcem8BEcmylAgAvdB/lM5qZZg5SbLzjz8/me7EeQA8kaM/MbfomM/nr3y0TfP8Lv2uWlMIEFJKK3Va7i4iXd9vtxHUzVysAWJX2rJ8f2dvFEgtJRaEPvUWrqzhNKdnK1XFBPjtg2BM0s9g1LJLJU9paR5y1lkmIYjIqNcfffIFACJ6dLjvgn/R2dW07qu7H7HIfLH4uSjTKxNnmSllDaDx/t2K/iIQyOlWSgQGwp+1vfiMCpUAQrIezL8GrUFP3aG7dRD0nyn7RlcfqDH3Mv8ZsTYEAUV5fqdUgJtbN/7nl3uZXYYE39a//PDNV7e/SEYD6Yo7u5xtL0XdoqrJefQtBGg8Un32THKiD+E9RJj58z/87eHDH/r9vxKJD/7+z9/dvfunIMKLSmW9rrcAtYPlJ+2CpROckLrmLOkn9g95Hj/59PHu7t7hE0aDzLR3NCGCede6hS+ELrE2Ho+fe2td11VVArCaC2j3AAAgAElEQVQ2YVZPFvZT3dTduDscDpn4Uq6MsiyrqgboRI3xiSPUCGF5ivQztG5Z30n8RCfJyb1P/wEwGI5/+O7rP/75n5+4R2ofbf94c+M2eSshghScR3Lq7Hzy70kpVTckELA7nczKIuvqFp7Bh/Dl3Y+yLPu3ez95kasT/c/zboU9EVite1k6XSy6vzjIXZc+Txv75CHAr9gnRJKRNxuqnVG8il/PWyBE5AlwUpZjz8KlQEb5kHnZeEFEitladpYTEGYligp5jl4CF8h7dC5A2weiNGcGgUEEJoSuzgdLqbgo4kKSpDGEtq2bttl5fO+TT/+p01OS1gEiZUv9BHUDOm+A1O1RBzDDdEoDmM/mU1c8668F4HWE3N9vtNZpmnYLr/DkWs2H+OmdW4kx4sP28fSyAoQxpmsPDuE5MroaWQIROI+6RT+TaUFJAiL4CIp4wj3u7MEilOeDjWtbR0f7t27d7W5i5u3t+y76imMMbSoWiUFiEcLyVDvj3OjSeq/URn/MH6uD48l0Pnu2OUAx7x9O7hUPjdH2famxuVyqtv3jp3f7vezf/vFtt4ZdE5VF9ez0//cjJNeCnejqcqY6l4sAilE1cVZSL6FntByJ6PM7n/3w4EdmUgQRIqamrQe9gdRNbdhmRglRG46PJmL0OMmwuU6KEB0aDx+Wq3CtULvlGj0KAGLuD9b39h8XxwdffP43JSfudUajcdR6Oahp1ENiUNSIgCIoBrqHR2KKi4qt6o1yqdW8WDjvX7ZB54NFa621JqKiKM8rwXVsjEaDtAeJO9PZpRweAGOMMYaIptPps4KMWlwkAXopFhUWFXXB2hjEcFKHcC5Yp3bZiCgigjt3Pvv6v/7X1tbNzi3owYMfk6T35Zd/dd7p2qOvIYAPaD2UPL1jQ4REw0epvUoNgI3e8NrW1qIo/vH9d0/1BhNR1dbWvNvVNVcHH+KdzY08y9rWWaXa4CPRIKrXLO8TIIsqvJ6oxrsKE9ZySOxckoGI8IQRkEDWh2ubo7VZcaxZdcXmZbGoON1eHNu10XhRHB7s99fHP1bTkWRDk5IBfAMixABt0U9BwKIEgNYtTQJEotFFMfOu+vLOn1WWCQGtI80AYmIOqvnWeMMFFxdOB1J5CgGCIyYRRCZlDVk1L4u+Svp5vjYc9nu9H37++Z2Th7tERKTXy/K8d/arTb765G70QUJovGuDv9ziQBEZjUbP/l2TUiDCrKIYujS9TGYi4NQgtcsN/058Kgo66w9rECNcAGj92p35YtrPh/e+/393Pv5qOBzHKFoZaJG6RSTqW7QR6unsGETQeBDBaoQIoxaL8qf7P4wHQ35eSeEVqft8DxCB1erjG9ejiBa6tbFxb2eblHqi0uRVucwS8UtEgCSBixIDZQkEKAo8k6gUka3x5mQ+wYnR0KJZPPbeEMnuTjNeq5vZ9OEEOl3UdbtJqXfSbccz0E+Wi4CuN1iwVH0AXF3P54s/ffFn1iaKMAg+Lly9KMsocv9g99HhQePar+5+1u/1KSJ6L5p3DvbvbF4rF+V3j++ToHVtnvWatsnSLLX2zSmsvcec6QWJJMZAMUIg4v3j6VUoDnxug6qWLsFXu53FUZplY5ViY0yKIQ5NQFmDGUGgGcyoGhgNf1JxSrBJOp8e7jy+98ntP/aSfnRh2Q5jDTUO3smkoX6G1KJq4Dt9ErVcWEhnUCexqtmpfNj/PLtbVbV6oeHfigvAhfD5zdsAdYXqzNSt8jwJyVmh4CtAgKPXeYJ3FoK0HkGQKCkbZIa6GP2EwvOynByCKKKYogiBOlc2KHU8m6oQOYaNxH7c7ysiOS3tJsasQJJCAzGCzqIzg2fTw1vXb2ZJFudF2bYqMYumenyw54Inos4Exmi9aCotxBHRcIgo2/o/f/wfZiYRIkqsdcEppZq2adoL1lb70GCiSbGIDx4Oer2mbR9PJvYNL6eiSIzyCkUoen40OZofDDeu3Vscf2z1SKfQgK8BAgsiYzyACCSirBAZzi/rlEVgTVkW8+nk7s3Pe72RpBoicI60AiFYddyWG6NxiNEXFdXBjHIQoXVdElSIIpPOU0lMUVe5Vhmng7w/HAy+/v6FPSkrXhMm9NJUYkQUIqqalokUsMf+9mtsAACA0EJ79QGu1QRkDYjJR7FMMaKXIsal0P+55SsTG0VRRJ3U5p3CRJ74Ri+/PRwKRIoCqkJ/SMCcJa89zwpviPOcQQJBiK5poXn/4P4fP/8XAEX0u20ZCj+bz5VW52fxinl3f68cDFNrJwfTpmmM1iBCOOv+pROtgrfxiX0ATGbzw+mUTnxA3xy189eGg1G//+POzsv2Reup1Ivjg+OmSZU+rIrNYT/rFp4dmYEIXITzCBGGEeVUIiK27mBv+/bNjwZZXzKNIHCBiXaPJ5m102Lx4GCvd7BXu/bzOx+Pev1Oy5AE+/PpIMl6SXqwf3CwmNVN07TNeDiczRcba2MfYi/NiqpcnYtvAqOU7lq1AR/DgxNlvQCZKLfh7SvvA0eSX1T7IW7UEGReiHfH7XTt+g1xDrNyWWeZJagbtL6TZqMYNWsngYCn+rsiMEySO2vrXUEoCN0eL5gWZfnTYtZL0qPZbKucfzTeUMZwiF8fbqtmPhpu6RBn09lxW0+quWJ+bvpeKVUUi8VCXsoAYMUrw0z8httVRaQN4c8f3RnlOUAH0+nLKmPrg6OJVUqJHyT53UHfaHNu4QkIpHaUJ2gbnKhLdxCoLBdZajfHm2hcvXuINOFEz+bzB/u7AVERZ9Z2nm1FU2fKunmletZRHAwG//fr/769vlU0Ve0aJk6TpKpra810sVjWiq6i/5shRHm4uzfs54r40d7eadePAf2Prv8lqlReJZPPQj/Z8tfvE0WuiILThUMkmJW7xz+Nsj4RgyBJSgBEUDbL7TQSOKdYO9+1ZoG6un4CAB/lo9FIJMJYhIAYQYLpRJJ8mA3u7267smam/aY83C0z1iObRlcnwEFVV7uPp6FVRL+eu3/GbmHFO4yPYpT620cfp9bGKEToZ9mirl9KqEMzcyu4kaS3RiOISLGAMUhSEAVmFJWuPY5k6VjdESKJQKkH2/c+vvUFEQlhoryOmB4cTmZTq7XC+UYSPjg8BKRns2ZxvHOwH0PsJcnhYkpEp1u+3an5vgaIqwMz7R4dPT44AGDUE5rAKeg/bfHXtpfJy1UEsdAjW++xty/I/4iIC/HaaHi8KN7LFBFFUUbdGN0sqmLQG0QfKNeIEYsGISLLEETmC+40sjr3m6ftfcWmqaQZlEKMmB0vR4Yky46mjnnDpltJrwr+53LWSHjcLNLgoiJObFCKy6ielgNb8d7SxPhRlt3s90nrc+X5L/08Oohs5IPb4/W49G2JaGpkPQIWZXnkynGS+Bj3Z/t/GG/Zbn0Qwrf724mEJOn10zw0bXD+/sGuBinm58qJKMWHR0f7ItxNUpTCKtZfHor5RaY6BvQftvxn18uD/p25IBZ6aOuH3L6oB9iHmKfJX27cTBO7fXj08PDgqln6vCYE2p3tF0VZqDg/ePzF5sfamLgo0UuobboEEeXZXMnOwV7tHRNJBC/LrAWgIPJxmjshy8xEbbHQ6GSYBHHGgr8ONnrKWFZ9HVOlt+v5AHQgs/VkbWOwYcdrha+//uleqnWIS2O1EMKqmOe9pI7xi35/K8siROZTGIMsJ6Bs6pcNqhrAx2vrsTODRFefRigWYm0vzX/Z2zt0R9268b+qBzfTvJdmSjB3dfS1M+nB0dFhXRz4OlO/Mfvg3+nst+JSISAF/bsp/xm9we8YA1jovq222b0o+tc+3ByN7l6/DpEYpZ+lV9DT7TURILfZ/z38j/5onEn8ZrJ3ZzjuQ8VikeS9UFQuhiq6/dlk4Z0hgiBC9EmVUHftpdrs7T46XMzXNjZvrV+LkdkJlHSJs5FKBIgQBg21zfPxg6NdxdSHTUZrrNQg2C8H6z8tJtc3t7YGY0VqUs/vP36klbpU+5YVF4wX+TjrddF/+ScREPkYj4riZbsN9FZiFSHaBGmGtkVVgAiuhbBWppdY773RmkFtcI+aBeqFECW+JcCT/m62b1hlvJpovFf0QP9pyn+ibOTNr4wBLPSLrXbYPTfzEwUC+Wp9bby1JV3Pqghfqpr8G4KAR3WRQycSiDhI+Hl6dM0mN/traN1+W/5czYyAiU6l1EROPLukawqGAqZNAUXceClqIr2Uf+juf/I/gXgJZVsfN4tRmqZpBtdEp0DYHI4OfD3O+om2xLxBo127H0NMtCqD59Uw8F7AoBt5FiXCWnS6cs7T7HjS+leYV+ncphiNCSRAjGH5BFEwGPL2wSBybfSf8g1FtNsUO03ZRm8QKYZozbXhoNcbzKvi4HjSLTZFpDPqXE3333V6oH/o6s/A+AVjAAn9YsudF+T9o0jC6g/jkSGSqoJNujKYEMJ72dMXRVrYfnSejZbgSB/V833X5krXISR0bmm+LO2h7meCBMHNNJ9Vs05SZr0/ImKiZz4nAQAvoWqbX462M6OvDba0Nnh8gNvXKEujMWZhdYg+RqPYB5/0erdheqI847v5oZP4Hn70HxIC9LXSSRqSBKzgHIo5iCTKo9n0lQYA6O2dx6O19SzNhAhKwUXUwINdSe1109+UXBMJsGl7mzabuLKuignJlu2vJSMzGq+P1wDaPz5SRGmWjfJ+69zB5OilrN5XXEEy0Ne6+iPk2dpQEvrZlvsviP4CJKy+WhurTim3rlBXGK0BqNr2vVQWIyCCIqlIZKMPpEBKIIvg6KkOa2Z4r9Wy25EgTHRUzmxo2hBuDTeN0pqe6aYQAHDi53X509G2VXR9sJloq4iRJYAgCLXNBnQ6r9y8qo2Gpk/Soe33QRTns9mkTUnR+/jhfzgQMHd+ChoqLSJtsUiIg8jPs7kXeQWjHu2COzjaebC9M0rsJzfukjBDITl7QUXLS1+BXAx9ZR+VjxOtUrI8yiVEOP+RGJP15wofb9xIrCXQsD/46cF9pTrNk9XS810lA32n6y9JtlxyOgaQ4MekPCRvXjCXb2L8p421rttvaU0OQgykzeFsfrl+Um8IkgjAs858BYApxhfEWmE+U9cSAYi8U6F2IsO0v56P+FwFHclZZYcTX7X1T0fbqeZBkveTfFlrZzXKCvNSWje6dU20NjFCK0wXWFSyphHEtvHvG7cetcXh8cQYs6q/eHdRTF8/uJ8ZszkcWm3KYrFTVpro1S4rPa3nACsdr423ECKzfv5FLfASQNidHjKhb3ObJHQ8F2UxSNXaKJkLG8VBlFKIyNlCUaZNT+lFcLX3q5nHO0oG+kE1AlxzSSQhwb2kmrw4+geRO1lmiSIx0gRN05W003xW+HBc11dTzfs1sdEJSIhqlaah1tE1Kv3NRwnAvlHeiVIS6fZ4CwLFfKq8XkafkCKCl1C79uej7VRzZuz14SaBztxhh31Yg+1DKWr0s04pGqO+aCPTgjVgVba1+UkIG2vrk+nx8Wz2Xq7DPhASrYPI9mQiABPZ1/gqddEWUZCbNDOJepGxqyBICBL350eTajZMs83+mmZDizKuGWaFRCWVda7RWlzdqtS20W+M12/D2AgodW8xmfr6Q1QJfi9IQfdUE4HrLvkhKY4pvmCaAHSaoMYgz2EsALDCYg4iIt4p5/Y93RwKITAiBIHYsdHiBC+YSoXQbf92u78IMQjqxl9bu6aINZ0kTgVEPGmrNZNqpuNq8eh4TzPlNr05vM7gszRRFBzNAIAJZY3WQSusDwGQBHI15g6f3MTSSVH6eT6ZHl8ZT9UVrwKd+mK+HjqKeImfja8tJxTPnrOCINFLfDjZmTeVUXx9sKlYKeos6oHWidVp1ShAtYtGKSFoy3ds3wz7QuQXi/2j0oCwmnS8s6SgB6rdVa3vaodfjCJ6VJb5eC3rJF8X85Q5ijwsisPWmff0HBCRDE5HcmwcG+0axTE+Z0ZFMUY+lQfqfFmimDTdc03u0k2rsSwPpYmrjtqaY1iUs3lbGabN/ni9NybAnO/5IpzV9xAhRPiA/WMwofUY9mEd7U2qfrKoqp39vca1q/6AFR26dv7u2g2rjT4/Izi34eclCGR7ur9oK6tos79utVXdnbVG3aKs0Xo96JmNkURJvEdi7aN9sSKsEEU38W+ja0ccH+ztWGueq/a84uqjgfg7DMEJCCH++08/DdJkfTCw2uwVi72yBPC+Rv8OA6eFRdiz9myMrxvTe96MSrroLwAJiMDGwqYG+J/FJB1pzYpEEm2O29pX893gQcitvTm8lpoEIqZbJbzos+zGAx9QN7h1HawALsrJvXsPGwla6VX0X3GK3uiNB2lOoPNlZ04igxSRFy/A3nxyXC2s4kHaG2dDAnF3ZwHWBrAWR1OEKEWFfg/KQkRurEvRYF5SohBdduv6TUY+6B8dH09ns1UpwvsNEVKjW+8fHx11acr3cuP3PMEkDshEOodVr2wWCxNap56ukyIQSKj7nwizgul1c66eUt/ODiIw0LbHajLd1cysaD1fW++NAJBAR8Ygg+vcW3/1mLRCXSNNRfMv7dwzDK0K81Y8gd7ojyHQp51cAiY6bivDqq+Nj3FnenBcz63iYdq/NtggkD4nR46D6Zna7WSBEKEV+hmCkFUoFjiu8ektIVJAlma3rqdt21ZNvaoMeu+hDyDun8HaAUHEhNYTR6jIWoXWxyj2/G6wCJGI+BMdZoacX3F3ziGNq9umSJTSWt8Z30y1DTEysXJBRgP0M4SIvUMoPvXrI4Eo6kRel7lWpXxV1xLnrqqKUq0m/iueQW/XxWeD9eUZKCCgCG7h3UDLtGoez/aiiFG82d9Yy4YCWSYfl4qdeKK5UBHm5VJJtKzRtEhSpBaTOdaHx/P5olj88vhhlqSr6L/i/cMjdb7VihNXBpXUKskksmuDtk/5oYYonfmeUSwApGvE7CAEr5pSK6UUN7o39+FhNdmw2TjpNRysAoLAeyFQFFIMSJOaqm1GN64hRMwLKhuAhKCFdg52jpv6ZWXiV3wg6Klvv57u/3V83UtkATFPm+agns9dE2NUTLm11wfXUmNFxLIBftU4kAkgTOZoWty6Dq3hHQ6Pdw4Pfi6OrdK9NHtbb23FireMCmmOumAmQ60WL8RaMZoipIOTq4a64v9OGXupF72M/oQY2dfkW61YM5Uqi5CH1YyAhXePqnmv17sZerJYWKNpc8248Lg4HrYxub62ZtYe7+zcvH6dNsZ71SPVuI2kByBjM+OnzcpXrOjQiqiN4Yf5UendjSw3rHame1nwIGhFG/naWm8EACIWCiEu9Ul+YwZPsAZakYhE+hnNfj3PrH0bb2jFiktDwCqkA2mK6KNRQiBm9tFTaEWfnP8iALhrj1x6b5AET65R4iHQihVzpdLOFvU0jRYgs8V8Vha3rl0fRc6UhtID3/v3/Xv2H3sf37ozLxa7X+8nNqnaRoMyYxVRHdyq7WvFi9AAmGjqaxK6X8y4WWgRrTg19lp/02oTRRQp5SM2RkgMnMNkdpb5OSdSdVblSUCQ8Gg3DPoh4fliblcr0BUfCEwx7XNb+hC6jjfFDNeE5W6wAMJEmkkzBxEminWlfKMUEYiZmLnW6bMlpAQQc4yxruvxKHdVo1LTRp+S0lo92nnMzERUNzUTBch/TfcIpFfWSitezLIqoKv/N21BgNWqZf5o/aMoUgU3UJaJIgt6KVxAGyHnvMMFUaIa9EQrTBZnuwJaRcP7vpgcHIcQVufgig8IQrQ9uEq8U4qZKEik4EQbABBhAtFZ1j+0tTXKKAIgylT8ImltAGDmw8kkS9PcJG5RbR8tzRVO93i7a40Au6q3XvFbnJSFReG2ZBGrOZLyKv3PyW4rURP9dXxtu60+zob+8Jh6mQouGG2cryEZq3Yt91pVRbExGEq/h+nCzQtDLEDixBfz1rsPqBRkxYfKE6U8AAjBZCqKD95oBkAxCAwEDBARE0WJRAyACYZJ2Dg2gX47YaMUP3j8WAgQ0UqtZlcrXhkNEXYNhRagLvrXKu2q/FNiAP8x2aUoMHqtPzDRRa3NaACR6WxycHRsU9pcW68VT2czay1l9n/9+O2/btzqawugimGVf1zxIUAEgYg8MQqEpKeq+eliucuS8rnfiSCABYRVpZJOIfrJ53g+6pye0u96wIoVz0Orag5AiBK1jP5PLT8tMxhHk6Pt/d2vPvk81ykLEJEr+5/1zD5a7Ozt9fN87/CQCEqpvk0eVfM1m2XaRImX87ZWrHiLiMgfvvyTTMfaPpF1IaKqWPzy7/8mRHm//8Vf/vlwb/f+N8faKAKYmIDg3LVPP7t++6NVHF/x9tEgYiLFiKyaZ6L/KcxslXbBB/i2DZyZyreWlFYqxjidz9LkrMin8G7m2wgxq5bfFR8EQiec/ysRGWNFoDQvDg6JaLK3w4qIKHZKECJK8Y2P7kqM738mp9ubEEEI6MxCVmPeZaO1IgZ5nbSkf/0MVEo92tn++NYdTeyLevtwfykqQniqLJQIGk/bYKxY8aEhItpaneg2SIg4PjyYHx4po4jgg2hFEsWkGT21f/AarwfmKxpVieAcWgfvIQImZBmMuaJH+8Ggo0oaNniypfdFEOinh/eZWWLsas7e+AGuWPH7uNxA8twVAABiXrv18f79n7Tlh99/y5qJwEQuRgKE4JsqBM+v4aotAEJEU6N1sAZpSldNc5sIVSl1u4wy3dZHUaKf08o38FLRRRCEl2sUjCEACCG8mUNaseLlWYb/y2k2JKLDo8Pd3X2bPkf/OSijmCLIe09EVqkgMYq4EJkRgzx++Cjp9V5hLiyAZh4ZyzEundecJ7eYxVB7f3VmZwJkxANrn9jnIHKLYuLaKzZYfVjov//975d9DCtWXAyPDr67rJd2bVuVTXyuywqRGW6E2VFnjkoE58RHiRJTkBmsQem6al7hRQXoaa20kXMrDwF6Sh3NiytVfl1BYojDNDnLdzGxoKqaK3WcHxpaf4BLMFqW2z3984p3GFqqKlwKgqRP+QaZ5DmxjAi+Nzja20+S016t5aMkSm+rZ3OIvGIQFPiGfOKNnDaWKWamwRq/pQ/j/IE/9yVPRJBaaY/I5WyNN4qUaGZIvka/KSyz4s1xEdG/q2d+VyBCjHAeziEEGIM0eZeOf8Xz6bILlzMCCKBTmAwmef4dtFUCuBCNYhFopjaACIiwuTbp6xw3VVKBo3WWQGIUIExsU4705ouwCRBQEBCESPicqimArjoqCgmEl6n/WpraNFp0HvoEMtkq/F8mrz0AdPOusoJWeCfk3uoadQOcTMNaB9ei34dSq3XAO00nrnZpLy/n/n0OZ1MMAZiZEJhAEaz4Nc87AlWmqU2ro85izp1p25s+lwmIyPac2XZUCgBJyG+p+qYNlkggTHbq7Z5TRxEByMivc3PN+JRJEMjP9azvhyqqtzFQrXgB2jn3yg9mItWVdnU1Xk0jaeov8OguFiKI2Lo5nzBd1iaXlUuT1QDwDnMigHM1iSF0bpqdELRi4k4LiC5Gqq3Lonj2Mz5OY5aG9M3mVQiqifl/1IiAhqRdHhV6NwwelPVfknrN9O/V+rGXhMCAArzonWDu++ZLU91IKEIgCzVb5X8uF72zu/sKDxPBwNq1NF3WHmC5vqOqOq6qqnVXM6cSBaM0WUuzp7suY9ze3rnSIWTFr9NFU3MVK0qIqK1PplmCGEUzMQMClWhSF3nMBKq5itGrwEG/qTo9ctL/P5Wk9MSeNwEKklH6bWOHjhYiGT17a/KDA6i6bkggJHLJ5bvvAvIG45JmeqUCZELp/fiZ3LkIeklSuysqAcSEeeNaH9fT1CglkE6chZi1UlFW8f+dhQDgyqYS5kdzJgAURZbxXoggZpgS0cWKQBDI6Te4DhdG/ksj9oVzd7FElbwouywpJd+37ZqOZnW1/TYCIaK0TSLHRrcXvmDSg2uv+EgBlbHqN9ny5CWAiLROKQz7T+8FXSVIEBcojCjjjRFDrAEMtmg1GXnXmRxe9hE8D4lx+mDCmgERoS7aC0RF2P67Z5CnatE74YnZ/bP86o1iKJn48rq5wlHiqpC6xDrDIAhZZ8qkjnyR8xz9yiMKAV75eVambaK9Iqu7icyZ891VhQACBYre1hXqPAyMWAYHWrW2veNcvYBCRPNJEQCNZeofQJTlfpPJ3oW6ifMQ9Au6HV4ChjryuGFXu26/zrDsE2h5spCwcL/uzXulXNxa97XyjwSKFIuknObzmmsQEQivWtH89iEQgQo1b6k20axWACveBPv3dpUi6Wwgl7UIopgIYK3evbPu9VOlhFXhz28ikNa4p88Ogo32Amc6F9AH0KWlaq5abrLQU/Edc38kUKUKFdWqIGHFxUJE86N523itl+1ORquuY6H7nbV65+K/aHrdCahAzIUp4L2vEKgyNUc2XgsJmEAEpQjxAneFL6wCoVuqFGoRg3sHIymFC82sfYC8ezPZN4gAApIY4863j7Umo1grOlkBEBMpAAxWBHraTOxKI3A99ZqHS0Hcxrs38r19CFQkZZFWXnlSCooBucCNExK6YB0IAhVpdbHPueKKIyQ6aBN0ZWqcrAg/NFgYJ1enkcy0WomezCd1RF8BgNUMQYxLIcV8sK6NzuMIDt6Ghsvffg0RnJQqEwgCoXh+Lrj86Q0HVmG4z4z9yYl9pS9aIELN2moH+HdBIK+8U47R9EKuxVzc7F8GxejDEwJacXEIiQ4qdYn2GiTWmdo2b6JY7eqTu/FoPqXWA8RloGFCRBv55p8+weHisJodeR96g7U8G6oQdJqPN7fiokJIIDBFsFUtmkCMGHAaw08/RQKLonwUmplEz4E46YNVZBfaBYik21rufmBEhaDfVHwlQXnDqkng2QtrPX/t4bWUf0ufFY1Y8St0+ZWFmptoEp+87iY8AEAFQxejBbTiQ6Vf9XTQQnK6Ls2aVIkqTfVhjQEEWSxQO6UMADBwPEIu2ewAACAASURBVI9KicT1Xn/MJuSbbfD5rZsQwHkpqzBbAJCjKSUWEG4AstAKRYHT1jARaA1mOIfoUR4ti/ZCQE8DpIqoCoCBILQ2RlmjdSC4XIr1i8wVPP12BYuvsv4PNR9GmJd5YCX1n5N2qCmuwv9LQyDHjvjlFtmybJI8ESAEdX/MXE/sBygFuuKCEIiQPDWRE4iOmsFvbEvgTbZFvg7Bo3HIdSfSD8UUA7kglSMf9HBgsjTsH0FrsoaMorJBYiizEMAHKEJZYZhjPMBssXSO75yzCIjxbFQAIYgcz8gaVBVEkPcQIa5u8savIRh5O/PrxRdpTrU+iPL7xgCqpP5LUq+bVfR/ZV6+y4967UCUVGpOgKGek1oQVdQRgT2vBoAVrwiByqQelPkT8xGjiEDC8gaaKgikyHpprugY0HiEgCxDUcI5EC0rJo3GopD5ghuH29fACiKYFVAEf9IUQIBRWJQg4NTPS4DWYzxAlmBWQOKy9V4pIsB7BEGWIO+RILSuHTiRALy97Mrii7TPtd4L8lttvVRJ9U9Js/YGo79ACNRpu39YC9AXw2BTEZjbvooUBQGQxCXWJQwFq1YDwIrXYt4rek2mvSLFohkiRHzhF58su0sooaGTPQAsSq5aMbkiNA5RlvKIrcf6GESYzZfzdyJsH8AaaAYJXMDWGgRYFGhbEOG8LpBAqha3NokYzEJEaYayAgFMiBFRkGdYVLLYc9cGsRdF/FseGkmw+Dzrq1o/9r+yJ0yVlP+ctqM3lfkRiAkmaxOKRASvQmnrN5gCu7qcddZ1QyBFiBICBsWoShaNaXTUSdtpBQoa/woDgCyff8UKAECRlGTJik1jj6gLYRd5epBQ3uS1qVO7xoHyahBVtK2d9o9ZGKCrMBIQQAFgRpqC2auGo2XvESOYQAyJUIzUwEf0csQUTYPpAlajapAYMCEuFfahCI2nzTECxLdYFJRaNA55nyBSFgCJZlgdhspl0WWL5cT37b/xKIu7aa5qc9/Ls344stz1bYfqzc39TdB5nQkJCAJor7VWTl1dYeI3g2hJUukLxFPb0EKAXp13crMSfNb0ExeE4vnlkX7ivHny6+tWUlpMROhkEjSsCkoQvXIvUvH+EMfdDxsCgdBQ03Kbxiy5UC1igZhgtTc9GNKqaY/TkEkESHp1TwcDoOgtLllTXlANpfiIezqjiDBSlYlAzHyiZqQ21iDAvEBTIwgSAwGswaIEBziHxCBJECNiwGgAEZQ1MobzUjtKDeVZ24teecFCNIVxxHIiNlvKSZ8TYXn7kEjxUdrjxv7snhgDnoj+b+rVBZK16fn5fqT4AUZ/glIwjK61REiYux+6E4NJXEuKidX5M0WPjgdwDq1/WsGhGxdcwFq6XMZC4B1uDCGAa6RYgBkEEQFBFDoZiDYXb1eDwAdHd55VXMbotWdn5EKGASXKOiMkFIB5ndDZpW6CRdfM4nVrLnljwKfirC+TGZaSbwSIV05laSgqWE1wTAQmagOqOQjQapnbcgGh7BoJcHwsqREOWgwsd5dysKiyGk82z3Y5sSvSTkVRytsJGPaeO7UHoFqKv6eu/wajPwAVFUc+PStIqEpexWD53UUgJtpeM4BVAU7DtFT2ywEUk1HwsasTgyEogtHLygIX4IKWbrdKnzNUjYLEwhiUJRKF+RwEKIaL6CdwDkah8RSAIHCeNsYEwvE8WgrJqdztig8RArXasfBrR/+zejWlU4SIEJ9+SlnOOZIZmk1cbj8tLZWwAJx6vJBHEzPPqRI0oe+7kjySU+eybiJ/Iq1z1sflAFBsl7/TO6KxKFLeSqDI/uhEgyMW/5r5nmJ5gzLrAijwuRQGeRNa0/JV/qQuFAESya234jx5rxRLbHvIoAjWAFhuLJlnCuhCBKDRthgN0RKa5sTaBWgdQoSPUOc2pozCohJjaF6jbiDAeAAiRF/rqr0dowZWKaAVwMsmZAicV0NRWNgJAYoSBjuphJC2Kbx/TmxXvPwvRIjNK6OimtDxRb2Fl4KIHt07+OZ/7/THz62IfPLKe3YYe49wGp8myZa3P2XV4c8L9YYFdqPI1mjU28wgICLn/X///MuHFoIKX//l5qfjLBemM6m+1DwrJHeGAFqh9RrMmM3OjL0AREEUrI8QBXWNqsFpWYfRVFSd+RdSgyxBiOIo9kKkit4dHdC3QJd9I6HO9mhVl/YrEBTXAYqtsp59hIsgEu5XfRVYEr1cAZxiFIxerlmZiNQbM7/6vfyqJf0TX33wEUTq4kulrgTG42dd7+q2hrzp6N9R1g0RIAgxfvvwgUS5EJfNd4UQ41fX7/Z1IkoDEYmCjwgRbQATQlzqDip+wr6rWq4vNQigp4rPGtzYIAGMlqmnfo62RduC+aw/Jc9Q1ri/67cGsceemlWAOw8LZ02qIneTv9a0tWkv+6CuCqc9YifrTVCM0ASSXpW3pq5tLRR7TV9FJSRon9nQcwEiCAICTmtLYrwK0+kQYufi1NFpf8rJ+OB8+OLGDYE8ODhQ/H5mSzWohbwdTWAmmpZF3baJMd89eOB84Pd0ZH0RAqwPR3AebQuj4MLyivDh3NUgsAb69IIDEoPGAdAwGlHQCdQqQuNocw1QUjTStozYlTbT2hrmhXhPIqIVtA4Zuw20vVIQV9H/PCTUr3onvwBA0iarAaBDEAdxM5An4ZZLjwagfjkQFgAi0TTWxMxTo4P+tXZiH7unAwAm1A5GX3qOPIT40Y3rxui6boq6Kuom1TqzVjETsWKy2oz7/e8fPbqanqkXxdt8b0bpHx4/TrSp2vZ9HVNfhIhUrm3aNrV2aSx6Oh/qBkJmiMBH+ACj0DoEQefETACgIQRjkGcQQVkhZTgvjafUkChJrLM+igfP/VbonGiEIsgtkxqyarp7AoH02vSpP7barbJAAATRSCYQKykAL61Qw0KR40n+kOA9RHQnqvN7PjCjOlUKsgb1Ja8AiKis68+2bocQYwiqk4U+tzAhoHbtUVGk5v3pwRQgiHR2xwS85ShMhNaH1vsPMPonxv7tky+Z+Wlb6cyeJXxEEB0gKJrz8oIdGo1DCHAeqYb3ZCwMU7e+1rpOmyZpCQR5elvvQ9tp+Z0QSIenr+3arlJkAlCvHVrKnHYSI4gcymE5AhMxL5OVEFgFAJqhT7KWjf8170AX4AMys9yaulSY6eD4OISwNhqOk0yI8JTnO9H9vX2r3zHTpBcRRLzI2Jg1Y1Oj8/X1eVV9v71t1Ft9g9QpZH9gRJEb443nRH8AVbsskdAM56F4Wff5DHpxO4KECAIHEe2XPSbCMXKMJNyZxnxwH++rIRzVkzM+qm0j/IFP/0VLZmKiHIk4LQrOAchpQGBYs5wkExCxbJ3lk2j+/9v7zua4kiW7k1lV17WHpQU5w7G7bxXaXWlDEfr/XxSS9um9N37oHQjf/pqqTH24twHQDokhSIDEiYmJmW50X9O3MrMyT55UfZP1r2GYxjMRgv34MaA1ZjiZ7o5G//7111zkGjyMgzUwlpk393b3p9NPwAEE1UpxM0sHSZwYqwC6XRAnUSQXk34/CJio32q/wvrXCAIfAIdWiukc5UssagCA3d+b4lg38PEvO1YyuMBbQaEJR+04a1oziabFfHt+wO9v8to5hWDcM/0BUmWgap4yhkHigMVjp00G4egVoHEGb1YRIEIasw8IZ8L0MJMl8/vjJ7curTtmBYhICI+2tx7t7cXnX4K3FF2P42vtlmVWqKpop1cH4nlZftrljbdEGUJ0ytugaVVO5vNulqmzqBZECWZYi7IEACJ4QV42dIlXwe48Hp/qWX5WUNUsidc3lmpWclGVP9x/aE5BHO18QVUVSAcpltqou6BqpUw+lqZ8ZS2pZn++jYYMEyKLMzOMjommRf6fd+9d6vdbaVKU1ebBfhD5BKx/UL2aJtfaLVEVFSKaVN54n8axqh5MZ598Ll4VIkKEhuhVE9v0cMuqBPrn6xs/PnxweqmwSsJfLl3rJokCdRtis1EWaZRoDcMHQFG9KYNq2Xzm1un9gsZ57kOwxlTe/+P+A2f4s2IlvxJe9F+/+MZ4UWtRVcgiBIEGBGn4yIc7UGdwPD3CBH8mgvoTgInY0PZo+Oxgn4gMs/0kLGMlstZuSxTBWDDpdJo5Syrw3k8nm6NRYj6Fy3wdFEjjaKnfy4tinhfTohCR1EXOGMMEImdMv91WPfWhB8QGxFCtE6pNwaxJmRKsgSp8wBufunMfj5w1GKbN/b0ry8s/PnjAhAvrD8AHPy/ydq1mHDnk1XNvH18o9bZA0cgdv1M2OYowP3Pegon4w1ZETxVBZGNpyfX7TcCrChUiQp4T8oejUfSpb3cJmOb5t4ObxnBZeQOoD4b5OZkmpt8fPzkNfx9EBGpAqmqjSIMgeDgLYxDHqCqEANRD4gJ8QDuFYQxnIMALnH2BzvMJOgDV02wFJBDzcVafPm+nDPOz/YOtgyFdWH8AgA+y3O5G1imA+JhSQr1LbdjKBFEUHl6QV1BdkILeBWV5UbI6bRjmp/v7W8PhjbW1gYuQz0BUp+8eTSY7ZXUaDoDMcysOCpWPKf7KRD/8fnvjyiUjaEUxiOVYuE9Ek9n82XCYRu8yLfMtIKpXVtdTwb4vx+PRvc3H3y1f4iiCNfCC+fw5NQcIiJCXDQUIgNbt9ItMkQKfjANQQFS9qqoupdm8LN/vSEIlAkFUB7a9PE+OvY6DtNj1YwbVDRIAzCe9BX4niGova317dSO8vGKZYHmhla+AwDEU8NIUCS5wJmGYFfjt6dOOseutNGJTSng6z+chvEfrr4SaQRu7+HLeMnI0EXMe+U0zVBUAH0UFvBYd+ttvd/7lxga5SGdTOAdjwIaIfAi/PnmcvG/r773/cuNGm6IoTXuE0OkbWvAzi8WWupXBexDBWqg0km71P6ZOriqqgCzV4ZT6LXwCDkAUlUrH2uU47lgbpalrd0bz2U+PHr2XKrxC2Zh17UTBKEIsaZbGSiAlJWFlG6KWWFJWlk079r76vBmfz4GAy4PlV/MCD+V9nIVheIECf0ZF9E1qPBd4nyAgMiaH3plMBWDAENn357MDdMV0296pCMH04rbSQttekapaT6pg0F40G1ezD6/9SUStJL777Nn31zcSY7SqEAKlaVFVvz5+rKrvnQplnIvJ2iiqiwvGC6KFUzxkcM5zEJAkCB55eVROCwF1kooJlnU4RhoDINFz7AAUyINcSuLLWZZYC1VEkWYtrXsR3xMZ2Rrb49agalM3gg+mJHIWtaqvGiVOShcxa8thWJUkB2Zahc9tGMVroUAWJ6+lKtcoK6QR2gmmOcrwJ9byhfX/oCDgPRr949/bNdmStqIkRsQ0qsg6kCgpKxTEgl5IpR/RxKuyWJn54sPHXHXvyn/euXN9ZaWTpgAmu7sPd3cjY06DCBtCUCatKrKuYZVr8wZEYRjMUIEAkykARA4iTQXYMIoC1oINjKE0Rl6GaTFyL/WsnheIaszm+6Veam2tbUGGNWtBFUTvi4ysUMeuPWK+nkrf0tRj6ANq/ptACSTGsWQOg5iivHVvNu+5MpzpTUAVwgdr1JxV5Xg+62UttRYhHHnlOIIPTcGKCFWAFE3y52Sot735eznrC3xUEPcKZ3uxLsfMRD4EBFVVlaCAwhgjLacrmbaL9IlvaTTFR3AAAAhInN3c33uypwCY6PRovgzsjIc3XAujKZxFEgFAUaGVwjlowLxohD9r0xdFmM0QAowBEYyBKioPJhAhcTYvH//847nMViuQGfP9oJ8YIyqqgGJrnksIAFR1OJ3y+yjBMxvDHEi0F6kSVwyQSiilkojnqFQCQTkIQtBeJAaGjPl4rI8gIq+Jt2tNytL7765dZ/oQv7sX+S+XN7pJuhD/PLZIywohPCdR6+WdN20XHaefHIjIWStBtGMlMlRSTQsrfaGO5/BePENJ1ZRBWy5kbJTcRxVWMszOGGfMqTZAMPOz3e2dfErdVmP9a65EEkEEpSIck/9UYDJtJD7rTpqm/wYQRQgIgshlve65dABFCFezjK3VJEGrDecUuhLHLIFUy/FoezJ5LzsAY8xke0ggI4T9OU8rAgKBI1dVlaldK5gL0e1Z5A0Rpnujj2WWCHR5ZaXXajFRWfnC+8L7IHIom59G8Y3VtSyO86r6oy97D1BVIm7GxNfj0XGMrVyfchqDCD48J/f/Nig9rD3yAarw/oIFdN5hjJkMJ5IHAvHMY29uQAKIYVExhpRIwUY57EzdnBhUjYuyrN5LwHfGERm7ORkGCUfdlJZ1OIGqiEeWNTKfooCilTWrg14KlbSuEuvK0tr5SwGJ6OVur7O2fvRSCFQBUEwnRPRkOHpfqUkCKlajpNtTq6REIOWAMi9NFkGa7QeUnZDfmZCQNpJmHwGF9yuDfhJHqqi8r/LCEFlTt6I1uh4E2h2NTpViU98SJrLWJEmqbJDPGxJCFIEZ+WGmRjHL60IBrMF4Xn8eAP6QT8LPU9wu8EmAQAFKhnk359gSGSWQqAkihmwUhaoQgEEOVvbnmHj91DsPDkHA3FfPkcutobLCLKfIAQoiiCCKjvqBDz95HCLwXoF22jp/bpOZtkejXx89muZzUqUiR57XlHsm3pzNt8vqPRZhWEEgCsRK3JhQMsSaey7VkCFQXZOxftEg8JG2AM7wr/fuz+b5aDJB6VMXOWMJpFpXLVREvYT721v2dJJUteTDUqc76HSDaFH5BztPMRyCGc7CGpTlMeuPZg5d/VsFafqBqwDnjlR9gqBc7B6Owxo403SN+YDCv/Me4gJnELSIboU5EGst9ElEhrzKrHRsm6lUBBYyn9ksEibaH424nteLWvnHoJNRHDcxExGKEj6g8q+9MwueOhOfvx0AAGt4UuR/f/DgUpKsZ1lsLRRFCFvz+WZevPdWFKmtPiBl0Mob0KG8g0JUcnVsYlfbMvp4memanvzXX367NOh/cemyVCWIwXyoE8JED3d2vMipaBIojLE3r1zLyFjlteUVzAqFiouZgHKRdIojGNOEJ2yadt9Z2XT4BCAymM3hDEL9iiBLIQEqr/asRYkoQuJAQHlRFTj3IEBpIQ6iEiYlg9xC8VmhqqVAbRahHrj3OZWCDPPudNRla4gpjmAN8gqrHQAoK0h5VFd7nRU8TFAQoOe2D4CJEmv3qmrrYGiZCKhEDeH9Wv/6KaS6572SST7Ni3zx2DVmVaHWuwH12FmF1o/vxwIRJZHbGo4uLy0lqjIZNdF31mLmZ/sHT/b2otMhKgQJ66trrhTbyZSopQoTYBdTvQ6pyjUXyFlYhxAWhQEAqFtUUJZIHIJAVSrPWQIRkKGDifZayAtE7njHo1aBuhHKjz0U+ALvA/WCIiUiVdGyKA+mQ2KqO2+aFUeqimU7cFH8uY2jImAq/q/7mwL0XPxdfw2REYCZNC+pKmAMkljr+jDz0bpr6gFUD1ACUc0IOq8OoAYTRYvf/1R60JsBtkReJ7PZk2pnRyfQw7vaaNb3y5QF/U4fygqi99uF/O6IrPn7vfu3Ll8eDAZEBKLKh3vPNrdHw1Oy/jUMM8VOnYEXLfzRYwfU9FwA8AEIqCpwiRAAwhGFQzEaI3JgA2ZAWEQZpKSsdzfvXjc3bSUSAh8rcJGzOisocsBrtggXOD+gw+A0aFmV2/nefd2pO/xIUSeEILCBaEorWEKAnoFBQB8SBDhmAFNf7s7GnXa7PBiyMTZUvx9sLUVpn3oJmVBVxjmNXMOPYAMQDMGYoGrAgEeanG8HcNpQgA0BOhtPHvjtfZrXTC8ClKhuTWToiPJZtfndlG2gI6/7UWEN//7kCTF308SHMJrnkTWnav2JaJrPuzbWxzvIYmKgFpoVQRBY27SlHN6cuj09SzGZganJZtZBng/NPKMkooPpeDK+M94q83n3YHcGns7k+9ZNDR6iUIJlmk0wrYBw1Bt5gfMJBYxhDVpN812d3JVdZ0y9sQZRkxcihcUv/hnN0akSIib+vHxADUN0e7qfhXy515eqeLi7JZXfyqdfhnCl3fvpYGu93VsxPQIwr7DebXRDZ7nptECM2Qzj2YUDeBO8992lQTWUO8Wz3AZe5CrqfLUQrCAwCBAjvxRPvzQr7UF7WE0+7mnXcNYAmOY5CB9gAi0z7+7vRaAraRvBw1gQA4p5iV4XkQEThmMYc3QTVTHPUc8fPdwi1K/7WtSQ0E4yknJrHlt+dPBM0l6hUu7sRhzp+gB5jvkI8GDCZz9155UQVUPnZn6r91Wr3TZl9Gi8v8MTy01Ktcn+E7FCASU4ptvl9gYGthtbsuI/u/Z7EXHE8+n08WyexvF/3fgSgDX27/du399+2HbRr8OdgY2dkkYGUBKdjSepCMWxpDEHCVV54QDeBFXxISiZwCFo0EXSZyFfTyVAYZEmIkLdiiVniJrwIRVJrTEP9rbXr3ZMEkG1GfFoGJlD4VGpeqHjBCRRBN8QgWry8pGDRUPvYeUoSiN2xlQBJD6yzrcStpHJZxjtNbsKBdhcSMi9AFVN4/hmr/f3zc3THlD1vlB5r1DhEBBU8EJNbTE5GqSqzDX1zIv/vJy/goiW+0s3rl57trvtlJa6vfp1EP7l5pej6fS3pw8T8P/efrScta+uXzJ74xxVq9sl1e29nfsHOy3jpsFfOIC3ARVBvly6knJ8/GEkVaXGaAWE33ceifno+f+PjNjY+wfbt1av6KEpJ+jmHtIEUOp3MZ83tQFVRA5JjMn0FePAFKg8Om0UBROtLV/Z2X1imDVUSqayxkDNeB/OwVgQoSyPhiJdYIEgsjrop2l2jqZ0HbKC11pLq0m3CbrqgEtVmxwQiPBg+Ew8MZ2fDc57QllVf/n2u1aaKbC+uurz8ujBVxi2S93e+mTc6fUYtDsePtrf+aK/2otbBBLVSShLX/kQnDEXDuAPoFAr/GVnfSnqx2xfetK0zk16Cje763ZmgM9uK/oCmOiYKSZEjiqP2RwEDYFqmlpQdNuYTiHyWsIak05nRKSGBp3+k61HmTWW4Im2D3a/WFmjwVKzZVBBkUP0Ign0AkKQbrtNoLVud2s4PBduQAESrCTdJMm6LtMX31M0LkF925uJlp+f148i98OvvwQN333xVZZkUTOP8mgdqer1wapY5+Ko1+0dHOwbkIYAa+dlvvv40X/81/8WQtgZHZyDB+Kjg4BWmjGxHoauqtAaDXONQO2kdTH8nYm2Z9N8NqdDtWciMCON0G5TZHHYQTGaAGhUSl4GAcaQobq9JbIuc7GokqqFDkejXx8/nM7nVNPA5/MLEYiXoaqtNIkip4r1/qA6P41yCiRx7Kx7ccXVNNDa4ivSKIms+zy33Gw4iEyms4iNMr+c/KQq2MRpEKpkqd1hZ2le6MHY+eCBre3NJI4vL6187gbrbeBJ/vbs97kUL1ANqCkGQwme5B+bv3tUF3bIEO1PxlqUyAuqJxDNSyQpIoskaRoUrYF9xVN7hAXhY1EVoFa7F0QUZFQMc16UP//y0527vxZ7uyjyukb4ga7wnCCIrPX7AFQljtz1lWV/PnyAgvH44NluPnzhASE0KVcFlPFob2s4H31WCaB6sJIPYW155V+/++f1tTWtJ7K9BHJGx3MNAbFRoppPQd0sbrduXt948PjRdDblz0FB6c9DCZb5Vd11NT+hVmACM+vnyEZ7EYboUT7+v7tP/tfuk7v7W1x6WEZcZ+o95SUVFQV5lUbVsX8MQ4E4WryiK4MV70VVWYOCCOosz6bTH4ZDHqyhu4SkezES4DisMavdroqiLIToytJyZO0fzGY4EyAF6NVyLkepbiVlQ8qf+E+uqiICIASZlcWVpZVZWfSy1rXBSsbWBoEKJDQ9qccRO4KiKlFWMIw0rtPVIrq2sp5FdO/er6p64QD+AFTTj7UxRHUEdUxctfkjKLHic4pF3gRLZIhi5r18NsnnqjLZ3MnHU5TFfjXfHB2MZhNSoKyo1i1BfXMF3sMrQkAcq2EkMaBwVrM0cXEaxwo1GqBKKgCsNV5kZ3eXpiWMu9gEHCKIXBoMmBg++MqjLMn7b65c8XLWb1HTe69Nvn8hr0ULAczmj0gZSvSaDOK5RghNW7uqJnGytrwyy/NrK2v/8c0/X1le/cvGrSvLq03lmxaTr4zBcwVdAhHSiFpJo7ZbTwsAADDzrVv/NJoVWzvPLorAb0RdcCINCxVjWrwGaN2C2DyvJCVBSRmLdpULAIbo7wfPVgdLS+2eF7+Tzx8MdwxzMZH/yZaZf957dmv1srMWEOQVep1G4m04lrqRwVqUFSoPYNBa2h1vKSSWqgqBADUWgAXBGCQRyo98vWcHoprFsQIQZWMwnWqSmBAC9D0Pq33vIIAgR0EXlJSatH/TClCvuAARYvpUVpyIBBHDfP3K1UebTwkIQS6trS33Bwr02x1rjCi6rVatiAQATE2lrfEZx28DAViIKj53e1TRztrrK8tPHt8/dQfgRe251Wu11pKoEdzgpUgtiFghRKQQFlKqSWlQtcpf8rJRq1I4Yw99+GcOVTWKg/393d3dIvjrS2tfX7rKTLOi+GFvk5lLlb8+e/gfq9ehoiEgcVR4DYIqmJpOFEUYTuAsiaQ2qoLE1lqpIEKGFcyKmaVuXWn4FOzAe4Msgn02FpJjPnPM362u/bq9dWZ7ApiZieFlQO2WJgAZIIAIJHVmqJ7GrYDSKrVYUQaNIucr//YJwNp6fsgWmT+EiKwMljrtDokMsk53I/3H/dvGsIpWZXn98pVQVioL7TsCrENVIZ8vOi7fCaqRu3p5Y3dv93QdgCpu9nv3Dobn1AcQ83h3uG6vXGp3TEmzMJ2TZ4WCGwIoREmtuq4k69lSnuezg7H2znqM9WFQVlUrzb6+ee3+40eZi1YHS+00q210CJ6AreGBYSLVR6O9XprFSap7o6Cilm1VRaq721sSAvJ5mGsWRfcONuuPiyrXCoBEhnlzf7fXRaxEybl8zE4DOEfgfgAAFblJREFUlvnZ/n6/3QYA5+r0iYYw6A/W8vnedHoac2v/PJjNeDRa1WQ56Vm1VVGMkTcJn6ZZXJQUyn3NllzPh3J7Oiy1sNbK22W3gkgWxwTMy/Ls+AAiysvycpzaQsSYJMu+ubqRRpGzTr1oqBg4im/q4Y4AEPBWem6Hd6ZOZEANR859/8W3p+gAQpCr66uDOLm9v29xRiOOP4QyK8FlSTHL96ejh2G3Yg8Qax2SqBVziXpJvBz32lrmJCRn5aH6yPju1lexi5M4+f7rrw/29jtpSxalKmazsX6522r/4/7t5V5/DL27/fjbG1/0bcS5jzsd6nXH08lvd38jgNkwUcgRE3O9pzR1OlilZomK/G13sx0n3fS8PmbvHUQ0LvK7m09vrK2zMWi1dTaFdaoYdLpb4/GZ3QQokwQyiVPQdDK5UzydmwqkrFSTLIxSK8RpcinpdVU9gupb2HEFRMSLrHa6X125UlTV/71zJ7Zn5SYQ0XQ+y/M8TVITRAVdjtRYrUdnW9MwI4Cj6iMBkUOQIzZd5cEMw0euQgIUYEIaIy+PyHIKLatWkp2mAxDpttvW2KUsG+f52Yw43ow6v0+qghC1kku8QjN6UO2AFSALSMB1t7QeD+J2Jk1m7oIJBAASJM8LAM5ZVV3qD6R6bmSjiHaT7C83bsVxYpWvLK/d2XzcWb+WDFoIgkCzvYP1bt8aezCdFFUZGQM6XK61HgAJMYAgoqrfrV5+JJsf4VLPKizz3mSyO5ncWF3tZq24P6jTlWkUyVmtlh+uOEA4jvrc/2qC3+ZPglEApBCgp+mNbKXV6YkhqlfcH0EBBl1dWWHiVpKISOTcUiub5PnZ2QSEEAJpOcsTMMVGqxKHUupVAAAfYAjWNtpItS6lBkQJiCEBedkM2GgcG0G0KRL4gMgiKJjgPYZT1FKKp3c91pg0ibUMq/3+/uPHpypFeUpQQAgLvQcxSbRGg940OewAAGucpjaNA5ShQiBtCsWfOdjww6ePi6q6eeXa+vKa+uol1r+C0A7MJiKmLrm/XLlhAR3NQIwserJ5b2l59ebVDR9k+2Dv/vZmrYLLtEgGEHlVEdnoL6dJatNEp+eC5/7hULf+3t/e9uFZN036rXY7SSLnzoRi7StBDe1CQAyF4V6n930gPlxxUGNs2mkLA4u+sD9k3+VV9a9ffJFGsWJRAVBtJ+loPjdEonoWwlPD/Hhn62Z/hT1UGM5BBEzQY0IpQUECVRgGEwRgQplDCGahhVX3YFoDJog0nxVFUcEHKBr3QABOzQEEkdXBgIkFoZe10ijyIZwdZ/v2qNUHueYkkNg4ss6RUs0CIoUyhMGqqmTTmGEDgfC5iwJBQcwKELGB1nQdSHiuTivKziI2WgQANonghQCUnorq6tWbdx7c6/eW+93+Sq+/tbdTqYJIFFybCfHXl5bWOv165vEZud3e+5P89AprLJ2oVKaiXv5AgMQQJrPZaDoNoqoaO1t5IZA9aVh2wssEDJs3tB81pM96th4UJMzU7ncXKw6kBEIwICgrqeGkk3o/pQDvjw9BpCDqrKl7326srCZR/MK+x1kTVEl0tdfbHg75VTc/+CA4SVTx5st8JYiozPP/8/DO/1jbiGC0KNHvIgQcF3qgeqQSAIUwvAczVOEF8wL1EetMkV/wUA4vq/SIY8QOZXk4P/U0HUC3q6oaKrbuy0uX/3bvXhqdv+ooqZIqwNqMhoQaboaENSQ1cL0PJfh50et3d6vxyR6aTwCiqqqGWVRvbdzotdoCUhB8PRLy+TXGDKlk64CSmDoJigrWgIDIKrASrT59cu/u3Z//5V/+u2W+tn75hwf3OsSi0rheVcem/k8IUFQfnQUkol9++SW9+4gSYtra2p5OJu/qA1S02+stLy/p2xP8F0fw3j+4/8C8ex7ce3/z5k1jzDtfJtH+/v7+wf5rjaOC5HAbzaSqRGqaDUCTwG5WHJRIS88x9Xv9tZWVoztAgEjmbGJtUZSzvBi0Wi9Yf1XttdpZNIwMrw8GTw/2o5fqlN6HjY0N5+wJLnM4Gu7u7p6g03at25v2U+OJYMhaxBEOxnAv/UZcC+gCVQVjYQTeoNsC4dXqigQEQeKghCLANm+figMQ1bVuL3ORqFJZahS1k+TG6sqTvX1rzlXrmWrUTSdW4nIWRQlYFYBIlfu6JGWdJUM1OavkUK7YcTWy1pafDw1U4SVYY1RVVAetTuyi288e/9O1m7041coT0AQpQJO7PAxmSJFEzB6OUJSwBonDNNQCwMz05a3vf/zlpydPHmxcu9lvd/79q29/vv0T+1qAW6HI3CKkOBt7S1VpprC9I5h5NBpNxuN3FRIXlSxLB4PBCVp8q6q6c/vOiRxANRgMzLuXkYmoKIq9vb3XiWaJSNbKZqwzFKmHMVZJSKkqKhZACYZtZBXKQOnL+GZfuLyWRa2s9dwdCB5lKYBLk34SS+kXJ7DQHFd1Zf7Pva4CPzx86F51Ld77fr8Xx/G73lsi8sFvb2+/qwNQ1TiOl5eWqvG86TsVEdUXo4K6DCwKUUym6HRAQDdBEChQCaKXLkeB2On2Aawhw1h4u1NxAD6E1X5PAVShCuLmuRBfHiwdTGdFVZ2jPJD3HsA+ZslUDSxbQ6rqw3w0JjBU4k5mYycEDih0vs3DsijOY6br7VH3ph8ufoV+cX3jzoP7ztp/vfWtqjJRJ8vSOGlWzeHSIoJzKI83axEYSBwMN4nLaX7sQOh2epfX158+e9brDXqdfhrFN65s3Lv7K6ypv7usyiROP8BVvy0OO3Te9XN68pShLnCSg54UJzsimnTGayESAByEWUzGFaDMQEEq+WgKAUE5smxaAWLIlON5drPbzTIoar2EI9TUeKL6ztZxhw+hLMtMBcFDoSpM/GQ6LUJ4HU/9I9xbhapy4mQ0z4uiyqdZXcphbjI8zzV7MaCYjKEKLpRjSuxzKaMaArRjgGAdWQMNWHjEU3EACsTO1bfAGIPZDEmK4KX5Mc6ZfYyMA5v5cHJ43sSGFMqmmObz0SRZG0zHE2oZZ1zF1acqSBAkqGir1Rp0e/efPI6dCz5cu3J1ZbDkrJ2NxoaoLjl1W+2FUGrdLCEAoPq89a9x2K/4iqdCRC+tX9naevb77z9/++1f2q12K2uLNFOuQFRUxWle8buDQEQnjAD+xLI42RH/ZKRygo+/5UectSymnFfVbL8J2rnuBKDgZbS97/qZaCVBgg9W3Su+mQhxgqrUKJaqmk8O2p1uqKo0nx/OJWXiUVnen82S18fptbF61ys9+TOABcPTMPezJHcpMUqvzhEZsB7ppiyOBGMhAQASSz4gFzj73LOkgCEINC8oiQHCtAQ1A/hOywEsbKCytchz5DMCvloa/LS1fRpHPCUokLhoaeqWu0uT4UjKCiBytjvoKgAV76icz30+h0hvsBK2AmKZVrMTOLkz3s4uIlfXL4tqN8m6cdqKkp/u3xERa0xRFN1OJ0tS8Y24v6o2nATvkecw5t2bFQEAhmKbbmzcfPDw3j9++se3X30z6PSiyHgRYy1A09lodbB2du4dgfI8x7vzwJj5+RrmWx+RyHuf5/mLIfBbfLCqqpPJQTKbIi+89SfJjXj/ZuNIzEshWTZdbct8PGFFIO0NlmAIqmJQqS9GU1LK1rr+yWTemiQr7VecCRFU7Xhk9/fbzDo8iF10aP0JNK2qH4ejN1h/w5wXuaic4DKrsjqZgww+1L+mZUOTwrSzOqMEIlQeIo1OIrhRJktSTEYAoSzQ7qKQo6doYYQxKxHHlCQymcEwZw4A8hKnRAO1xAeTydqgLwLYRReiapokX66v/fL06ZltQnkJCpCtjDK1ex0FGj3a2spFrNBs0PV52UpJ8srNmZOTrKjKhyyO8qo6uyM7FEmS9KNMqxCIu63Ol1euJ8a20lSCavHCmRPCgvCj1TH+/h8d4/Djzf+SRHatu1StzB9uP/vl91//y9ffd9q94figDjG8eLQSlBWKl2mmHwHM/Pe//f1k238XuROYY2be2d55+uTpCY7IzM6dhJcRRdEPP/7wDmXnY3DO8RsLgQq4YMiyS51LIgBKRERKqgSxiEzsnEMlrBQmfjyf/vzkNr3K/c1F//v6qotc0/tUFk3sD5pW1T8OhtEbS+4ucr/8/Mu7etYa1tmT1UjG4/Ff//OvlffffflVL2vX0bRMC+5mR8QeQ0gTSEBewFq0O1CFa+awqigxNY1jzqD0dR+ZqlAWUeSQF6i51Kc0Ecwavru1FUdRL8sU0CTDfApAQui22/ZkweDHAynlo/FhtyHVaTpLjuNQ+Wo+ty6az0sEIRV6x8Wv0MqHb69eG7Tb955t7ozGr6SjfXwQdg/2bSZZu00iIrQcZRRbFeUg0IUU6jEeXvOvyEGONSvWVA5mHP9rXYyOSRxKDwFUoIABRDTIldUrs3y+Pxn9dPeXNI4WETYV+Wzy7Fk7bWsWozgDs9gIURx94GOy4djEH/igUXSKl0mgajIvHUhZm5nAGkjjbquc5cwMYlQipadCTJviOH65FUAUq861o0hQR25HqZz9ovh5OEregpDiPjhxkZjiJHbi5r7o+TTMKo6N5nPNc0osrG2I/Kqae1RMmYOxqCoAIBDTw6d3r1/6AgokUeHLJLKal9g52C/HSbfb8qnWjiRySNxp0UAja358+PDK0mC930/SVKMIgDIT0E6T6VlqwHsDCBTEjzoVodRjEaZCYY3RigxEQshHxrAa1kgLfa7f9Q0IIkSUOJdFca/VEtWVXm/zYBjxWdweEZGKsrPBB2sMGCgKJW24aAGNZhdj0akIoG6gYECaLBARplMIwAGRO8p7VQGiMIQqNIw3EcQRKo9680v46vqt//fb33wIRVmaxkdq6jrJYFmNBSs6DnufZvXl84LKJPK5FaWjeqECMMTi2ZGK+rJgMDlSRyVXqF7xNR66mibNrA5QHsKwKPIQKpGdsnwb6/8RwczPtraxhjROu0UVtZJavq7JLorotAAxEgOBqpHp1KVx/fR3O0vj2bjb6mKal5PhTPxyZ1kj153r9t5W+9INCUKtDMzIq1Pszk2c3R4On+ztd9JkvddvpUlsnbEmsnZyVnK2fwwfwi5Gr3gjKPKFAaPjce9bebYgstrtbaytLdr0FEDsorPQkfhK1NTmQa/v8gqFhzNIo8b6H52yIgDwOGwvOnpL4AVxfNhWh7ICc0P8xyGvWZuZyj6gmjdFOGpO4Na1W3+/82tsm1suQbKVJeci8QGVRys6K81gF/gzUAz95BW/ZAAKfcWKCy+T3pvvMUQEqkJ4NJ0+zYuIiQEQxWc20XoM1ppn29upjXqXrr7IA53Mqdup2dXF9u6BC/fu3L406F1evRZHcT9q3dn8PUsyS6bX6Q/H+8/2NlObtqN4kk/z6fRotvk0P115BsNsmMuqurf1LKha5m6aVX9UBTpreE3f/DsXekU0qBhmAgrvr64sv8AvM8zOGlGFqoiaMxakGGPuPnqw1u5udJeUqNEnITreWQ4CgiJUUCAyIIYXGIKvUCrKqmkGZoYCQRYEoQW1WYEQUHikcZMsOswSQTtZux071UBEqiA2e1uPw6y4unpJE3d+gooL/AFeG0W9i91wTL+PRtdbrd/GE0vIzthqehsosLG86ox9kTtLADetAInqckVhaWV7vHMwGX5z7esYJsuW7j365cbShjG2YxJjsTXeug1m0G+7T691l3u7fi5V1mrZP8OgUFEf3jbxykDwfm88okUujpkNmxMeXREknKw+U+PEnff10X14BwqEqlrnlrqdQdbaHg4P5vN/v/WVIX7h8wS0k2R3Muml2fXVlR8ePHhlf8o73faXwcQn6P2pYYk3R8OOct/EiGOs9BDkeGc5cOxx0oBQ6xESwHCEcYFWAiEYhT9GVzj+H2VAFCGOIYLZDM+f6pXVK3ef3E+cIaoFUWh/uHlldR1BUJQXLuAChyAgALcnkzdXes8yiCivyk6SvfhG5LA7VIBiF6y5PdoJUKRdLme/Pfyt0+4diC5HnV+370jUqRSOmTmKq2lpEoj/+WDni6yzlGSowsl3ACIyGCzduLFxMs4DER3sH9y5c8eeqA5R+eqbb77pdDonPvq9e/cODg5ORoPLi/zf/u3f3qnKz1XJdQN6vye+HirwIgS4ubJqvF9pt8ez+SvTQaqaZuk333xz4k6T+Xz+448/nqyI54O/uXGju7IcJjmDqeZ9FgEWL8YRhIUWFWM2Q5ZBAmKHOGlGP4rHq4MyBQP1sNMX39BBt3/vyf3D1hwiYkalIRKjoxnO7VK/wGmAAHuukg0vwDA/HR2sdvqveC+LuSgJmIs/8EXCBswSt5nzyWyUME28tWSknIrLvAqAmAwBBhJz9HS2v1PmqflzCp1EMMacLAwnIuKTK6apKjMz88ns4Mns/tHRRZnZGPO2RyeCp+ZGEcgarcLiHarlJaCKquL59Itud1ZVt/f2s9fH6Se+cCI68WcBQMFM1hhvjVZBvUpiq2KW2hYOtR6aU2z+HqLwHmUJZsSmETLMX/PMKJAlyCsZHbAzSF70UobN1xu3fn94m5kM15tJLosi8or0YiTkBT4pEFAGPyvmmYlguCEziei8CNCZLyeTIpcQHVozgkQJbFyFikIlEkCIMS1tJswlR5GUChDUgkoJhfo/WwP4M93kHxHv5bTf4UtUYR3Kom5OAXPDmxEZTSY9KB9Gu8xB9dfROD0zoypeRtOqLhp8WT7aSm2EvIA1Tbf6CyFXLQQ0nwEAsYYIkSMGaimxF1oW2wmItVJebwHAbP7C3yi03+71s/a0mDljVJUAb4GVPmKHJw9P/eIvcIEPCGZ6vLtzozMQaOwiOMuVf1ZMf58eJMTa7LSfX3JMypG6CKLs88pXDvPCtUBQwIlXsBATgd5unNgbcPKOZ6o1fP/04T/wBxfQd/4SYxAnqCp1VopivLfbHywRUS9UzOawukWg++ORVzFv7pb8qBtbIgIztxMy7HgV80oscZpCBL6C1NMTFnpTRIgcygoEGEOdGLPQCAS9YP0J8KJlhcg2cy0qj5cyhAos91dHT+/WkichSLBMaQyRQ4H4d+7E/bM4l2HQBc4+GDQO5X/ubzIQEd/qLqvq1nyasvljE8AkUcaYh1A66yuyJUcEOClntqkrnNwBEMhX1WQyOXEuYp7P+aRNYcw8n8//jAPw3p/YAxlrp9PZCVg6qprMpvZg2DdGRwccxTheSFA8mk62ivLNZSsJcuLbDiDPixP0KNYgpqIoJpOJqMTG0bi0WYIoYlFUAZHFdN4Q+RVgAwlQRZyirACgHguTOAR90foDmJWIE0qMzHL1QomjfruZYvH8/YjiWBRNixBRPptOxmNVZbKGbWxT/2HluK01TObCCVzgNMBEMREAAX4abUNh36FZVMXG5EsTSgYLccGRlepQrOT/A2WIzGJZCuaXAAAAAElFTkSuQmCC;" vertex="1" parent="2">
                    <mxGeometry y="20" width="746.67" height="420" as="geometry"/>
                </mxCell>
            </root>
        </mxGraphModel>
    </diagram>
</mxfile>